<?xml version="1.0" encoding="UTF-8"?>
<svg id="Camada_1" data-name="Camada 1" xmlns="http://www.w3.org/2000/svg" viewBox="0 0 1920 1080">
  <defs>
    <style>
      .cls-1 {
        fill: #727160;
      }

      .cls-2 {
        fill: #ded6cb;
      }
    </style>
  </defs>
  <rect class="cls-1" width="1920" height="1080"/>
  <g>
    <g>
      <g>
        <path class="cls-2" d="M694.82,476.59h34.38v7.14h-41.9v-77.44h7.53v70.3Z"/>
        <path class="cls-2" d="M757.67,483.73l30.96-77.44h10.48l31.31,77.44h-8.83l-8.24-20.55h-38.84l-8.24,20.55h-8.59ZM777.09,456.36h33.55l-15.77-39.15c-.36-1.08-.94-2.38-1.06-3.14-.12.65-.59,2.06-1.06,3.14l-15.66,39.15Z"/>
        <path class="cls-2" d="M1159.96,483.73l30.96-77.44h10.48l31.31,77.44h-8.83l-8.24-20.55h-38.84l-8.24,20.55h-8.59ZM1179.38,456.36h33.55l-15.77-39.15c-.36-1.08-.94-2.38-1.06-3.14-.12.65-.59,2.06-1.06,3.14l-15.66,39.15Z"/>
        <path class="cls-2" d="M855.42,483.73v-77.44h32.63c17.72,0,28.47,8.65,28.47,22.39,0,11.14-6.6,18.93-17.84,21.63l18.69,33.42h-9.77l-17.85-32.12h-25.54v32.12h-8.8ZM864.22,444.58h24.07c12.1,0,19.18-5.84,19.18-15.68s-7.45-15.57-19.43-15.57h-23.83v31.25Z"/>
        <path class="cls-2" d="M952.55,483.73h-7.53v-77.44h7.53v77.44Z"/>
        <path class="cls-2" d="M1023.2,406.29c14.42,0,23.92,7.53,25.16,20.06h-8.16c-.89-8.46-7.04-13.27-17.1-13.27-11.29,0-18.67,5.43-18.67,13.9,0,6.59,4.14,10.76,12.52,12.75l13.75,3.13c12.52,2.82,19,9.51,19,19.65,0,12.96-10.73,21.22-27.27,21.22-15.54,0-26.05-7.63-27.06-19.85h8.27c.45,7.84,7.83,12.96,18.78,12.96,11.74,0,19.22-5.33,19.22-13.9,0-6.69-4.02-11.07-12.63-12.96l-13.52-3.13c-12.52-2.82-19.12-9.51-19.12-19.75,0-12.54,10.73-20.8,26.83-20.8Z"/>
        <path class="cls-2" d="M1110.67,406.29c14.42,0,23.92,7.53,25.16,20.06h-8.16c-.89-8.46-7.04-13.27-17.1-13.27-11.29,0-18.67,5.43-18.67,13.9,0,6.59,4.14,10.76,12.52,12.75l13.75,3.13c12.52,2.82,19,9.51,19,19.65,0,12.96-10.73,21.22-27.27,21.22-15.54,0-26.05-7.63-27.06-19.85h8.27c.45,7.84,7.83,12.96,18.78,12.96,11.74,0,19.22-5.33,19.22-13.9,0-6.69-4.02-11.07-12.63-12.96l-13.52-3.13c-12.52-2.82-19.12-9.51-19.12-19.75,0-12.54,10.73-20.8,26.83-20.8Z"/>
      </g>
      <g>
        <path class="cls-2" d="M1018.03,609.41l30.96-74.82h10.48l31.31,74.82h-8.83l-8.24-19.85h-38.84l-8.24,19.85h-8.59ZM1037.45,582.97h33.55l-15.77-37.83c-.36-1.05-.94-2.3-1.06-3.03-.12.63-.59,1.99-1.06,3.03l-15.66,37.83Z"/>
        <path class="cls-2" d="M706.38,609.41v-74.82h-7.42l-27.27,65.94-27.28-65.94h-7.53v74.82h7.42v-35.53c0-13.06-.21-18.81-.63-23.93l24.35,59.46h7.21l24.35-59.15c-.42,2.82-.63,11.07-.63,22.46v36.68h7.42Z"/>
        <path class="cls-2" d="M739.67,609.41l27.48-74.82h9.3l27.79,74.82h-7.84l-7.32-19.85h-34.48l-7.32,19.85h-7.63ZM756.92,582.97h29.78l-14-37.83c-.32-1.05-.84-2.3-.94-3.03-.1.63-.52,1.99-.94,3.03l-13.9,37.83Z"/>
        <path class="cls-2" d="M829.9,572.05c0-22.27,14.42-37.46,35.53-37.46,16.09,0,28.73,9.41,31.77,23.79h-8.05c-3.13-10.43-12.33-16.81-24.04-16.81-16.4,0-27.38,12.15-27.38,30.48s10.98,30.38,27.38,30.38c11.81,0,21.21-6.18,24.45-15.9h8.05c-3.45,13.67-16.51,22.88-32.6,22.88-20.9,0-35.11-15.09-35.11-37.36Z"/>
        <path class="cls-2" d="M933.41,609.41v-74.82h7.53v33.34h40.44v-33.34h7.42v74.82h-7.42v-34.49h-40.44v34.49h-7.53Z"/>
        <path class="cls-2" d="M1119.93,609.41v-74.82h22.57c22.57,0,37.62,15.05,37.62,37.41s-14.94,37.41-37.41,37.41h-22.78ZM1127.46,541.49v61.03h14.94c18.29,0,29.99-11.91,29.99-30.51s-11.7-30.51-30.2-30.51h-14.73Z"/>
        <path class="cls-2" d="M1247.48,609.41c-21,0-35.64-15.04-35.64-36.38s14.73-36.48,35.64-36.48,35.64,15.04,35.64,36.48-14.73,36.38-35.64,36.38ZM1247.48,543.44c-16.51,0-27.79,11.99-27.79,29.59s11.28,29.59,27.79,29.59,27.91-12.09,27.91-29.59-11.4-29.59-27.91-29.59Z"/>
      </g>
    </g>
    <g>
      <path class="cls-2" d="M760.61,673.3v-23.25h7.96c1.81,0,3.3.33,4.47.99,1.17.66,2.04,1.55,2.6,2.66.57,1.11.85,2.36.85,3.74s-.29,2.64-.85,3.76-1.43,2.02-2.59,2.68c-1.17.66-2.66,1-4.47,1h-5.63v-2.61h5.49c1.23,0,2.22-.21,2.96-.63.75-.42,1.29-1,1.63-1.73.34-.74.51-1.56.51-2.47s-.17-1.73-.51-2.46-.89-1.29-1.64-1.71c-.75-.42-1.75-.62-2.99-.62h-4.84v20.64h-2.96Z"/>
      <path class="cls-2" d="M788.62,673.3v-23.25h2.96v20.63h10.77v2.62h-13.73Z"/>
      <path class="cls-2" d="M812.3,673.3l8.44-23.25h3.43l8.55,23.25h-3.12l-4.93-13.79c-.3-.85-.66-1.92-1.06-3.19s-.89-2.9-1.46-4.88h.56c-.56,2-1.05,3.65-1.46,4.94-.41,1.3-.75,2.34-1.02,3.13l-4.79,13.79h-3.15ZM816.55,666.81v-2.59h11.94v2.59h-11.94ZM821.27,647.78l2.18-4.59h3.14l-3.03,4.59h-2.3Z"/>
      <path class="cls-2" d="M851.4,673.71c-1.68,0-3.13-.27-4.36-.81-1.23-.54-2.2-1.3-2.89-2.27-.7-.97-1.09-2.11-1.19-3.41h3.04c.08.87.38,1.6.89,2.16s1.16.99,1.96,1.26c.8.28,1.65.41,2.55.41,1.05,0,1.99-.17,2.83-.52.84-.34,1.5-.82,1.99-1.45.49-.62.74-1.35.74-2.17,0-.75-.21-1.36-.63-1.82-.42-.47-.98-.85-1.68-1.15-.7-.3-1.46-.57-2.3-.79l-2.81-.8c-1.87-.53-3.33-1.29-4.37-2.28-1.04-.99-1.56-2.25-1.56-3.79,0-1.31.35-2.46,1.06-3.44.71-.99,1.66-1.75,2.87-2.29s2.56-.81,4.06-.81,2.88.27,4.06.81,2.1,1.28,2.79,2.21c.68.93,1.04,1.98,1.08,3.16h-2.9c-.13-1.13-.68-2.01-1.62-2.63-.95-.62-2.11-.93-3.5-.93-1,0-1.88.16-2.63.49-.75.33-1.34.78-1.76,1.34-.41.57-.62,1.22-.62,1.94,0,.81.25,1.46.76,1.96.5.49,1.11.88,1.8,1.15s1.32.49,1.88.65l2.33.64c.62.16,1.32.4,2.07.69.75.29,1.47.68,2.16,1.16.69.48,1.25,1.1,1.69,1.84s.66,1.65.66,2.74c0,1.27-.33,2.41-.99,3.43-.66,1.02-1.62,1.82-2.88,2.42-1.26.59-2.78.89-4.57.89Z"/>
      <path class="cls-2" d="M870.63,652.68v-2.62h17.57v2.62h-7.28v20.63h-2.97v-20.63h-7.32Z"/>
      <path class="cls-2" d="M903.11,650.05v23.25h-2.97v-23.25h2.97Z"/>
      <path class="cls-2" d="M925.74,673.62c-1.99,0-3.75-.48-5.31-1.44-1.56-.96-2.78-2.34-3.67-4.12-.89-1.78-1.34-3.9-1.34-6.36s.45-4.59,1.34-6.38c.89-1.78,2.11-3.16,3.67-4.13,1.55-.96,3.32-1.45,5.31-1.45,1.18,0,2.29.17,3.33.51,1.04.35,1.99.85,2.82,1.51.83.66,1.52,1.46,2.08,2.4.56.94.95,2.01,1.15,3.21h-2.97c-.16-.8-.45-1.5-.85-2.1-.4-.6-.88-1.11-1.47-1.53-.57-.41-1.21-.73-1.91-.94-.7-.21-1.43-.31-2.18-.31-1.39,0-2.65.35-3.77,1.06s-2.02,1.74-2.67,3.11c-.65,1.37-.98,3.04-.98,5.03s.34,3.65,1,5.02c.66,1.37,1.55,2.4,2.67,3.11,1.12.7,2.37,1.05,3.75,1.05.76,0,1.49-.11,2.18-.32s1.34-.53,1.91-.94c.59-.41,1.07-.92,1.47-1.53.4-.61.69-1.31.85-2.1h2.97c-.2,1.19-.58,2.25-1.13,3.18-.55.94-1.25,1.74-2.09,2.41-.83.66-1.77,1.17-2.82,1.52-1.03.35-2.16.52-3.34.52Z"/>
      <path class="cls-2" d="M944.66,673.3l8.44-23.25h3.43l8.55,23.25h-3.12l-4.93-13.79c-.3-.85-.65-1.92-1.06-3.19-.39-1.28-.88-2.9-1.45-4.88h.56c-.56,2-1.05,3.65-1.46,4.94-.41,1.3-.75,2.34-1.02,3.13l-4.8,13.79h-3.15ZM948.9,666.81v-2.59h11.94v2.59h-11.94Z"/>
      <path class="cls-2" d="M1002.32,673.62c-1.98,0-3.75-.48-5.31-1.44-1.55-.96-2.77-2.34-3.67-4.12-.89-1.78-1.34-3.9-1.34-6.36s.45-4.59,1.34-6.38c.9-1.78,2.12-3.16,3.67-4.13,1.56-.96,3.33-1.45,5.31-1.45s3.76.49,5.31,1.45c1.55.97,2.76,2.35,3.66,4.13s1.34,3.91,1.34,6.38-.45,4.57-1.34,6.36-2.1,3.16-3.66,4.12c-1.55.96-3.32,1.44-5.31,1.44ZM1002.32,670.87c1.39,0,2.64-.35,3.76-1.05,1.11-.7,2-1.74,2.66-3.11.66-1.37,1-3.04,1-5.02s-.34-3.68-1-5.05c-.66-1.37-1.54-2.4-2.66-3.11-1.12-.7-2.37-1.05-3.76-1.05s-2.65.35-3.77,1.06-2.02,1.74-2.67,3.11-.99,3.04-.99,5.03.33,3.65.99,5.01c.66,1.36,1.55,2.39,2.67,3.1,1.12.71,2.38,1.06,3.77,1.06Z"/>
      <path class="cls-2" d="M1034.35,673.62c-1.98,0-3.75-.48-5.31-1.44-1.55-.96-2.77-2.34-3.66-4.12-.88-1.78-1.33-3.9-1.33-6.36s.45-4.59,1.33-6.38c.89-1.78,2.11-3.16,3.66-4.13,1.56-.96,3.33-1.45,5.31-1.45,1.18,0,2.28.17,3.33.51,1.04.35,1.98.85,2.82,1.51.83.66,1.52,1.46,2.09,2.4.55.94.93,2.01,1.14,3.21h-2.96c-.17-.8-.45-1.5-.86-2.1s-.89-1.11-1.46-1.53c-.58-.41-1.21-.73-1.92-.94-.7-.21-1.42-.31-2.18-.31-1.39,0-2.65.35-3.77,1.06s-2.02,1.74-2.67,3.11c-.66,1.37-.99,3.04-.99,5.03s.33,3.65.99,5.02c.66,1.37,1.55,2.4,2.67,3.11,1.12.7,2.38,1.05,3.76,1.05.77,0,1.49-.11,2.18-.32.7-.21,1.34-.53,1.92-.94.57-.41,1.06-.92,1.46-1.53.4-.61.69-1.31.86-2.1h2.96c-.2,1.19-.57,2.25-1.13,3.18s-1.25,1.74-2.08,2.41c-.84.66-1.77,1.17-2.82,1.52-1.05.35-2.17.52-3.35.52Z"/>
      <path class="cls-2" d="M1064.98,673.68c-1.83,0-3.42-.36-4.8-1.08-1.37-.71-2.43-1.7-3.17-2.95-.75-1.25-1.12-2.67-1.12-4.26v-15.34h2.96v15.1c0,1.11.25,2.1.75,2.97.49.87,1.19,1.55,2.11,2.05s2.01.75,3.27.75,2.36-.25,3.27-.75c.91-.5,1.61-1.18,2.1-2.05.49-.87.73-1.86.73-2.97v-15.1h2.97v15.34c0,1.59-.37,3.01-1.12,4.26-.75,1.25-1.8,2.23-3.17,2.95-1.36.72-2.94,1.08-4.78,1.08Z"/>
      <path class="cls-2" d="M1087.27,673.3v-23.25h2.96v20.63h10.77v2.62h-13.73Z"/>
      <path class="cls-2" d="M1110.96,673.3l8.43-23.25h3.44l8.54,23.25h-3.12l-4.92-13.79c-.3-.85-.66-1.92-1.06-3.19-.4-1.28-.88-2.9-1.45-4.88h.55c-.55,2-1.04,3.65-1.45,4.94-.41,1.3-.76,2.34-1.03,3.13l-4.79,13.79h-3.15ZM1115.2,666.81v-2.59h11.93v2.59h-11.93Z"/>
      <path class="cls-2" d="M1142.61,673.3v-23.25h7.95c1.81,0,3.3.31,4.48.93,1.16.62,2.03,1.47,2.6,2.55.56,1.08.85,2.31.85,3.7s-.29,2.61-.85,3.67c-.57,1.06-1.44,1.89-2.6,2.49-1.16.6-2.66.9-4.46.9h-6.32v-2.63h6.18c1.23,0,2.21-.18,2.96-.54.74-.36,1.28-.87,1.62-1.53.35-.66.52-1.44.52-2.35s-.17-1.73-.52-2.41c-.34-.68-.89-1.21-1.64-1.59s-1.73-.57-2.98-.57h-4.83v20.64h-2.96ZM1155.97,673.3l-5.62-10.47h3.33l5.71,10.47h-3.42Z"/>
    </g>
  </g>
</svg>