<?xml version="1.0" encoding="UTF-8"?>
<svg xmlns="http://www.w3.org/2000/svg" xmlns:xlink="http://www.w3.org/1999/xlink" viewBox="0 0 1920 1080">
  <defs>
    <style>
      .cls-1 {
        fill: #333733;
      }

      .cls-1, .cls-2, .cls-3 {
        stroke-width: .75px;
      }

      .cls-1, .cls-2, .cls-3, .cls-4, .cls-5 {
        stroke: #1c1e1c;
        stroke-miterlimit: 10;
      }

      .cls-2 {
        fill: #1c1e1c;
      }

      .cls-3, .cls-4, .cls-5 {
        fill: none;
      }

      .cls-4 {
        stroke-width: 1.21px;
      }

      .cls-6 {
        fill: #f1eee9;
      }

      .cls-7 {
        fill: #a36d52;
      }

      .cls-8 {
        fill: #dad0c4;
      }

      .cls-9 {
        fill: #4d626b;
      }

      .cls-10 {
        clip-path: url(#clippath);
      }
    </style>
    <clipPath id="clippath">
      <rect class="cls-9" y="-1373.38" width="960" height="1080"/>
    </clipPath>
  </defs>
  <g id="Camada_1" data-name="Camada 1">
    <rect class="cls-6" width="1920" height="1080"/>
    <g>
      <g>
        <path class="cls-7" d="M691.54,412.79c2.31,0,4.63-.01,6.94-.02-58.5,16.33-82.97-8.28-130.91-32.03-77.99-38.64-157.71,59.84-239.79,36.61,9.13.52,20.35.65,36.17-3.79,60.86-17.07,125.2-77.55,200.54-46.72,42.24,15.91,67.68,56.14,127.05,45.95Z"/>
        <path class="cls-7" d="M630.51,440.58c-5.64,11.3-23.82,44.04-62.16,60.8-23.78,10.4-44.94,10.11-49.63,9.98-5.06-.14-24.13-1-45.29-10.85-38.43-17.89-55.65-52.36-60.77-63.79,2.55,4.77,6.33,11.18,11.62,18.21,6.24,8.29,23.03,30.07,51.42,42.44,42.88,18.68,84.05,3.43,90.67.85,40.99-15.98,59.56-48.91,64.14-57.64Z"/>
        <path class="cls-7" d="M557.9,474.55c-11.84,5.32-22,7.05-28.6,7.68-28.04,2.67-60.24-7.94-77.96-31.66-3.01-4.03-5.01-7.65-6.21-9.99,29.48,31.75,70.2,45.61,112.76,33.97Z"/>
        <path class="cls-7" d="M503.29,415.96l-7.27-1.58,7.27-1.58c8.37-1.82,14.9-8.35,16.72-16.72l1.58-7.27,1.58,7.27c1.82,8.37,8.35,14.9,16.72,16.72l7.27,1.58-7.27,1.58c-8.37,1.82-14.9,8.35-16.72,16.72l-1.58,7.27-1.58-7.27c-1.82-8.37-8.35-14.9-16.72-16.72Z"/>
        <path class="cls-7" d="M422.77,330.91c7.48-10.18,30.98-39.34,71.61-49.32,25.2-6.19,46-2.31,50.6-1.38,4.96,1,23.61,5.1,42.78,18.41,34.82,24.18,45.91,61.07,49.01,73.21-1.7-5.13-4.33-12.09-8.35-19.92-4.74-9.23-17.58-33.55-43.44-50.57-39.07-25.72-82.23-17.7-89.2-16.28-43.11,8.76-67.03,38.05-73.02,45.87Z"/>
      </g>
      <g>
        <path class="cls-7" d="M331.15,633.25c2.93-3.73,3.49-5.91,3.49-11v-44.18c0-5.09-.56-7.27-3.49-11v-.18h13.55v.18c-2.93,3.73-3.49,5.82-3.49,11v53.91l17.46-.27c6.02-.09,8.53-2.91,15.37-12l.84.18-3.21,13.55h-40.51v-.18Z"/>
        <path class="cls-7" d="M380.63,633.43v-.18c2.93-3.14,4.19-5.12,6.14-10.51l20.39-55.86h2.09l20.54,56.4c2.23,6.11,3.49,7.73,6.01,9.97v.18h-13.14v-.18c1.68-1.71,2.24-5.21.42-10.15l-5.16-14.46h-23.48l-4.61,12.93c-2.23,6.38-.69,9.79,1.82,11.67v.18h-11.03ZM417.22,607.03l-11.03-30.8-11.17,30.8h22.2Z"/>
        <path class="cls-7" d="M460.16,633.43h-13.55v-.18c2.92-3.73,3.49-5.91,3.49-11v-44.18c0-5.09-.57-7.27-3.49-11v-.18h19.13c15.65,0,23.75,6.64,23.75,16.09,0,7.82-5.73,14.45-14.81,17.36l13.14,23.09c3.34,5.82,5.16,8.09,9.5,9.73v.27h-11.32l-17.74-31.64h-11.59v20.46c0,5.18.56,7.27,3.49,11v.18ZM456.67,568.61v31.54h8.66c12.43,0,16.9-8.27,16.9-17.18s-5.45-14.46-17.46-14.46c-3.07,0-5.45.09-8.1.09Z"/>
        <path class="cls-7" d="M511.16,633.25c2.92-3.73,3.49-5.91,3.49-11v-44.18c0-5.09-.57-7.27-3.49-11v-.18h13.55v.18c-2.93,3.73-3.49,5.82-3.49,11v44.18c0,5.18.56,7.27,3.49,11v.18h-13.55v-.18Z"/>
        <path class="cls-7" d="M578.78,579.64l-.84.17c-5.58-9-11.59-11.35-17.46-11.35-8.38,0-12.58,4.63-12.58,10.13,0,8.21,9.22,13.19,18.03,18.17,8.52,4.89,17.46,10.48,17.46,20.17,0,10.66-10.62,16.5-23.88,16.5-5.18,0-11.6-.79-16.76-1.92l-2.09-11.79.83-.17c6.57,8.65,12.72,12.31,20.4,12.31,9.91,0,15.78-6.29,15.78-13.19,0-8.38-8.1-13.88-16.48-18.69-8.8-5.07-18.44-10.48-18.44-19.39,0-8.3,8.38-13.71,20.81-13.71,3.91,0,9.08.61,13.13,1.31l2.1,11.44Z"/>
        <path class="cls-7" d="M630.91,579.64l-.84.17c-5.58-9-11.59-11.35-17.46-11.35-8.38,0-12.57,4.63-12.57,10.13,0,8.21,9.21,13.19,18.02,18.17,8.52,4.89,17.46,10.48,17.46,20.17,0,10.66-10.61,16.5-23.88,16.5-5.16,0-11.59-.79-16.76-1.92l-2.09-11.79.84-.17c6.56,8.65,12.72,12.31,20.39,12.31,9.92,0,15.79-6.29,15.79-13.19,0-8.38-8.11-13.88-16.48-18.69-8.8-5.07-18.45-10.48-18.45-19.39,0-8.3,8.38-13.71,20.81-13.71,3.91,0,9.09.61,13.14,1.31l2.09,11.44Z"/>
        <path class="cls-7" d="M641.16,633.43v-.18c2.93-3.14,4.19-5.12,6.14-10.51l20.39-55.86h2.09l20.54,56.4c2.23,6.11,3.49,7.73,6.01,9.97v.18h-13.14v-.18c1.68-1.71,2.24-5.21.42-10.15l-5.16-14.46h-23.48l-4.61,12.93c-2.23,6.38-.69,9.79,1.82,11.67v.18h-11.03ZM677.75,607.03l-11.03-30.8-11.17,30.8h22.2Z"/>
        <path class="cls-7" d="M339.98,726.78c2.79-3.82,3.49-6,3.49-11.09v-48.18l-24.86,57.46h-1.54l-25.15-57.46.28,47c0,5.54,1.25,7.91,6.43,12.27v.18h-13.98v-.18c4.2-4.36,5.04-6.73,5.04-12.27v-43.54c0-5.19-.98-7.28-5.6-10.37v-.18h11.32l24.44,55.91,24.17-55.91h11.59v.18c-4.47,3.09-5.58,5.09-5.58,10.73v44.36c0,5.18.69,7.27,3.49,11.09v.18h-13.55v-.18Z"/>
        <path class="cls-7" d="M364.14,726.96v-.18c2.93-3.14,4.2-5.12,6.15-10.51l20.39-55.86h2.09l20.53,56.4c2.24,6.11,3.49,7.73,6.01,9.97v.18h-13.13v-.18c1.67-1.71,2.23-5.21.42-10.15l-5.18-14.46h-23.46l-4.61,12.93c-2.24,6.38-.71,9.79,1.81,11.67v.18h-11.03ZM400.74,700.56l-11.03-30.8-11.18,30.8h22.21Z"/>
        <path class="cls-7" d="M475.51,723.03c-2.38,1.22-11.32,3.93-18.99,3.93-20.12,0-30.73-14.67-30.73-33.36s11.74-33.19,32.13-33.19c6.85,0,12.85,1.57,17.32,2.79l1.81,10.22-.83.17c-6.43-8.21-12.43-11.62-19.98-11.62-15.22,0-22.91,13.71-22.91,31.62s7.69,31.79,23.19,31.79c9.63,0,15.23-5.59,19.97-14.67l.84.17-1.82,12.14Z"/>
        <path class="cls-7" d="M512.49,693.33h-15.17v22.45c0,5.18.53,7.27,3.32,11v.18h-12.89v-.18c2.78-3.73,3.32-5.91,3.32-11v-44.18c0-5.09-.54-7.27-3.32-11v-.18h12.89v.18c-2.79,3.73-3.32,5.82-3.32,11v20.09h33.75v-20.09c0-5.09-.53-7.27-3.32-11v-.18h12.9v.18c-2.79,3.73-3.33,5.82-3.33,11v44.18c0,5.18.54,7.27,3.33,11v.18h-12.9v-.18c2.79-3.73,3.32-5.91,3.32-11v-22.45h-18.58"/>
        <path class="cls-7" d="M550.48,726.96v-.18c2.93-3.14,4.2-5.12,6.15-10.51l20.39-55.86h2.09l20.53,56.4c2.24,6.11,3.49,7.73,6.01,9.97v.18h-13.13v-.18c1.67-1.71,2.23-5.21.42-10.15l-5.18-14.46h-23.46l-4.61,12.93c-2.24,6.38-.71,9.79,1.81,11.67v.18h-11.03ZM587.08,700.56l-11.03-30.8-11.18,30.8h22.21Z"/>
        <path class="cls-7" d="M616.58,726.56c2.93-3.87,3.49-6.04,3.49-11.26v-43.07c0-5.23-.56-7.39-3.49-11.27v-.18c8.94,0,9.92-.36,19.14-.36,22.62,0,36.45,11.71,36.45,33.07s-13.69,33.25-37.58,33.25h-18.02v-.18ZM634.88,662.22l-8.25-.09v62.89l7.13-.09c22.07-.36,30.87-10.54,30.87-30.19,0-22.26-10.2-32.44-29.75-32.53Z"/>
        <path class="cls-7" d="M683.51,693.58c0-18.62,12.84-33.16,29.33-33.16s29.33,14.36,29.33,33.16-12.85,33.16-29.33,33.16-29.33-14.36-29.33-33.16ZM734.63,693.58c0-18.1-7.55-31.59-21.79-31.59s-21.79,13.66-21.79,31.59,7.54,31.59,21.79,31.59,21.79-13.49,21.79-31.59Z"/>
        <g>
          <path class="cls-7" d="M348.87,801.51v-19.07h6.53c1.48,0,2.71.27,3.67.81.96.54,1.67,1.27,2.14,2.18s.7,1.94.7,3.07-.23,2.16-.7,3.09-1.17,1.65-2.13,2.2c-.96.54-2.18.82-3.66.82h-4.62v-2.14h4.5c1.01,0,1.82-.17,2.43-.52.61-.34,1.06-.82,1.34-1.42.28-.6.42-1.28.42-2.03s-.14-1.42-.42-2.01c-.28-.59-.73-1.06-1.35-1.4-.62-.34-1.43-.51-2.45-.51h-3.97v16.93h-2.43Z"/>
          <path class="cls-7" d="M371.84,801.51v-19.07h2.43v16.92h8.83v2.15h-11.26Z"/>
          <path class="cls-7" d="M391.26,801.51l6.92-19.07h2.82l7.01,19.07h-2.56l-4.04-11.31c-.25-.7-.54-1.57-.87-2.62-.33-1.05-.73-2.38-1.2-4h.46c-.46,1.64-.86,2.99-1.2,4.05-.34,1.06-.62,1.92-.84,2.57l-3.93,11.31h-2.58ZM394.74,796.19v-2.12h9.79v2.12h-9.79ZM398.62,780.58l1.79-3.76h2.57l-2.48,3.76h-1.88Z"/>
          <path class="cls-7" d="M423.33,801.85c-1.37,0-2.57-.22-3.58-.67-1.01-.44-1.8-1.06-2.37-1.86-.57-.8-.9-1.73-.97-2.8h2.49c.07.72.31,1.31.73,1.77s.95.81,1.61,1.03c.65.23,1.35.34,2.09.34.86,0,1.63-.14,2.32-.42.69-.28,1.23-.68,1.63-1.19s.6-1.1.6-1.78c0-.61-.18-1.11-.52-1.5-.35-.38-.8-.7-1.37-.95-.57-.25-1.2-.46-1.88-.65l-2.3-.65c-1.54-.44-2.73-1.06-3.58-1.87s-1.28-1.85-1.28-3.11c0-1.07.29-2.02.87-2.82.58-.81,1.36-1.43,2.35-1.88s2.1-.67,3.33-.67,2.36.22,3.33.67,1.73,1.05,2.29,1.81.86,1.63.89,2.59h-2.38c-.11-.93-.56-1.65-1.33-2.16s-1.73-.76-2.87-.76c-.82,0-1.54.14-2.16.4-.62.27-1.1.64-1.44,1.1-.34.46-.51,1-.51,1.59,0,.67.21,1.2.62,1.61s.91.72,1.47.95,1.08.4,1.54.53l1.91.52c.51.14,1.08.33,1.7.56s1.21.56,1.77.95c.56.39,1.03.9,1.39,1.51s.54,1.36.54,2.24c0,1.04-.27,1.98-.81,2.82s-1.33,1.5-2.36,1.99c-1.03.48-2.28.73-3.75.73Z"/>
          <path class="cls-7" d="M439.1,784.6v-2.15h14.41v2.15h-5.97v16.92h-2.43v-16.92h-6Z"/>
          <path class="cls-7" d="M465.73,782.45v19.07h-2.43v-19.07h2.43Z"/>
          <path class="cls-7" d="M484.29,801.77c-1.63,0-3.08-.39-4.35-1.18-1.28-.79-2.28-1.92-3.01-3.38-.73-1.46-1.1-3.2-1.1-5.21s.37-3.77,1.1-5.23c.73-1.46,1.73-2.59,3.01-3.39,1.27-.79,2.72-1.19,4.35-1.19.97,0,1.88.14,2.73.42.86.29,1.63.69,2.31,1.24s1.25,1.2,1.7,1.97c.46.77.78,1.65.94,2.63h-2.43c-.13-.65-.37-1.23-.69-1.73s-.72-.91-1.21-1.25c-.47-.34-.99-.6-1.56-.77s-1.17-.26-1.79-.26c-1.14,0-2.17.29-3.09.87s-1.65,1.43-2.19,2.55c-.53,1.12-.8,2.5-.8,4.13s.28,2.99.82,4.11,1.27,1.97,2.19,2.55c.92.57,1.95.86,3.08.86.62,0,1.22-.09,1.79-.26s1.1-.43,1.56-.77c.48-.34.88-.75,1.21-1.25.33-.5.56-1.07.69-1.72h2.43c-.16.97-.48,1.84-.93,2.61s-1.02,1.43-1.71,1.97c-.68.54-1.45.96-2.31,1.25-.85.29-1.77.43-2.74.43Z"/>
          <path class="cls-7" d="M499.81,801.51l6.92-19.07h2.82l7.01,19.07h-2.56l-4.04-11.31c-.25-.7-.53-1.57-.87-2.62-.32-1.05-.72-2.38-1.19-4h.46c-.46,1.64-.86,2.99-1.2,4.05-.34,1.06-.61,1.92-.83,2.57l-3.93,11.31h-2.58ZM503.29,796.19v-2.12h9.79v2.12h-9.79Z"/>
          <path class="cls-7" d="M547.09,801.77c-1.62,0-3.08-.39-4.36-1.18-1.27-.79-2.27-1.92-3.01-3.38-.73-1.46-1.1-3.2-1.1-5.21s.37-3.77,1.1-5.23c.74-1.46,1.74-2.59,3.01-3.39,1.28-.79,2.73-1.19,4.36-1.19s3.09.4,4.36,1.19c1.27.8,2.27,1.92,3,3.39.73,1.46,1.1,3.21,1.1,5.23s-.37,3.75-1.1,5.21-1.73,2.59-3,3.38-2.72,1.18-4.36,1.18ZM547.09,799.52c1.14,0,2.16-.29,3.09-.86.91-.58,1.64-1.43,2.18-2.55.54-1.12.82-2.49.82-4.11s-.28-3.02-.82-4.14-1.27-1.97-2.18-2.55c-.92-.57-1.95-.86-3.09-.86s-2.17.29-3.09.87-1.65,1.43-2.19,2.55c-.54,1.12-.81,2.5-.81,4.13s.27,2.99.81,4.11c.54,1.12,1.27,1.96,2.19,2.54s1.95.87,3.09.87Z"/>
          <path class="cls-7" d="M573.36,801.77c-1.62,0-3.08-.39-4.36-1.18-1.27-.79-2.27-1.92-3.01-3.38-.72-1.46-1.09-3.2-1.09-5.21s.37-3.77,1.09-5.23c.73-1.46,1.73-2.59,3.01-3.39,1.28-.79,2.73-1.19,4.36-1.19.97,0,1.87.14,2.73.42.86.29,1.62.69,2.31,1.24.68.54,1.25,1.2,1.71,1.97.45.77.76,1.65.94,2.63h-2.43c-.14-.65-.37-1.23-.7-1.73s-.73-.91-1.2-1.25c-.48-.34-.99-.6-1.57-.77-.57-.17-1.16-.26-1.79-.26-1.14,0-2.17.29-3.09.87s-1.65,1.43-2.19,2.55c-.54,1.12-.81,2.5-.81,4.13s.27,2.99.81,4.11c.54,1.12,1.27,1.97,2.19,2.55.92.57,1.95.86,3.09.86.63,0,1.22-.09,1.79-.26.58-.18,1.1-.43,1.57-.77.47-.34.87-.75,1.2-1.25.33-.5.56-1.07.7-1.72h2.43c-.16.97-.47,1.84-.93,2.61s-1.02,1.43-1.7,1.97c-.69.54-1.46.96-2.31,1.25-.86.29-1.78.43-2.75.43Z"/>
          <path class="cls-7" d="M598.49,801.82c-1.5,0-2.81-.29-3.93-.88-1.13-.58-1.99-1.39-2.6-2.42-.61-1.02-.92-2.19-.92-3.49v-12.58h2.43v12.39c0,.91.2,1.73.61,2.44.4.71.98,1.27,1.73,1.68s1.65.61,2.68.61,1.94-.2,2.68-.61c.75-.41,1.32-.97,1.72-1.68.4-.71.6-1.52.6-2.44v-12.39h2.43v12.58c0,1.3-.31,2.47-.92,3.49-.61,1.02-1.48,1.83-2.6,2.42-1.11.59-2.41.88-3.92.88Z"/>
          <path class="cls-7" d="M616.77,801.51v-19.07h2.43v16.92h8.83v2.15h-11.26Z"/>
          <path class="cls-7" d="M636.19,801.51l6.92-19.07h2.82l7.01,19.07h-2.56l-4.04-11.31c-.25-.7-.54-1.57-.87-2.62-.33-1.05-.72-2.38-1.19-4h.45c-.45,1.64-.86,2.99-1.19,4.05-.34,1.06-.62,1.92-.84,2.57l-3.93,11.31h-2.58ZM639.67,796.19v-2.12h9.78v2.12h-9.78Z"/>
          <path class="cls-7" d="M662.15,801.51v-19.07h6.52c1.48,0,2.71.25,3.67.76.95.51,1.67,1.21,2.14,2.09.46.88.69,1.9.69,3.03s-.23,2.14-.69,3.01c-.47.87-1.18,1.55-2.14,2.04-.95.49-2.18.73-3.66.73h-5.18v-2.16h5.07c1.01,0,1.81-.15,2.43-.44.61-.3,1.05-.71,1.33-1.25.29-.54.42-1.18.42-1.93s-.14-1.42-.42-1.98c-.28-.56-.73-.99-1.35-1.31s-1.42-.46-2.44-.46h-3.96v16.93h-2.43ZM673.1,801.51l-4.61-8.58h2.73l4.68,8.58h-2.81Z"/>
        </g>
      </g>
    </g>
    <g>
      <rect class="cls-9" y="-1373.38" width="960" height="1080"/>
      <g class="cls-10">
        <image width="6600" height="5800" transform="translate(-386.54 -1747.32) rotate(-.28) scale(.31)" xlink:href="Essential-Stationery-Mockup-Vol5.png"/>
      </g>
    </g>
  </g>
  <g id="ClickGrid">
    <g>
      <g>
        <path class="cls-8" d="M2209.82,591.93c7.87-.02,15.73-.04,23.6-.06-198.85,55.51-282-28.14-444.95-108.88-265.09-131.35-536.05,203.38-815.04,124.43,31.04,1.75,69.15,2.2,122.92-12.88,206.85-58.02,425.56-263.6,681.62-158.78,143.56,54.09,230.02,190.83,431.84,156.17Z"/>
        <path class="cls-8" d="M2002.37,686.39c-19.16,38.42-80.97,149.69-211.28,206.66-80.83,35.34-152.74,34.37-168.68,33.93-17.19-.47-82.03-3.41-153.93-36.88-130.62-60.81-189.14-177.95-206.55-216.81,8.67,16.21,21.5,37.99,39.51,61.9,21.21,28.16,78.29,102.2,174.76,144.24,145.75,63.51,285.67,11.66,308.17,2.89,139.31-54.3,202.45-166.26,218.01-195.92Z"/>
        <path class="cls-8" d="M1755.56,801.85c-40.23,18.1-74.77,23.96-97.2,26.09-95.31,9.06-204.74-27-264.97-107.6-10.23-13.68-17.04-25.99-21.09-33.96,100.19,107.9,238.61,155.03,383.26,115.48Z"/>
        <path class="cls-8" d="M1569.95,602.71l-24.73-5.37,24.73-5.37c28.44-6.18,50.65-28.39,56.82-56.82l5.37-24.73,5.37,24.73c6.18,28.44,28.39,50.65,56.82,56.82l24.73,5.37-24.73,5.37c-28.44,6.18-50.65,28.39-56.82,56.82l-5.37,24.73-5.37-24.73c-6.18-28.44-28.39-50.65-56.82-56.82Z"/>
        <path class="cls-8" d="M1296.27,313.64c25.43-34.59,105.29-133.71,243.4-167.65,85.66-21.05,156.36-7.85,172-4.7,16.86,3.39,80.25,17.34,145.4,62.57,118.35,82.17,156.06,207.58,166.6,248.83-5.78-17.45-14.72-41.1-28.39-67.72-16.1-31.36-59.74-114.05-147.63-171.9-132.8-87.41-279.51-60.16-303.17-55.35-146.52,29.77-227.82,129.33-248.2,155.92Z"/>
      </g>
      <g id="grid-outlines">
        <g>
          <path class="cls-3" d="M2209.82,591.93c7.87-.02,15.73-.04,23.6-.06-198.85,55.51-282-28.14-444.95-108.88-265.09-131.35-536.05,203.38-815.04,124.43,31.04,1.75,69.15,2.2,122.92-12.88,206.85-58.02,425.56-263.6,681.62-158.78,143.56,54.09,230.02,190.83,431.84,156.17Z"/>
          <path class="cls-3" d="M2002.37,686.39c-19.16,38.42-80.97,149.69-211.28,206.66-80.83,35.34-152.74,34.37-168.68,33.93-17.19-.47-82.03-3.41-153.93-36.88-130.62-60.81-189.14-177.95-206.55-216.81,8.67,16.21,21.5,37.99,39.51,61.9,21.21,28.16,78.29,102.2,174.76,144.24,145.75,63.51,285.67,11.66,308.17,2.89,139.31-54.3,202.45-166.26,218.01-195.92Z"/>
          <path class="cls-3" d="M1755.56,801.85c-40.23,18.1-74.77,23.96-97.2,26.09-95.31,9.06-204.74-27-264.97-107.6-10.23-13.68-17.04-25.99-21.09-33.96,100.19,107.9,238.61,155.03,383.26,115.48Z"/>
          <path class="cls-3" d="M1569.95,602.71l-24.73-5.37,24.73-5.37c28.44-6.18,50.65-28.39,56.82-56.82l5.37-24.73,5.37,24.73c6.18,28.44,28.39,50.65,56.82,56.82l24.73,5.37-24.73,5.37c-28.44,6.18-50.65,28.39-56.82,56.82l-5.37,24.73-5.37-24.73c-6.18-28.44-28.39-50.65-56.82-56.82Z"/>
          <path class="cls-3" d="M1296.27,313.64c25.43-34.59,105.29-133.71,243.4-167.65,85.66-21.05,156.36-7.85,172-4.7,16.86,3.39,80.25,17.34,145.4,62.57,118.35,82.17,156.06,207.58,166.6,248.83-5.78-17.45-14.72-41.1-28.39-67.72-16.1-31.36-59.74-114.05-147.63-171.9-132.8-87.41-279.51-60.16-303.17-55.35-146.52,29.77-227.82,129.33-248.2,155.92Z"/>
        </g>
      </g>
      <g id="grid-handles">
        <line class="cls-3" x1="1296.27" y1="313.64" x2="1316.65" y2="287.06"/>
        <circle class="cls-1" cx="1316.65" cy="287.06" r="2.5"/>
        <line class="cls-3" x1="1296.27" y1="313.64" x2="1321.7" y2="279.05"/>
        <circle class="cls-1" cx="1321.7" cy="279.05" r="2.5"/>
        <circle class="cls-2" cx="1296.27" cy="313.64" r="2.5"/>
        <line class="cls-3" x1="1539.67" y1="146" x2="1401.56" y2="179.94"/>
        <circle class="cls-1" cx="1401.56" cy="179.94" r="2.5"/>
        <line class="cls-3" x1="1539.67" y1="146" x2="1625.34" y2="124.94"/>
        <circle class="cls-1" cx="1625.34" cy="124.94" r="2.5"/>
        <circle class="cls-2" cx="1539.67" cy="146" r="2.5"/>
        <line class="cls-3" x1="1711.67" y1="141.3" x2="1696.03" y2="138.15"/>
        <circle class="cls-1" cx="1696.03" cy="138.15" r="2.5"/>
        <line class="cls-3" x1="1711.67" y1="141.3" x2="1728.53" y2="144.69"/>
        <circle class="cls-1" cx="1728.53" cy="144.69" r="2.5"/>
        <circle class="cls-2" cx="1711.67" cy="141.3" r="2.5"/>
        <line class="cls-3" x1="1857.07" y1="203.87" x2="1791.92" y2="158.63"/>
        <circle class="cls-1" cx="1791.92" cy="158.63" r="2.5"/>
        <line class="cls-3" x1="1857.07" y1="203.87" x2="1975.42" y2="286.04"/>
        <circle class="cls-2" cx="1857.07" cy="203.87" r="2.5"/>
        <line class="cls-3" x1="1847.64" y1="213.07" x2="1935.54" y2="270.93"/>
        <line class="cls-3" x1="1847.64" y1="213.07" x2="1714.84" y2="125.66"/>
        <circle class="cls-1" cx="1714.84" cy="125.66" r="2.5"/>
        <circle class="cls-2" cx="1847.64" cy="213.07" r="2.5"/>
        <line class="cls-3" x1="1544.47" y1="157.72" x2="1568.13" y2="152.92"/>
        <circle class="cls-1" cx="1568.13" cy="152.92" r="2.5"/>
        <line class="cls-3" x1="1544.47" y1="157.72" x2="1397.95" y2="187.5"/>
        <circle class="cls-1" cx="1397.95" cy="187.5" r="2.5"/>
        <circle class="cls-2" cx="1544.47" cy="157.72" r="2.5"/>
        <line class="cls-3" x1="1569.95" y1="602.71" x2="1598.38" y2="608.89"/>
        <circle class="cls-1" cx="1598.38" cy="608.89" r="2.5"/>
        <circle class="cls-2" cx="1569.95" cy="602.71" r="2.5"/>
        <line class="cls-3" x1="1569.95" y1="591.97" x2="1598.38" y2="585.79"/>
        <circle class="cls-1" cx="1598.38" cy="585.79" r="2.5"/>
        <circle class="cls-2" cx="1569.95" cy="591.97" r="2.5"/>
        <line class="cls-3" x1="1626.77" y1="535.15" x2="1620.59" y2="563.58"/>
        <circle class="cls-1" cx="1620.59" cy="563.58" r="2.5"/>
        <circle class="cls-2" cx="1626.77" cy="535.15" r="2.5"/>
        <line class="cls-3" x1="1637.51" y1="535.15" x2="1643.69" y2="563.58"/>
        <circle class="cls-1" cx="1643.69" cy="563.58" r="2.5"/>
        <circle class="cls-2" cx="1637.51" cy="535.15" r="2.5"/>
        <line class="cls-3" x1="1694.33" y1="591.97" x2="1665.9" y2="585.79"/>
        <circle class="cls-1" cx="1665.9" cy="585.79" r="2.5"/>
        <circle class="cls-2" cx="1694.33" cy="591.97" r="2.5"/>
        <line class="cls-3" x1="1694.33" y1="602.71" x2="1665.9" y2="608.89"/>
        <circle class="cls-1" cx="1665.9" cy="608.89" r="2.5"/>
        <circle class="cls-2" cx="1694.33" cy="602.71" r="2.5"/>
        <line class="cls-3" x1="1637.51" y1="659.53" x2="1643.69" y2="631.1"/>
        <circle class="cls-1" cx="1643.69" cy="631.1" r="2.5"/>
        <circle class="cls-2" cx="1637.51" cy="659.53" r="2.5"/>
        <line class="cls-3" x1="1626.77" y1="659.53" x2="1620.59" y2="631.1"/>
        <circle class="cls-1" cx="1620.59" cy="631.1" r="2.5"/>
        <circle class="cls-2" cx="1626.77" cy="659.53" r="2.5"/>
        <line class="cls-3" x1="1755.56" y1="801.85" x2="1610.91" y2="841.4"/>
        <circle class="cls-1" cx="1610.91" cy="841.4" r="2.5"/>
        <line class="cls-3" x1="1755.56" y1="801.85" x2="1715.33" y2="819.95"/>
        <circle class="cls-1" cx="1715.33" cy="819.95" r="2.5"/>
        <circle class="cls-2" cx="1755.56" cy="801.85" r="2.5"/>
        <line class="cls-3" x1="1658.36" y1="827.93" x2="1680.79" y2="825.8"/>
        <circle class="cls-1" cx="1680.79" cy="825.8" r="2.5"/>
        <line class="cls-3" x1="1658.36" y1="827.93" x2="1563.05" y2="837"/>
        <circle class="cls-1" cx="1563.05" cy="837" r="2.5"/>
        <circle class="cls-2" cx="1658.36" cy="827.93" r="2.5"/>
        <line class="cls-3" x1="1393.39" y1="720.33" x2="1453.62" y2="800.93"/>
        <circle class="cls-1" cx="1453.62" cy="800.93" r="2.5"/>
        <line class="cls-3" x1="1393.39" y1="720.33" x2="1383.16" y2="706.65"/>
        <circle class="cls-1" cx="1383.16" cy="706.65" r="2.5"/>
        <circle class="cls-2" cx="1393.39" cy="720.33" r="2.5"/>
        <line class="cls-3" x1="1372.3" y1="686.37" x2="1376.35" y2="694.34"/>
        <circle class="cls-1" cx="1376.35" cy="694.34" r="2.5"/>
        <line class="cls-3" x1="1372.3" y1="686.37" x2="1472.49" y2="794.27"/>
        <circle class="cls-1" cx="1472.49" cy="794.27" r="2.5"/>
        <circle class="cls-2" cx="1372.3" cy="686.37" r="2.5"/>
        <line class="cls-3" x1="1791.09" y1="893.06" x2="1921.39" y2="836.08"/>
        <circle class="cls-1" cx="1921.39" cy="836.08" r="2.5"/>
        <line class="cls-3" x1="1791.09" y1="893.06" x2="1710.26" y2="928.4"/>
        <circle class="cls-1" cx="1710.26" cy="928.4" r="2.5"/>
        <circle class="cls-2" cx="1791.09" cy="893.06" r="2.5"/>
        <line class="cls-3" x1="1622.4" y1="926.99" x2="1638.35" y2="927.43"/>
        <circle class="cls-1" cx="1638.35" cy="927.43" r="2.5"/>
        <line class="cls-3" x1="1622.4" y1="926.99" x2="1605.21" y2="926.52"/>
        <circle class="cls-1" cx="1605.21" cy="926.52" r="2.5"/>
        <circle class="cls-2" cx="1622.4" cy="926.99" r="2.5"/>
        <line class="cls-3" x1="1468.47" y1="890.11" x2="1540.38" y2="923.58"/>
        <circle class="cls-1" cx="1540.38" cy="923.58" r="2.5"/>
        <line class="cls-3" x1="1468.47" y1="890.11" x2="1337.86" y2="829.3"/>
        <circle class="cls-1" cx="1337.86" cy="829.3" r="2.5"/>
        <circle class="cls-2" cx="1468.47" cy="890.11" r="2.5"/>
        <line class="cls-3" x1="1261.92" y1="673.3" x2="1279.33" y2="712.15"/>
        <circle class="cls-1" cx="1279.33" cy="712.15" r="2.5"/>
        <line class="cls-3" x1="1261.92" y1="673.3" x2="1270.59" y2="689.51"/>
        <circle class="cls-1" cx="1270.59" cy="689.51" r="2.5"/>
        <circle class="cls-2" cx="1261.92" cy="673.3" r="2.5"/>
        <line class="cls-3" x1="1301.43" y1="735.19" x2="1283.42" y2="711.29"/>
        <circle class="cls-1" cx="1283.42" cy="711.29" r="2.5"/>
        <line class="cls-3" x1="1301.43" y1="735.19" x2="1322.64" y2="763.35"/>
        <circle class="cls-1" cx="1322.64" cy="763.35" r="2.5"/>
        <circle class="cls-2" cx="1301.43" cy="735.19" r="2.5"/>
        <line class="cls-3" x1="1476.19" y1="879.43" x2="1379.72" y2="837.4"/>
        <circle class="cls-1" cx="1379.72" cy="837.4" r="2.5"/>
        <line class="cls-3" x1="1476.19" y1="879.43" x2="1621.94" y2="942.94"/>
        <circle class="cls-1" cx="1621.94" cy="942.94" r="2.5"/>
        <circle class="cls-2" cx="1476.19" cy="879.43" r="2.5"/>
        <line class="cls-3" x1="1784.36" y1="882.32" x2="1761.86" y2="891.09"/>
        <circle class="cls-1" cx="1761.86" cy="891.09" r="2.5"/>
        <line class="cls-3" x1="1784.36" y1="882.32" x2="1923.67" y2="828.02"/>
        <circle class="cls-2" cx="1784.36" cy="882.32" r="2.5"/>
        <line class="cls-3" x1="1788.47" y1="482.99" x2="1951.41" y2="563.72"/>
        <line class="cls-3" x1="1788.47" y1="482.99" x2="1523.38" y2="351.64"/>
        <circle class="cls-1" cx="1523.38" cy="351.64" r="2.5"/>
        <circle class="cls-2" cx="1788.47" cy="482.99" r="2.5"/>
        <line class="cls-3" x1="973.43" y1="607.42" x2="1252.41" y2="686.37"/>
        <circle class="cls-1" cx="1252.41" cy="686.37" r="2.5"/>
        <line class="cls-3" x1="973.43" y1="607.42" x2="1004.47" y2="609.17"/>
        <circle class="cls-1" cx="1004.47" cy="609.17" r="2.5"/>
        <circle class="cls-2" cx="973.43" cy="607.42" r="2.5"/>
        <line class="cls-3" x1="1096.35" y1="594.54" x2="1042.59" y2="609.62"/>
        <circle class="cls-1" cx="1042.59" cy="609.62" r="2.5"/>
        <line class="cls-3" x1="1096.35" y1="594.54" x2="1303.21" y2="536.52"/>
        <circle class="cls-1" cx="1303.21" cy="536.52" r="2.5"/>
        <circle class="cls-2" cx="1096.35" cy="594.54" r="2.5"/>
        <line class="cls-3" x1="1777.97" y1="435.76" x2="1521.91" y2="330.94"/>
        <circle class="cls-1" cx="1521.91" cy="330.94" r="2.5"/>
        <line class="cls-3" x1="1777.97" y1="435.76" x2="1921.53" y2="489.85"/>
        <circle class="cls-1" cx="1921.53" cy="489.85" r="2.5"/>
        <circle class="cls-2" cx="1777.97" cy="435.76" r="2.5"/>
      </g>
      <g id="grid-anchors">
        <circle class="cls-2" cx="1296.27" cy="313.64" r="2.5"/>
        <circle class="cls-2" cx="1539.67" cy="146" r="2.5"/>
        <circle class="cls-2" cx="1711.67" cy="141.3" r="2.5"/>
        <circle class="cls-2" cx="1857.07" cy="203.87" r="2.5"/>
        <circle class="cls-2" cx="1847.64" cy="213.07" r="2.5"/>
        <circle class="cls-2" cx="1544.47" cy="157.72" r="2.5"/>
        <circle class="cls-2" cx="1569.95" cy="602.71" r="2.5"/>
        <circle class="cls-2" cx="1545.22" cy="597.34" r="2.5"/>
        <circle class="cls-2" cx="1569.95" cy="591.97" r="2.5"/>
        <circle class="cls-2" cx="1626.77" cy="535.15" r="2.5"/>
        <circle class="cls-2" cx="1632.14" cy="510.42" r="2.5"/>
        <circle class="cls-2" cx="1637.51" cy="535.15" r="2.5"/>
        <circle class="cls-2" cx="1694.33" cy="591.97" r="2.5"/>
        <circle class="cls-2" cx="1719.06" cy="597.34" r="2.5"/>
        <circle class="cls-2" cx="1694.33" cy="602.71" r="2.5"/>
        <circle class="cls-2" cx="1637.51" cy="659.53" r="2.5"/>
        <circle class="cls-2" cx="1632.14" cy="684.26" r="2.5"/>
        <circle class="cls-2" cx="1626.77" cy="659.53" r="2.5"/>
        <circle class="cls-2" cx="1755.56" cy="801.85" r="2.5"/>
        <circle class="cls-2" cx="1658.36" cy="827.93" r="2.5"/>
        <circle class="cls-2" cx="1393.39" cy="720.33" r="2.5"/>
        <circle class="cls-2" cx="1372.3" cy="686.37" r="2.5"/>
        <circle class="cls-2" cx="1791.09" cy="893.06" r="2.5"/>
        <circle class="cls-2" cx="1622.4" cy="926.99" r="2.5"/>
        <circle class="cls-2" cx="1468.47" cy="890.11" r="2.5"/>
        <circle class="cls-2" cx="1261.92" cy="673.3" r="2.5"/>
        <circle class="cls-2" cx="1301.43" cy="735.19" r="2.5"/>
        <circle class="cls-2" cx="1476.19" cy="879.43" r="2.5"/>
        <circle class="cls-2" cx="1784.36" cy="882.32" r="2.5"/>
        <circle class="cls-2" cx="1788.47" cy="482.99" r="2.5"/>
        <circle class="cls-2" cx="973.43" cy="607.42" r="2.5"/>
        <circle class="cls-2" cx="1096.35" cy="594.54" r="2.5"/>
        <circle class="cls-2" cx="1777.97" cy="435.76" r="2.5"/>
      </g>
      <g id="grid-gridlines">
        <line class="cls-5" x1="973.43" x2="973.43" y2="1080"/>
        <line class="cls-4" x1="-228.68" y1="134.32" x2="2590.04" y2="134.32"/>
        <line class="cls-4" x1="-228.68" y1="927.11" x2="2590.04" y2="927.11"/>
      </g>
    </g>
  </g>
</svg>