<?xml version="1.0" encoding="UTF-8"?>
<svg id="Camada_1" data-name="Camada 1" xmlns="http://www.w3.org/2000/svg" viewBox="0 0 160 160">
  <defs>
    <style>
      .cls-1 {
        fill: #333733;
      }

      .cls-2 {
        font-family: Satoshi-Regular, Satoshi;
        font-size: 7px;
      }
    </style>
  </defs>
  <g>
    <g>
      <path d="M19.9,105.29h6.6v1.37h-8.05v-14.87h1.44v13.5Z"/>
      <path d="M31.96,106.66l5.94-14.87h2.01l6.01,14.87h-1.7l-1.58-3.95h-7.46l-1.58,3.95h-1.65ZM35.69,101.4h6.44l-3.03-7.52c-.07-.21-.18-.46-.2-.6-.02.12-.11.39-.2.6l-3.01,7.52Z"/>
      <path d="M91.63,130.79l5.94-14.37h2.01l6.01,14.37h-1.7l-1.58-3.81h-7.46l-1.58,3.81h-1.65ZM95.36,125.71h6.44l-3.03-7.26c-.07-.2-.18-.44-.2-.58-.02.12-.11.38-.2.58l-3.01,7.26Z"/>
      <path d="M109.21,106.66l5.94-14.87h2.01l6.01,14.87h-1.7l-1.58-3.95h-7.46l-1.58,3.95h-1.65ZM112.94,101.4h6.44l-3.03-7.52c-.07-.21-.18-.46-.2-.6-.02.12-.11.39-.2.6l-3.01,7.52Z"/>
      <path d="M50.73,106.66v-14.87h6.27c3.4,0,5.47,1.66,5.47,4.3,0,2.14-1.27,3.63-3.43,4.15l3.59,6.42h-1.88l-3.43-6.17h-4.9v6.17h-1.69ZM52.42,99.14h4.62c2.32,0,3.68-1.12,3.68-3.01s-1.43-2.99-3.73-2.99h-4.58v6Z"/>
      <path d="M69.38,106.66h-1.44v-14.87h1.44v14.87Z"/>
      <path d="M82.95,91.79c2.77,0,4.59,1.44,4.83,3.85h-1.57c-.17-1.63-1.35-2.55-3.28-2.55-2.17,0-3.59,1.04-3.59,2.67,0,1.26.79,2.07,2.4,2.45l2.64.6c2.4.54,3.65,1.83,3.65,3.77,0,2.49-2.06,4.07-5.24,4.07-2.98,0-5-1.47-5.2-3.81h1.59c.09,1.5,1.5,2.49,3.61,2.49,2.25,0,3.69-1.02,3.69-2.67,0-1.28-.77-2.13-2.43-2.49l-2.6-.6c-2.4-.54-3.67-1.83-3.67-3.79,0-2.41,2.06-3.99,5.15-3.99Z"/>
      <path d="M99.74,91.79c2.77,0,4.59,1.44,4.83,3.85h-1.57c-.17-1.63-1.35-2.55-3.28-2.55-2.17,0-3.59,1.04-3.59,2.67,0,1.26.79,2.07,2.4,2.45l2.64.6c2.4.54,3.65,1.83,3.65,3.77,0,2.49-2.06,4.07-5.24,4.07-2.98,0-5-1.47-5.2-3.81h1.59c.09,1.5,1.5,2.49,3.61,2.49,2.25,0,3.69-1.02,3.69-2.67,0-1.28-.77-2.13-2.43-2.49l-2.6-.6c-2.4-.54-3.67-1.83-3.67-3.79,0-2.41,2.06-3.99,5.15-3.99Z"/>
      <path d="M31.8,130.79v-14.37h-1.42l-5.24,12.66-5.24-12.66h-1.44v14.37h1.43v-6.82c0-2.51-.04-3.61-.12-4.6l4.67,11.42h1.39l4.67-11.36c-.08.54-.12,2.13-.12,4.31v7.04h1.42Z"/>
      <path d="M38.19,130.79l5.28-14.37h1.79l5.34,14.37h-1.5l-1.4-3.81h-6.62l-1.4,3.81h-1.46ZM41.5,125.71h5.72l-2.69-7.26c-.06-.2-.16-.44-.18-.58-.02.12-.1.38-.18.58l-2.67,7.26Z"/>
      <path d="M55.51,123.62c0-4.28,2.77-7.19,6.82-7.19,3.09,0,5.52,1.81,6.1,4.57h-1.54c-.6-2-2.37-3.23-4.62-3.23-3.15,0-5.26,2.33-5.26,5.85s2.11,5.83,5.26,5.83c2.27,0,4.07-1.19,4.7-3.05h1.54c-.66,2.63-3.17,4.39-6.26,4.39-4.01,0-6.74-2.9-6.74-7.17Z"/>
      <path d="M75.39,130.79v-14.37h1.44v6.4h7.76v-6.4h1.42v14.37h-1.42v-6.62h-7.76v6.62h-1.44Z"/>
      <path d="M111.2,130.79v-14.37h4.33c4.33,0,7.22,2.89,7.22,7.18s-2.87,7.18-7.18,7.18h-4.37ZM112.65,117.75v11.72h2.87c3.51,0,5.76-2.29,5.76-5.86s-2.25-5.86-5.8-5.86h-2.83Z"/>
      <path d="M135.69,130.79c-4.03,0-6.84-2.89-6.84-6.99s2.83-7,6.84-7,6.84,2.89,6.84,7-2.83,6.99-6.84,6.99ZM135.69,118.12c-3.17,0-5.34,2.3-5.34,5.68s2.17,5.68,5.34,5.68,5.36-2.32,5.36-5.68-2.19-5.68-5.36-5.68Z"/>
    </g>
    <g>
      <path d="M17.47,143.06v-4.46h1.53c.35,0,.63.06.86.19.22.13.39.3.5.51s.16.45.16.72-.05.51-.16.72-.27.39-.5.52c-.22.13-.51.19-.86.19h-1.08v-.5h1.05c.24,0,.43-.04.57-.12.14-.08.25-.19.31-.33.07-.14.1-.3.1-.48s-.03-.33-.1-.47-.17-.25-.32-.33c-.14-.08-.34-.12-.57-.12h-.93v3.96h-.57Z"/>
      <path d="M22.85,143.06v-4.46h.57v3.96h2.07v.5h-2.64Z"/>
      <path d="M27.39,143.06l1.62-4.46h.66l1.64,4.46h-.6l-.95-2.65c-.06-.16-.13-.37-.2-.61s-.17-.56-.28-.94h.11c-.11.38-.2.7-.28.95-.08.25-.14.45-.2.6l-.92,2.65h-.61ZM28.21,141.81v-.5h2.29v.5h-2.29ZM29.11,138.16l.42-.88h.6l-.58.88h-.44Z"/>
      <path d="M34.9,143.14c-.32,0-.6-.05-.84-.16-.24-.1-.42-.25-.56-.44s-.21-.4-.23-.65h.58c.02.17.07.31.17.42s.22.19.38.24c.15.05.32.08.49.08.2,0,.38-.03.54-.1.16-.07.29-.16.38-.28s.14-.26.14-.42c0-.14-.04-.26-.12-.35-.08-.09-.19-.16-.32-.22-.13-.06-.28-.11-.44-.15l-.54-.15c-.36-.1-.64-.25-.84-.44s-.3-.43-.3-.73c0-.25.07-.47.2-.66.14-.19.32-.34.55-.44s.49-.16.78-.16.55.05.78.16.4.24.54.42.2.38.21.61h-.56c-.03-.22-.13-.39-.31-.51s-.41-.18-.67-.18c-.19,0-.36.03-.51.09-.14.06-.26.15-.34.26-.08.11-.12.23-.12.37,0,.16.05.28.15.38s.21.17.34.22.25.09.36.12l.45.12c.12.03.25.08.4.13s.28.13.41.22c.13.09.24.21.33.35s.13.32.13.53c0,.24-.06.46-.19.66s-.31.35-.55.46c-.24.11-.53.17-.88.17Z"/>
      <path d="M38.59,139.1v-.5h3.37v.5h-1.4v3.96h-.57v-3.96h-1.4Z"/>
      <path d="M44.83,138.59v4.46h-.57v-4.46h.57Z"/>
      <path d="M49.17,143.12c-.38,0-.72-.09-1.02-.28-.3-.18-.53-.45-.71-.79s-.26-.75-.26-1.22.09-.88.26-1.22.41-.61.71-.79c.3-.18.64-.28,1.02-.28.23,0,.44.03.64.1.2.07.38.16.54.29s.29.28.4.46c.11.18.18.39.22.62h-.57c-.03-.15-.09-.29-.16-.4s-.17-.21-.28-.29c-.11-.08-.23-.14-.37-.18s-.27-.06-.42-.06c-.27,0-.51.07-.72.2s-.39.33-.51.6c-.12.26-.19.58-.19.97s.07.7.19.96.3.46.51.6c.22.13.46.2.72.2.15,0,.29-.02.42-.06s.26-.1.37-.18c.11-.08.21-.18.28-.29.08-.12.13-.25.16-.4h.57c-.04.23-.11.43-.22.61s-.24.33-.4.46c-.16.13-.34.23-.54.29-.2.07-.41.1-.64.1Z"/>
      <path d="M52.81,143.06l1.62-4.46h.66l1.64,4.46h-.6l-.95-2.65c-.06-.16-.12-.37-.2-.61-.08-.24-.17-.56-.28-.94h.11c-.11.38-.2.7-.28.95-.08.25-.14.45-.2.6l-.92,2.65h-.6ZM53.62,141.81v-.5h2.29v.5h-2.29Z"/>
      <path d="M63.88,143.12c-.38,0-.72-.09-1.02-.28-.3-.18-.53-.45-.71-.79-.17-.34-.26-.75-.26-1.22s.09-.88.26-1.22c.17-.34.41-.61.71-.79.3-.18.64-.28,1.02-.28s.72.09,1.02.28c.3.19.53.45.7.79s.26.75.26,1.22-.09.88-.26,1.22-.4.61-.7.79-.64.28-1.02.28ZM63.88,142.59c.27,0,.51-.07.72-.2.21-.14.38-.33.51-.6s.19-.58.19-.96-.07-.71-.19-.97-.3-.46-.51-.6c-.22-.13-.46-.2-.72-.2s-.51.07-.72.2-.39.33-.51.6-.19.58-.19.97.06.7.19.96c.13.26.3.46.51.6s.46.2.72.2Z"/>
      <path d="M70.03,143.12c-.38,0-.72-.09-1.02-.28-.3-.18-.53-.45-.7-.79-.17-.34-.26-.75-.26-1.22s.09-.88.26-1.22c.17-.34.41-.61.7-.79.3-.18.64-.28,1.02-.28.23,0,.44.03.64.1.2.07.38.16.54.29.16.13.29.28.4.46.11.18.18.39.22.62h-.57c-.03-.15-.09-.29-.16-.4s-.17-.21-.28-.29c-.11-.08-.23-.14-.37-.18-.13-.04-.27-.06-.42-.06-.27,0-.51.07-.72.2s-.39.33-.51.6c-.13.26-.19.58-.19.97s.06.7.19.96.3.46.51.6c.22.13.46.2.72.2.15,0,.29-.02.42-.06.14-.04.26-.1.37-.18.11-.08.2-.18.28-.29.08-.12.13-.25.16-.4h.57c-.04.23-.11.43-.22.61s-.24.33-.4.46c-.16.13-.34.23-.54.29-.2.07-.42.1-.64.1Z"/>
      <path d="M75.91,143.13c-.35,0-.66-.07-.92-.21-.26-.14-.47-.33-.61-.57s-.22-.51-.22-.82v-2.95h.57v2.9c0,.21.05.4.14.57.09.17.23.3.41.39s.39.14.63.14.45-.05.63-.14.31-.23.4-.39c.09-.17.14-.36.14-.57v-2.9h.57v2.95c0,.3-.07.58-.22.82s-.35.43-.61.57c-.26.14-.56.21-.92.21Z"/>
      <path d="M80.19,143.06v-4.46h.57v3.96h2.07v.5h-2.64Z"/>
      <path d="M84.74,143.06l1.62-4.46h.66l1.64,4.46h-.6l-.95-2.65c-.06-.16-.13-.37-.2-.61s-.17-.56-.28-.94h.11c-.11.38-.2.7-.28.95-.08.25-.15.45-.2.6l-.92,2.65h-.6ZM85.55,141.81v-.5h2.29v.5h-2.29Z"/>
      <path d="M90.82,143.06v-4.46h1.53c.35,0,.63.06.86.18.22.12.39.28.5.49.11.21.16.44.16.71s-.05.5-.16.7c-.11.2-.28.36-.5.48-.22.11-.51.17-.86.17h-1.21v-.51h1.19c.24,0,.42-.04.57-.1.14-.07.25-.17.31-.29.07-.13.1-.28.1-.45s-.03-.33-.1-.46c-.07-.13-.17-.23-.32-.31s-.33-.11-.57-.11h-.93v3.96h-.57ZM93.38,143.06l-1.08-2.01h.64l1.1,2.01h-.66Z"/>
    </g>
  </g>
  <g>
    <path class="cls-1" d="M123.4,54.06c-2.56.5-6.43,1.08-11.14,1.05-15.64-.11-24.59-6.89-33.5-9.52-8.73-2.58-22.12-2.58-42.16,9.55.52-.63,1.29-1.51,2.29-2.5,9.72-9.63,26.43-14.64,41.11-11.3,13.88,3.16,16.53,11.65,32.66,13.02,4.5.38,8.25.05,10.73-.29Z"/>
    <text class="cls-2" transform="translate(46.63 39.46) rotate(-75.98)"><tspan x="0" y="0">.</tspan></text>
    <text class="cls-2" transform="translate(47.24 37.09) rotate(-72.09)"><tspan x="0" y="0">.</tspan></text>
    <text class="cls-2" transform="translate(48.02 34.77) rotate(-68.2)"><tspan x="0" y="0">.</tspan></text>
    <text class="cls-2" transform="translate(48.95 32.5) rotate(-64.24)"><tspan x="0" y="0">.</tspan></text>
    <text class="cls-2" transform="translate(50.03 30.31) rotate(-60.22)"><tspan x="0" y="0">.</tspan></text>
    <text class="cls-2" transform="translate(51.26 28.2) rotate(-56.14)"><tspan x="0" y="0">.</tspan></text>
    <text class="cls-2" transform="translate(52.64 26.18) rotate(-52.02)"><tspan x="0" y="0">.</tspan></text>
    <text class="cls-2" transform="translate(54.14 24.29) rotate(-47.92)"><tspan x="0" y="0">.</tspan></text>
    <text class="cls-2" transform="translate(55.79 22.49) rotate(-43.52)"><tspan x="0" y="0">.</tspan></text>
    <text class="cls-2" transform="translate(57.59 20.82) rotate(-39.39)"><tspan x="0" y="0">.</tspan></text>
    <text class="cls-2" transform="translate(59.48 19.29) rotate(-35.57)"><tspan x="0" y="0">.</tspan></text>
    <text class="cls-2" transform="translate(61.5 17.88) rotate(-31.73)"><tspan x="0" y="0">.</tspan></text>
    <text class="cls-2" transform="translate(63.58 16.61) rotate(-27.87)"><tspan x="0" y="0">.</tspan></text>
    <text class="cls-2" transform="translate(65.75 15.49) rotate(-23.88)"><tspan x="0" y="0">.</tspan></text>
    <text class="cls-2" transform="translate(68.01 14.51) rotate(-19.74)"><tspan x="0" y="0">.</tspan></text>
    <text class="cls-2" transform="translate(70.29 13.72) rotate(-15.57)"><tspan x="0" y="0">.</tspan></text>
    <text class="cls-2" transform="translate(72.67 13.08) rotate(-11.24)"><tspan x="0" y="0">.</tspan></text>
    <text class="cls-2" transform="translate(75.05 12.63) rotate(-6.95)"><tspan x="0" y="0">.</tspan></text>
    <text class="cls-2" transform="translate(77.48 12.35) rotate(-2.61)"><tspan x="0" y="0">.</tspan></text>
    <text class="cls-2" transform="translate(79.9 12.27) rotate(1.63)"><tspan x="0" y="0">.</tspan></text>
    <text class="cls-2" transform="translate(82.34 12.36) rotate(5.99)"><tspan x="0" y="0">.</tspan></text>
    <text class="cls-2" transform="translate(84.76 12.64) rotate(10.38)"><tspan x="0" y="0">.</tspan></text>
    <text class="cls-2" transform="translate(87.15 13.1) rotate(14.78)"><tspan x="0" y="0">.</tspan></text>
    <text class="cls-2" transform="translate(89.5 13.74) rotate(19.13)"><tspan x="0" y="0">.</tspan></text>
    <text class="cls-2" transform="translate(91.81 14.57) rotate(23.41)"><tspan x="0" y="0">.</tspan></text>
    <text class="cls-2" transform="translate(94.03 15.55) rotate(27.5)"><tspan x="0" y="0">.</tspan></text>
    <text class="cls-2" transform="translate(96.18 16.7) rotate(31.45)"><tspan x="0" y="0">.</tspan></text>
    <text class="cls-2" transform="translate(98.26 17.99) rotate(35.26)"><tspan x="0" y="0">.</tspan></text>
    <text class="cls-2" transform="translate(100.25 19.42) rotate(38.91)"><tspan x="0" y="0">.</tspan></text>
    <text class="cls-2" transform="translate(102.15 20.98) rotate(42.48)"><tspan x="0" y="0">.</tspan></text>
    <text class="cls-2" transform="translate(103.94 22.65) rotate(46)"><tspan x="0" y="0">.</tspan></text>
    <text class="cls-2" transform="translate(105.63 24.43) rotate(49.69)"><tspan x="0" y="0">.</tspan></text>
    <text class="cls-2" transform="translate(107.19 26.28) rotate(54.55)"><tspan x="0" y="0">.</tspan></text>
    <text class="cls-2" transform="translate(108.56 28.28) rotate(59.87)"><tspan x="0" y="0">.</tspan></text>
    <text class="cls-2" transform="translate(109.77 30.4) rotate(63.86)"><tspan x="0" y="0">.</tspan></text>
    <text class="cls-2" transform="translate(110.83 32.6) rotate(67.61)"><tspan x="0" y="0">.</tspan></text>
    <text class="cls-2" transform="translate(111.74 34.88) rotate(71.4)"><tspan x="0" y="0">.</tspan></text>
    <text class="cls-2" transform="translate(112.5 37.21) rotate(75.29)"><tspan x="0" y="0">.</tspan></text>
    <text class="cls-2" transform="translate(113.1 39.57) rotate(79.29)"><tspan x="0" y="0">.</tspan></text>
    <text class="cls-2" transform="translate(113.53 41.96) rotate(83.45)"><tspan x="0" y="0">.</tspan></text>
    <text class="cls-2" transform="translate(113.79 44.39) rotate(87.79)"><tspan x="0" y="0">.</tspan></text>
    <text class="cls-2" transform="translate(113.86 46.83) rotate(92.22)"><tspan x="0" y="0">.</tspan></text>
    <text class="cls-2" transform="translate(113.74 49.26) rotate(96.7)"><tspan x="0" y="0">.</tspan></text>
    <text class="cls-2" transform="translate(113.43 51.69) rotate(101.24)"><tspan x="0" y="0">.</tspan></text>
    <text class="cls-2" transform="translate(112.94 54.04) rotate(105.63)"><tspan x="0" y="0">.</tspan></text>
    <text class="cls-2" transform="translate(112.25 56.41) rotate(109.99)"><tspan x="0" y="0">.</tspan></text>
    <text class="cls-2" transform="translate(111.4 58.69) rotate(114.16)"><tspan x="0" y="0">.</tspan></text>
    <text class="cls-2" transform="translate(110.38 60.91) rotate(118.26)"><tspan x="0" y="0">.</tspan></text>
    <text class="cls-2" transform="translate(109.21 63.05) rotate(122.26)"><tspan x="0" y="0">.</tspan></text>
    <text class="cls-2" transform="translate(107.88 65.11) rotate(126.22)"><tspan x="0" y="0">.</tspan></text>
    <text class="cls-2" transform="translate(106.42 67.06) rotate(130.14)"><tspan x="0" y="0">.</tspan></text>
    <text class="cls-2" transform="translate(104.83 68.92) rotate(134.08)"><tspan x="0" y="0">.</tspan></text>
    <text class="cls-2" transform="translate(103.12 70.66) rotate(138.01)"><tspan x="0" y="0">.</tspan></text>
    <text class="cls-2" transform="translate(101.29 72.28) rotate(141.99)"><tspan x="0" y="0">.</tspan></text>
    <text class="cls-2" transform="translate(99.35 73.76) rotate(145.99)"><tspan x="0" y="0">.</tspan></text>
    <text class="cls-2" transform="translate(97.31 75.11) rotate(150.07)"><tspan x="0" y="0">.</tspan></text>
    <text class="cls-2" transform="translate(95.19 76.31) rotate(154.2)"><tspan x="0" y="0">.</tspan></text>
    <text class="cls-2" transform="translate(92.99 77.35) rotate(158.38)"><tspan x="0" y="0">.</tspan></text>
    <text class="cls-2" transform="translate(90.72 78.23) rotate(162.6)"><tspan x="0" y="0">.</tspan></text>
    <text class="cls-2" transform="translate(88.39 78.93) rotate(166.85)"><tspan x="0" y="0">.</tspan></text>
    <text class="cls-2" transform="translate(85.98 79.47) rotate(171.18)"><tspan x="0" y="0">.</tspan></text>
    <text class="cls-2" transform="translate(83.58 79.82) rotate(175.43)"><tspan x="0" y="0">.</tspan></text>
    <text class="cls-2" transform="translate(81.16 79.99) rotate(179.19)"><tspan x="0" y="0">.</tspan></text>
    <text class="cls-2" transform="translate(78.72 79.99) rotate(-176.19)"><tspan x="0" y="0">.</tspan></text>
    <text class="cls-2" transform="translate(76.27 79.8) rotate(-171.97)"><tspan x="0" y="0">.</tspan></text>
    <text class="cls-2" transform="translate(73.87 79.44) rotate(-167.79)"><tspan x="0" y="0">.</tspan></text>
    <text class="cls-2" transform="translate(71.48 78.9) rotate(-163.61)"><tspan x="0" y="0">.</tspan></text>
    <text class="cls-2" transform="translate(69.16 78.19) rotate(-159.47)"><tspan x="0" y="0">.</tspan></text>
    <text class="cls-2" transform="translate(66.88 77.32) rotate(-155.34)"><tspan x="0" y="0">.</tspan></text>
    <text class="cls-2" transform="translate(64.67 76.28) rotate(-151.24)"><tspan x="0" y="0">.</tspan></text>
    <text class="cls-2" transform="translate(62.52 75.08) rotate(-147.13)"><tspan x="0" y="0">.</tspan></text>
    <text class="cls-2" transform="translate(60.5 73.75) rotate(-143.1)"><tspan x="0" y="0">.</tspan></text>
    <text class="cls-2" transform="translate(58.55 72.25) rotate(-139.01)"><tspan x="0" y="0">.</tspan></text>
    <text class="cls-2" transform="translate(56.74 70.65) rotate(-134.98)"><tspan x="0" y="0">.</tspan></text>
    <text class="cls-2" transform="translate(55 68.88) rotate(-130.88)"><tspan x="0" y="0">.</tspan></text>
    <text class="cls-2" transform="translate(53.42 67.03) rotate(-126.82)"><tspan x="0" y="0">.</tspan></text>
    <text class="cls-2" transform="translate(51.99 65.07) rotate(-122.77)"><tspan x="0" y="0">.</tspan></text>
    <text class="cls-2" transform="translate(50.68 63) rotate(-118.69)"><tspan x="0" y="0">.</tspan></text>
    <text class="cls-2" transform="translate(49.53 60.85) rotate(-114.62)"><tspan x="0" y="0">.</tspan></text>
    <text class="cls-2" transform="translate(48.52 58.61) rotate(-110.51)"><tspan x="0" y="0">.</tspan></text>
  </g>
</svg>