<?xml version="1.0" encoding="UTF-8"?>
<svg xmlns="http://www.w3.org/2000/svg" viewBox="0 0 1920 1080">
  <defs>
    <style>
      .cls-1 {
        stroke: #000;
      }

      .cls-1, .cls-2 {
        fill: #88acba;
      }

      .cls-1, .cls-3, .cls-4, .cls-5, .cls-6 {
        stroke-miterlimit: 10;
      }

      .cls-3 {
        fill: #333733;
      }

      .cls-3, .cls-4, .cls-5, .cls-6 {
        stroke: #1c1e1c;
      }

      .cls-4 {
        stroke-width: 1.21px;
      }

      .cls-4, .cls-6 {
        fill: none;
      }

      .cls-5 {
        fill: #1c1e1c;
      }

      .cls-7 {
        fill: #cfcdca;
      }

      .cls-8 {
        fill: #4d626b;
      }
    </style>
  </defs>
  <g id="Camada_1" data-name="Camada 1">
    <rect class="cls-7" y="0" width="1920" height="1080"/>
    <g>
      <path class="cls-2" d="M2113.07,632.72c-29.91,5.87-75.26,12.66-130.38,12.26-183.13-1.31-287.91-80.62-392.15-111.47-102.24-30.26-258.94-30.19-493.52,111.75,6.11-7.37,15.11-17.7,26.77-29.26,113.78-112.7,309.42-171.43,481.26-132.3,162.49,37.01,193.53,136.42,382.38,152.36,52.68,4.45,96.61.62,125.65-3.35Z"/>
      <g>
        <path class="cls-1" d="M1211.8,455.31c-2.7-.68-4.43-3.56-3.76-6.26s3.56-4.43,6.26-3.76c2.62.66,4.27,3.52,3.6,6.22-.67,2.7-3.48,4.45-6.1,3.8Z"/>
        <path class="cls-1" d="M1219.42,427.43c-2.65-.86-4.18-3.85-3.32-6.5s3.85-4.18,6.5-3.32c2.57.83,4.03,3.8,3.17,6.45-.86,2.65-3.77,4.21-6.35,3.37Z"/>
        <path class="cls-1" d="M1228.91,400.14c-2.59-1.04-3.91-4.12-2.88-6.71s4.12-3.91,6.71-2.88c2.51,1,3.76,4.06,2.72,6.65-1.03,2.59-4.05,3.94-6.56,2.94Z"/>
        <path class="cls-1" d="M1240.24,373.55c-2.51-1.21-3.62-4.38-2.41-6.89,1.21-2.51,4.38-3.62,6.89-2.41,2.44,1.18,3.47,4.31,2.26,6.82-1.21,2.51-4.31,3.65-6.75,2.48Z"/>
        <path class="cls-1" d="M1253.37,347.82c-2.42-1.38-3.3-4.63-1.92-7.04,1.38-2.42,4.63-3.3,7.04-1.92,2.35,1.34,3.16,4.54,1.78,6.96s-4.56,3.34-6.9,2Z"/>
        <path class="cls-1" d="M1268.27,323.09c-2.31-1.55-2.96-4.85-1.41-7.16,1.55-2.31,4.85-2.96,7.16-1.41,2.25,1.51,2.83,4.76,1.28,7.07-1.55,2.31-4.78,3.01-7.03,1.5Z"/>
        <path class="cls-1" d="M1284.9,299.5c-2.2-1.71-2.61-5.05-.89-7.25s5.05-2.61,7.25-.89c2.13,1.66,2.48,4.95.76,7.14-1.71,2.2-4.98,2.66-7.12.99Z"/>
        <path class="cls-1" d="M1303.19,277.16c-2.07-1.87-2.24-5.22-.37-7.29,1.87-2.07,5.22-2.24,7.29-.37,2.01,1.81,2.12,5.12.25,7.18-1.87,2.07-5.16,2.29-7.17.48Z"/>
        <path class="cls-1" d="M1323.01,256.24c-1.92-2.02-1.83-5.38.19-7.3,2.02-1.92,5.38-1.83,7.3.19,1.86,1.96,1.72,5.26-.3,7.18-2.02,1.92-5.32,1.89-7.19-.07Z"/>
        <path class="cls-1" d="M1344.42,236.87c-1.77-2.15-1.44-5.5.71-7.27s5.5-1.44,7.27.72c1.72,2.09,1.33,5.37-.82,7.14s-5.45,1.5-7.16-.59Z"/>
        <path class="cls-1" d="M1367.15,219.03c-1.62-2.27-1.07-5.58,1.2-7.2,2.27-1.62,5.58-1.07,7.2,1.2,1.57,2.2.97,5.45-1.29,7.07-2.27,1.62-5.53,1.13-7.11-1.07Z"/>
        <path class="cls-1" d="M1391.04,202.72c-1.46-2.37-.69-5.64,1.68-7.11s5.64-.69,7.11,1.68c1.42,2.3.61,5.5-1.76,6.97-2.37,1.46-5.6.76-7.02-1.54Z"/>
        <path class="cls-1" d="M1415.95,188.05c-1.3-2.46-.31-5.67,2.15-6.98,2.46-1.3,5.67-.31,6.98,2.15,1.26,2.39.23,5.53-2.23,6.83-2.46,1.3-5.64.38-6.9-2.01Z"/>
        <path class="cls-1" d="M1441.77,175.13c-1.13-2.55.08-5.68,2.63-6.81,2.55-1.13,5.68.08,6.81,2.63,1.09,2.47-.15,5.53-2.7,6.66-2.55,1.13-5.65,0-6.74-2.48Z"/>
        <path class="cls-1" d="M1468.45,164.05c-.94-2.62.49-5.66,3.11-6.6,2.62-.94,5.66.49,6.6,3.11.91,2.54-.55,5.51-3.17,6.45-2.62.94-5.63-.42-6.55-2.96Z"/>
        <path class="cls-1" d="M1495.81,154.94c-.75-2.68.91-5.61,3.59-6.36s5.61.91,6.36,3.59c.72,2.61-.95,5.45-3.63,6.2s-5.59-.83-6.31-3.43Z"/>
        <path class="cls-1" d="M1523.77,147.88c-.54-2.73,1.32-5.53,4.05-6.07,2.73-.54,5.53,1.32,6.07,4.05.53,2.65-1.35,5.37-4.09,5.91s-5.51-1.24-6.04-3.89Z"/>
        <path class="cls-1" d="M1552.19,142.93c-.34-2.77,1.74-5.41,4.5-5.75s5.41,1.74,5.75,4.5c.33,2.68-1.76,5.25-4.52,5.58s-5.4-1.66-5.73-4.34Z"/>
        <path class="cls-1" d="M1580.88,140.15c-.13-2.78,2.14-5.27,4.92-5.39s5.27,2.14,5.39,4.92c.12,2.7-2.15,5.1-4.93,5.23-2.78.13-5.26-2.06-5.39-4.76Z"/>
        <path class="cls-1" d="M1609.71,139.52c.08-2.79,2.52-5.09,5.31-5.01,2.79.08,5.09,2.52,5.01,5.31-.08,2.7-2.52,4.93-5.3,4.85s-5.09-2.44-5.02-5.15Z"/>
        <path class="cls-1" d="M1638.51,141.05c.29-2.77,2.9-4.89,5.67-4.59,2.77.29,4.89,2.9,4.59,5.67-.28,2.69-2.89,4.72-5.66,4.43s-4.89-2.82-4.61-5.51Z"/>
        <path class="cls-1" d="M1667.09,144.77c.5-2.74,3.27-4.65,6.01-4.15,2.74.5,4.65,3.27,4.15,6.01-.49,2.66-3.24,4.49-5.98,3.98s-4.66-3.19-4.18-5.85Z"/>
        <path class="cls-1" d="M1695.27,150.66c.71-2.69,3.62-4.38,6.31-3.67s4.38,3.62,3.67,6.31c-.69,2.61-3.57,4.23-6.27,3.51-2.69-.71-4.41-3.54-3.71-6.15Z"/>
        <path class="cls-1" d="M1722.97,158.71c.91-2.63,3.94-4.1,6.57-3.18,2.63.91,4.1,3.94,3.18,6.57-.89,2.55-3.88,3.94-6.52,3.03-2.63-.91-4.12-3.86-3.24-6.41Z"/>
        <path class="cls-1" d="M1749.99,168.82c1.11-2.56,4.23-3.79,6.79-2.69,2.56,1.11,3.79,4.23,2.69,6.79-1.07,2.48-4.17,3.64-6.72,2.54-2.56-1.11-3.83-4.16-2.75-6.64Z"/>
        <path class="cls-1" d="M1776.19,180.89c1.29-2.47,4.49-3.48,6.96-2.19,2.47,1.29,3.48,4.49,2.19,6.96-1.25,2.4-4.42,3.34-6.89,2.05s-3.52-4.42-2.27-6.82Z"/>
        <path class="cls-1" d="M1801.52,194.81c1.45-2.38,4.72-3.16,7.1-1.71,2.38,1.45,3.16,4.72,1.71,7.1-1.41,2.31-4.64,3.02-7.01,1.57-2.38-1.46-3.21-4.65-1.79-6.96Z"/>
        <path class="cls-1" d="M1825.84,210.43c1.61-2.27,4.92-2.84,7.2-1.23,2.27,1.61,2.84,4.92,1.23,7.2-1.56,2.21-4.83,2.71-7.1,1.1-2.27-1.61-2.89-4.85-1.33-7.06Z"/>
        <path class="cls-1" d="M1849.13,227.64c1.75-2.17,5.09-2.52,7.26-.77s2.52,5.09.77,7.26c-1.7,2.1-4.99,2.39-7.16.64s-2.57-5.03-.87-7.13Z"/>
        <path class="cls-1" d="M1871.29,246.29c1.88-2.05,5.24-2.2,7.29-.32,2.05,1.88,2.2,5.24.32,7.29-1.83,1.99-5.13,2.08-7.18.2-2.05-1.88-2.26-5.18-.43-7.17Z"/>
        <path class="cls-1" d="M1892.26,266.28c2-1.93,5.37-1.87,7.3.13s1.87,5.37-.13,7.3c-1.95,1.88-5.25,1.76-7.18-.24-1.93-2-1.93-5.31.01-7.19Z"/>
        <path class="cls-1" d="M1911.94,287.51c2.12-1.8,5.48-1.53,7.28.6,1.8,2.13,1.53,5.48-.6,7.28-2.06,1.75-5.35,1.42-7.15-.71s-1.59-5.42.47-7.17Z"/>
        <path class="cls-1" d="M1913.81,791.97c2.13,1.8,2.41,5.15.62,7.27-1.8,2.13-5.15,2.41-7.28.62-2.07-1.74-2.29-5.04-.49-7.17s5.08-2.46,7.15-.72Z"/>
        <path class="cls-1" d="M1894.69,813.63c2,1.94,2.05,5.3.12,7.3s-5.3,2.05-7.3.12c-1.94-1.88-1.94-5.18,0-7.19,1.94-2,5.24-2.11,7.18-.23Z"/>
        <path class="cls-1" d="M1874.12,833.94c1.86,2.07,1.68,5.43-.39,7.29-2.07,1.86-5.43,1.68-7.29-.39-1.81-2.01-1.58-5.31.5-7.17,2.07-1.86,5.37-1.75,7.18.27Z"/>
        <path class="cls-1" d="M1852.23,852.76c1.72,2.2,1.31,5.53-.89,7.25s-5.53,1.3-7.25-.89c-1.67-2.13-1.2-5.4.99-7.12,2.2-1.71,5.48-1.37,7.15.76Z"/>
        <path class="cls-1" d="M1829.06,870.03c1.56,2.31.91,5.61-1.4,7.17-2.31,1.56-5.61.91-7.17-1.4-1.51-2.24-.82-5.47,1.49-7.03,2.31-1.56,5.56-.98,7.08,1.26Z"/>
        <path class="cls-1" d="M1804.75,885.62c1.39,2.42.51,5.66-1.9,7.05-2.42,1.39-5.66.51-7.05-1.9-1.35-2.34-.43-5.52,1.98-6.91,2.42-1.39,5.62-.58,6.97,1.76Z"/>
        <path class="cls-1" d="M1779.41,899.42c1.21,2.51.1,5.68-2.4,6.89s-5.68.1-6.89-2.4c-1.18-2.43-.03-5.53,2.48-6.75,2.51-1.21,5.65-.18,6.82,2.26Z"/>
        <path class="cls-1" d="M1753.14,911.35c1.02,2.59-.31,5.67-2.9,6.7s-5.68-.31-6.7-2.9c-1-2.51.37-5.52,2.96-6.55,2.59-1.02,5.65.23,6.64,2.75Z"/>
        <path class="cls-1" d="M1726.06,921.33c.83,2.66-.73,5.64-3.39,6.47-2.66.83-5.64-.73-6.47-3.39-.81-2.58.78-5.48,3.44-6.31,2.66-.83,5.61.65,6.42,3.23Z"/>
        <path class="cls-1" d="M1698.35,929.27c.63,2.71-1.15,5.57-3.86,6.2s-5.57-1.15-6.2-3.86c-.61-2.63,1.18-5.41,3.9-6.04s5.55,1.07,6.16,3.7Z"/>
        <path class="cls-1" d="M1670.12,935.12c.43,2.75-1.56,5.47-4.31,5.89-2.75.43-5.47-1.56-5.89-4.31-.41-2.67,1.58-5.3,4.34-5.73,2.75-.43,5.45,1.48,5.87,4.15Z"/>
        <path class="cls-1" d="M1641.5,938.85c.22,2.78-1.96,5.33-4.74,5.56-2.78.22-5.33-1.96-5.55-4.74-.21-2.7,1.97-5.17,4.75-5.39,2.78-.22,5.33,1.88,5.54,4.57Z"/>
        <path class="cls-1" d="M1612.68,940.41c.04,2.79-2.3,5.2-5.09,5.24-2.79.04-5.2-2.3-5.23-5.09-.04-2.7,2.3-5.03,5.09-5.07,2.79-.04,5.2,2.22,5.23,4.92Z"/>
        <path class="cls-1" d="M1583.85,939.94c-.19,2.78-2.72,4.99-5.5,4.8-2.78-.19-4.99-2.72-4.8-5.5.18-2.7,2.71-4.83,5.49-4.64s5,2.64,4.81,5.33Z"/>
        <path class="cls-1" d="M1555.13,937.32c-.39,2.76-3.08,4.78-5.83,4.39-2.76-.39-4.78-3.08-4.39-5.84.38-2.68,3.05-4.62,5.81-4.22,2.76.39,4.79,3,4.41,5.67Z"/>
        <path class="cls-1" d="M1526.64,932.6c-.59,2.72-3.42,4.54-6.14,3.95-2.72-.59-4.54-3.42-3.95-6.14.57-2.64,3.38-4.38,6.11-3.79,2.72.59,4.56,3.34,3.98,5.98Z"/>
        <path class="cls-1" d="M1498.6,925.81c-.79,2.67-3.74,4.28-6.41,3.49-2.67-.79-4.28-3.74-3.49-6.41.77-2.59,3.69-4.12,6.37-3.33,2.67.79,4.3,3.66,3.54,6.25Z"/>
        <path class="cls-1" d="M1471.13,917.02c-.98,2.61-4.04,4-6.65,3.02-2.61-.98-4-4.04-3.02-6.65.95-2.53,3.98-3.84,6.59-2.87,2.61.98,4.03,3.96,3.08,6.49Z"/>
        <path class="cls-1" d="M1444.34,906.24c-1.16,2.53-4.32,3.7-6.85,2.53s-3.7-4.32-2.53-6.85c1.13-2.46,4.25-3.55,6.78-2.38s3.73,4.24,2.6,6.7Z"/>
        <path class="cls-1" d="M1418.39,893.57c-1.34,2.44-4.57,3.38-7.01,2.04s-3.38-4.57-2.04-7.01c1.3-2.37,4.49-3.24,6.93-1.89s3.42,4.5,2.12,6.87Z"/>
        <path class="cls-1" d="M1393.43,879.1c-1.51,2.34-4.8,3.04-7.14,1.53s-3.04-4.8-1.53-7.14c1.47-2.27,4.71-2.91,7.05-1.39s3.09,4.73,1.62,7Z"/>
        <path class="cls-1" d="M1369.55,862.87c-1.67,2.23-5,2.7-7.23,1.02-2.23-1.67-2.7-5-1.02-7.23,1.63-2.16,4.9-2.56,7.13-.89,2.23,1.68,2.75,4.94,1.12,7.1Z"/>
        <path class="cls-1" d="M1346.86,844.97c-1.83,2.1-5.18,2.34-7.28.51-2.1-1.83-2.33-5.18-.51-7.28,1.78-2.04,5.07-2.21,7.18-.38,2.1,1.83,2.39,5.12.61,7.16Z"/>
        <path class="cls-1" d="M1325.52,825.53c-1.97,1.97-5.33,1.96-7.3-.01-1.97-1.97-1.96-5.33,0-7.3,1.92-1.91,5.22-1.85,7.19.13,1.97,1.97,2.02,5.28.11,7.19Z"/>
        <path class="cls-1" d="M1305.6,804.63c-2.11,1.82-5.46,1.58-7.28-.53-1.82-2.11-1.58-5.46.53-7.28,2.04-1.77,5.33-1.47,7.16.63,1.82,2.11,1.64,5.41-.4,7.17Z"/>
        <path class="cls-1" d="M1287.21,782.35c-2.23,1.67-5.56,1.19-7.23-1.04-1.67-2.23-1.19-5.56,1.04-7.23,2.17-1.62,5.43-1.09,7.09,1.14,1.67,2.23,1.25,5.51-.91,7.13Z"/>
        <path class="cls-1" d="M1270.45,758.85c-2.34,1.51-5.63.79-7.13-1.55s-.79-5.63,1.55-7.13c2.27-1.46,5.49-.7,7,1.64,1.51,2.34.86,5.58-1.41,7.05Z"/>
        <path class="cls-1" d="M1255.41,734.22c-2.45,1.34-5.67.39-7.01-2.05-1.34-2.45-.39-5.67,2.05-7.01,2.37-1.3,5.53-.31,6.86,2.13,1.34,2.44.46,5.63-1.91,6.93Z"/>
        <path class="cls-1" d="M1242.15,708.57c-2.53,1.16-5.68-.01-6.84-2.55-1.16-2.53.01-5.68,2.55-6.84,2.46-1.12,5.53.08,6.69,2.62,1.16,2.53.06,5.65-2.4,6.77Z"/>
        <path class="cls-1" d="M1230.75,682.04c-2.61.98-5.67-.42-6.64-3.03-.98-2.61.42-5.67,3.03-6.64,2.53-.95,5.51.48,6.49,3.08.98,2.61-.34,5.64-2.87,6.58Z"/>
      </g>
    </g>
    <g>
      <g>
        <g>
          <path class="cls-8" d="M279.67,663.54h25.64v5.32h-31.25v-57.76h5.61v52.43Z"/>
          <path class="cls-8" d="M326.54,668.86l23.09-57.76h7.82l23.35,57.76h-6.58l-6.15-15.33h-28.97l-6.15,15.33h-6.41ZM341.03,648.45h25.02l-11.76-29.2c-.27-.81-.7-1.78-.79-2.34-.09.48-.44,1.53-.79,2.34l-11.68,29.2Z"/>
          <path class="cls-8" d="M558.33,762.6l23.09-55.81h7.82l23.35,55.81h-6.58l-6.15-14.81h-28.97l-6.15,14.81h-6.41ZM572.82,742.88h25.02l-11.76-28.21c-.27-.78-.7-1.72-.79-2.26-.09.47-.44,1.48-.79,2.26l-11.68,28.21Z"/>
          <path class="cls-8" d="M626.59,668.86l23.09-57.76h7.82l23.35,57.76h-6.58l-6.15-15.33h-28.97l-6.15,15.33h-6.41ZM641.08,648.45h25.02l-11.76-29.2c-.27-.81-.7-1.78-.79-2.34-.09.48-.44,1.53-.79,2.34l-11.68,29.2Z"/>
          <path class="cls-8" d="M399.45,668.86v-57.76h24.34c13.22,0,21.24,6.46,21.24,16.7,0,8.31-4.92,14.12-13.31,16.13l13.94,24.93h-7.29l-13.31-23.96h-19.05v23.96h-6.56ZM406.02,639.66h17.96c9.02,0,14.31-4.35,14.31-11.7s-5.56-11.61-14.49-11.61h-17.77v23.31Z"/>
          <path class="cls-8" d="M471.9,668.86h-5.61v-57.76h5.61v57.76Z"/>
          <path class="cls-8" d="M524.59,611.1c10.76,0,17.84,5.61,18.76,14.96h-6.09c-.66-6.31-5.25-9.9-12.75-9.9-8.42,0-13.93,4.05-13.93,10.36,0,4.91,3.09,8.03,9.34,9.51l10.26,2.34c9.34,2.11,14.17,7.09,14.17,14.65,0,9.67-8,15.83-20.34,15.83-11.59,0-19.43-5.69-20.18-14.81h6.17c.33,5.84,5.84,9.66,14.01,9.66,8.75,0,14.34-3.98,14.34-10.37,0-4.99-3-8.26-9.42-9.66l-10.09-2.34c-9.34-2.11-14.26-7.09-14.26-14.73,0-9.36,8-15.51,20.01-15.51Z"/>
          <path class="cls-8" d="M589.83,611.1c10.76,0,17.84,5.61,18.76,14.96h-6.09c-.66-6.31-5.25-9.9-12.75-9.9-8.42,0-13.93,4.05-13.93,10.36,0,4.91,3.09,8.03,9.34,9.51l10.26,2.34c9.34,2.11,14.17,7.09,14.17,14.65,0,9.67-8,15.83-20.34,15.83-11.59,0-19.43-5.69-20.18-14.81h6.17c.33,5.84,5.84,9.66,14.01,9.66,8.75,0,14.34-3.98,14.34-10.37,0-4.99-3-8.26-9.42-9.66l-10.09-2.34c-9.34-2.11-14.26-7.09-14.26-14.73,0-9.36,8-15.51,20.01-15.51Z"/>
          <path class="cls-8" d="M325.89,762.6v-55.81h-5.53l-20.34,49.18-20.35-49.18h-5.61v55.81h5.54v-26.5c0-9.74-.16-14.03-.47-17.85l18.16,44.35h5.38l18.16-44.11c-.31,2.1-.47,8.26-.47,16.75v27.36h5.53Z"/>
          <path class="cls-8" d="M350.72,762.6l20.5-55.81h6.94l20.73,55.81h-5.84l-5.46-14.81h-25.72l-5.46,14.81h-5.69ZM363.58,742.88h22.21l-10.44-28.21c-.24-.78-.62-1.72-.7-2.26-.08.47-.39,1.48-.7,2.26l-10.36,28.21Z"/>
          <path class="cls-8" d="M418.02,734.74c0-16.61,10.76-27.94,26.5-27.94,12,0,21.43,7.02,23.69,17.75h-6c-2.34-7.78-9.2-12.54-17.93-12.54-12.23,0-20.42,9.06-20.42,22.73s8.19,22.66,20.42,22.66c8.81,0,15.82-4.61,18.24-11.86h6c-2.57,10.2-12.31,17.07-24.32,17.07-15.59,0-26.19-11.25-26.19-27.87Z"/>
          <path class="cls-8" d="M495.22,762.6v-55.81h5.61v24.86h30.16v-24.86h5.53v55.81h-5.53v-25.72h-30.16v25.72h-5.61Z"/>
          <path class="cls-8" d="M634.34,762.6v-55.81h16.83c16.83,0,28.06,11.23,28.06,27.9s-11.15,27.9-27.9,27.9h-16.99ZM639.95,711.94v45.52h11.15c13.64,0,22.37-8.88,22.37-22.76s-8.73-22.76-22.52-22.76h-10.99Z"/>
          <path class="cls-8" d="M729.46,762.6c-15.67,0-26.58-11.22-26.58-27.13s10.99-27.21,26.58-27.21,26.58,11.22,26.58,27.21-10.99,27.13-26.58,27.13ZM729.46,713.4c-12.31,0-20.73,8.95-20.73,22.07s8.42,22.07,20.73,22.07,20.81-9.02,20.81-22.07-8.5-22.07-20.81-22.07Z"/>
        </g>
        <g>
          <path class="cls-8" d="M270.23,810.26v-17.34h5.94c1.35,0,2.46.25,3.34.74.87.49,1.52,1.15,1.94,1.99s.64,1.76.64,2.79-.21,1.97-.64,2.81c-.42.84-1.07,1.5-1.94,2-.87.5-1.98.74-3.33.74h-4.2v-1.95h4.1c.91,0,1.65-.16,2.21-.47.56-.31.96-.74,1.22-1.29.25-.55.38-1.16.38-1.85s-.13-1.29-.38-1.83-.66-.96-1.22-1.27c-.56-.31-1.3-.47-2.23-.47h-3.61v15.4h-2.21Z"/>
          <path class="cls-8" d="M291.13,810.26v-17.34h2.21v15.39h8.03v1.96h-10.24Z"/>
          <path class="cls-8" d="M308.79,810.26l6.3-17.34h2.56l6.38,17.34h-2.33l-3.68-10.29c-.23-.64-.49-1.43-.79-2.38-.3-.95-.66-2.16-1.09-3.64h.42c-.42,1.49-.78,2.72-1.09,3.68-.31.97-.56,1.75-.76,2.33l-3.57,10.29h-2.35ZM311.95,805.42v-1.93h8.9v1.93h-8.9ZM315.48,791.22l1.63-3.42h2.34l-2.26,3.42h-1.71Z"/>
          <path class="cls-8" d="M337.95,810.56c-1.25,0-2.33-.2-3.26-.61-.92-.4-1.64-.97-2.16-1.69s-.81-1.57-.88-2.54h2.27c.06.65.29,1.19.67,1.61s.87.73,1.46.94c.6.21,1.23.31,1.91.31.78,0,1.49-.13,2.11-.39.63-.25,1.12-.62,1.48-1.08s.55-1,.55-1.62c0-.56-.16-1.01-.47-1.36-.32-.35-.73-.64-1.25-.86-.52-.23-1.09-.42-1.71-.59l-2.09-.6c-1.4-.4-2.48-.96-3.26-1.7-.77-.74-1.16-1.68-1.16-2.83,0-.98.26-1.84.79-2.57.53-.73,1.24-1.3,2.14-1.71s1.91-.61,3.03-.61,2.15.2,3.03.61,1.57.95,2.08,1.65.78,1.48.81,2.36h-2.16c-.1-.84-.51-1.5-1.21-1.96s-1.58-.69-2.61-.69c-.74,0-1.4.12-1.96.37-.56.25-1,.58-1.31,1-.31.42-.47.91-.47,1.45,0,.61.19,1.09.57,1.46s.82.66,1.34.86.98.37,1.4.49l1.74.48c.47.12.98.3,1.54.51s1.1.51,1.61.87c.51.36.93.82,1.26,1.37s.5,1.23.5,2.04c0,.95-.25,1.8-.74,2.56s-1.21,1.36-2.15,1.81c-.94.44-2.07.66-3.41.66Z"/>
          <path class="cls-8" d="M352.29,794.87v-1.96h13.1v1.96h-5.43v15.39h-2.21v-15.39h-5.46Z"/>
          <path class="cls-8" d="M376.51,792.92v17.34h-2.21v-17.34h2.21Z"/>
          <path class="cls-8" d="M393.39,810.49c-1.48,0-2.8-.36-3.96-1.08-1.16-.72-2.07-1.74-2.74-3.07-.67-1.33-1-2.91-1-4.74s.33-3.42,1-4.75c.67-1.33,1.58-2.35,2.74-3.08,1.16-.72,2.47-1.08,3.96-1.08.88,0,1.71.13,2.49.38.78.26,1.48.63,2.1,1.12.62.49,1.14,1.09,1.55,1.79.42.7.7,1.5.86,2.39h-2.21c-.12-.6-.33-1.12-.63-1.57-.3-.45-.66-.83-1.1-1.14-.43-.31-.9-.54-1.42-.7s-1.06-.23-1.63-.23c-1.04,0-1.98.26-2.81.79s-1.5,1.3-2,2.32c-.49,1.02-.73,2.27-.73,3.75s.25,2.72.74,3.74c.49,1.02,1.16,1.79,2,2.32.84.52,1.77.78,2.8.78.57,0,1.11-.08,1.63-.24s1-.39,1.42-.7c.44-.31.8-.68,1.1-1.14.3-.45.51-.97.63-1.57h2.21c-.15.88-.43,1.68-.84,2.37s-.93,1.3-1.56,1.8c-.62.5-1.32.87-2.1,1.13-.77.26-1.61.39-2.49.39Z"/>
          <path class="cls-8" d="M407.5,810.26l6.3-17.34h2.56l6.38,17.34h-2.33l-3.68-10.29c-.23-.64-.49-1.43-.79-2.38-.29-.95-.66-2.16-1.08-3.64h.42c-.42,1.49-.78,2.72-1.09,3.68-.31.97-.56,1.75-.76,2.33l-3.58,10.29h-2.35ZM410.67,805.42v-1.93h8.9v1.93h-8.9Z"/>
          <path class="cls-8" d="M450.51,810.49c-1.48,0-2.8-.36-3.96-1.08-1.16-.72-2.07-1.74-2.74-3.07-.67-1.33-1-2.91-1-4.74s.33-3.42,1-4.75c.67-1.33,1.58-2.35,2.74-3.08,1.16-.72,2.49-1.08,3.96-1.08s2.81.36,3.96,1.08c1.16.72,2.06,1.75,2.73,3.08s1,2.92,1,4.75-.33,3.41-1,4.74-1.57,2.35-2.73,3.07c-1.16.72-2.47,1.08-3.96,1.08ZM450.51,808.44c1.04,0,1.97-.26,2.81-.78.83-.53,1.49-1.3,1.98-2.32s.74-2.27.74-3.74-.25-2.74-.74-3.76c-.49-1.02-1.15-1.79-1.98-2.32-.84-.52-1.77-.78-2.81-.78s-1.98.26-2.81.79-1.5,1.3-2,2.32c-.49,1.02-.74,2.27-.74,3.75s.25,2.72.74,3.74c.49,1.01,1.16,1.79,2,2.31s1.78.79,2.81.79Z"/>
          <path class="cls-8" d="M474.4,810.49c-1.48,0-2.8-.36-3.96-1.08-1.16-.72-2.07-1.74-2.73-3.07-.66-1.33-.99-2.91-.99-4.74s.33-3.42.99-4.75c.67-1.33,1.58-2.35,2.73-3.08,1.16-.72,2.49-1.08,3.96-1.08.88,0,1.7.13,2.49.38.78.26,1.48.63,2.1,1.12.62.49,1.14,1.09,1.56,1.79.41.7.69,1.5.85,2.39h-2.21c-.13-.6-.34-1.12-.64-1.57s-.67-.83-1.09-1.14c-.43-.31-.9-.54-1.43-.7-.52-.16-1.06-.23-1.63-.23-1.04,0-1.98.26-2.81.79s-1.5,1.3-1.99,2.32c-.49,1.02-.74,2.27-.74,3.75s.25,2.72.74,3.74,1.16,1.79,2,2.32c.84.52,1.78.78,2.81.78.57,0,1.11-.08,1.63-.24.53-.16,1-.39,1.43-.7.43-.31.79-.68,1.09-1.14.3-.45.51-.97.64-1.57h2.21c-.15.88-.43,1.68-.84,2.37s-.93,1.3-1.55,1.8c-.63.5-1.32.87-2.1,1.13-.78.26-1.62.39-2.5.39Z"/>
          <path class="cls-8" d="M497.25,810.54c-1.36,0-2.55-.27-3.58-.8-1.02-.53-1.81-1.27-2.37-2.2-.56-.93-.84-1.99-.84-3.18v-11.44h2.21v11.27c0,.83.19,1.57.56,2.22.37.65.89,1.16,1.58,1.53s1.5.56,2.44.56,1.76-.19,2.44-.56,1.2-.88,1.56-1.53c.37-.65.55-1.39.55-2.22v-11.27h2.21v11.44c0,1.18-.28,2.24-.84,3.18-.56.93-1.34,1.67-2.36,2.2-1.01.54-2.19.8-3.56.8Z"/>
          <path class="cls-8" d="M513.88,810.26v-17.34h2.21v15.39h8.03v1.96h-10.24Z"/>
          <path class="cls-8" d="M531.54,810.26l6.29-17.34h2.57l6.37,17.34h-2.33l-3.67-10.29c-.23-.64-.49-1.43-.79-2.38-.3-.95-.66-2.16-1.08-3.64h.41c-.41,1.49-.78,2.72-1.08,3.68-.31.97-.57,1.75-.76,2.33l-3.57,10.29h-2.35ZM534.7,805.42v-1.93h8.9v1.93h-8.9Z"/>
          <path class="cls-8" d="M555.15,810.26v-17.34h5.93c1.35,0,2.46.23,3.34.69.86.46,1.52,1.1,1.94,1.91.42.8.63,1.73.63,2.76s-.21,1.95-.63,2.74c-.43.79-1.07,1.41-1.94,1.86-.86.45-1.98.67-3.33.67h-4.72v-1.97h4.61c.92,0,1.65-.14,2.21-.4.55-.27.96-.65,1.21-1.14.26-.49.39-1.08.39-1.75s-.13-1.29-.39-1.8c-.25-.51-.67-.9-1.22-1.19s-1.29-.42-2.22-.42h-3.6v15.4h-2.21ZM565.11,810.26l-4.19-7.81h2.49l4.26,7.81h-2.55Z"/>
        </g>
      </g>
      <g>
        <path class="cls-8" d="M681.71,434.75c-9.93,1.95-24.97,4.2-43.26,4.07-60.76-.44-95.53-26.75-130.12-36.99-33.92-10.04-85.92-10.02-163.76,37.08,2.03-2.45,5.01-5.87,8.88-9.71,37.75-37.4,102.67-56.88,159.69-43.9,53.92,12.28,64.22,45.27,126.88,50.56,17.48,1.48,32.06.21,41.69-1.11Z"/>
        <g>
          <path class="cls-8" d="M382.65,375.88c-.9-.22-1.47-1.18-1.25-2.08s1.18-1.47,2.08-1.25c.87.22,1.42,1.17,1.19,2.06-.22.9-1.15,1.48-2.02,1.26Z"/>
          <path class="cls-8" d="M385.18,366.63c-.88-.28-1.39-1.28-1.1-2.16.28-.88,1.28-1.39,2.16-1.1.85.28,1.33,1.26,1.05,2.14-.28.88-1.25,1.39-2.1,1.12Z"/>
          <path class="cls-8" d="M388.33,357.57c-.86-.34-1.3-1.37-.95-2.23.34-.86,1.37-1.3,2.23-.95.83.33,1.25,1.35.9,2.21-.34.86-1.34,1.31-2.18.97Z"/>
          <path class="cls-8" d="M392.09,348.75c-.83-.4-1.2-1.45-.8-2.29.4-.83,1.45-1.2,2.29-.8.81.39,1.15,1.43.75,2.26-.4.83-1.43,1.21-2.24.82Z"/>
          <path class="cls-8" d="M396.45,340.21c-.8-.46-1.1-1.54-.64-2.34.46-.8,1.54-1.1,2.34-.64.78.44,1.05,1.51.59,2.31-.46.8-1.51,1.11-2.29.66Z"/>
          <path class="cls-8" d="M401.4,332c-.77-.51-.98-1.61-.47-2.38.51-.77,1.61-.98,2.38-.47.75.5.94,1.58.42,2.35-.52.77-1.59,1-2.33.5Z"/>
          <path class="cls-8" d="M406.92,324.17c-.73-.57-.86-1.68-.3-2.4.57-.73,1.68-.86,2.4-.3.71.55.82,1.64.25,2.37-.57.73-1.65.88-2.36.33Z"/>
          <path class="cls-8" d="M412.99,316.75c-.69-.62-.74-1.73-.12-2.42s1.73-.74,2.42-.12c.67.6.7,1.7.08,2.38-.62.69-1.71.76-2.38.16Z"/>
          <path class="cls-8" d="M419.57,309.82c-.64-.67-.61-1.78.06-2.42s1.79-.61,2.42.06c.62.65.57,1.75-.1,2.38s-1.77.63-2.38-.03Z"/>
          <path class="cls-8" d="M426.67,303.4c-.59-.71-.48-1.82.24-2.41.71-.59,1.82-.48,2.41.24.57.69.44,1.78-.27,2.37-.71.59-1.81.5-2.38-.2Z"/>
          <path class="cls-8" d="M434.23,297.46c-.54-.75-.35-1.85.4-2.39.75-.54,1.85-.35,2.39.4.52.73.32,1.81-.43,2.35-.75.54-1.84.38-2.36-.35Z"/>
          <path class="cls-8" d="M442.15,292.06c-.49-.79-.23-1.87.56-2.36.79-.49,1.87-.23,2.36.56.47.76.2,1.83-.59,2.31-.79.49-1.86.25-2.33-.51Z"/>
          <path class="cls-8" d="M450.41,287.19c-.43-.82-.1-1.88.71-2.31.82-.43,1.88-.1,2.31.71.42.79.08,1.83-.74,2.27s-1.87.13-2.29-.67Z"/>
          <path class="cls-8" d="M459,282.9c-.37-.85.03-1.89.87-2.26.84-.37,1.89.03,2.26.87.36.82-.05,1.84-.9,2.21s-1.87,0-2.24-.82Z"/>
          <path class="cls-8" d="M467.83,279.23c-.31-.87.16-1.88,1.03-2.19s1.88.16,2.19,1.03c.3.84-.18,1.83-1.05,2.14s-1.87-.14-2.17-.98Z"/>
          <path class="cls-8" d="M476.92,276.21c-.25-.89.3-1.86,1.19-2.11s1.86.3,2.11,1.19c.24.86-.32,1.81-1.21,2.06s-1.85-.27-2.09-1.14Z"/>
          <path class="cls-8" d="M486.2,273.87c-.18-.91.44-1.83,1.35-2.01.91-.18,1.83.44,2.01,1.35.18.88-.45,1.78-1.36,1.96-.91.18-1.83-.41-2-1.29Z"/>
          <path class="cls-8" d="M495.63,272.23c-.11-.92.58-1.8,1.49-1.91s1.8.58,1.91,1.49c.11.89-.58,1.74-1.5,1.85-.92.11-1.79-.55-1.9-1.44Z"/>
          <path class="cls-8" d="M505.16,271.31c-.04-.92.71-1.75,1.63-1.79.92-.04,1.75.71,1.79,1.63.04.9-.71,1.69-1.64,1.73-.92.04-1.75-.68-1.79-1.58Z"/>
          <path class="cls-8" d="M514.72,271.1c.03-.92.84-1.69,1.76-1.66s1.69.84,1.66,1.76c-.03.9-.84,1.64-1.76,1.61-.92-.03-1.69-.81-1.66-1.71Z"/>
          <path class="cls-8" d="M524.28,271.61c.1-.92.96-1.62,1.88-1.52.92.1,1.62.96,1.52,1.88-.09.89-.96,1.57-1.88,1.47-.92-.1-1.62-.94-1.53-1.83Z"/>
          <path class="cls-8" d="M533.78,272.85c.17-.91,1.09-1.54,2-1.38.91.17,1.54,1.09,1.38,2-.16.88-1.08,1.49-1.99,1.32-.91-.17-1.55-1.06-1.38-1.94Z"/>
          <path class="cls-8" d="M543.13,274.81c.24-.89,1.2-1.45,2.09-1.22.89.24,1.45,1.2,1.22,2.09-.23.87-1.19,1.4-2.08,1.17-.89-.24-1.46-1.17-1.23-2.04Z"/>
          <path class="cls-8" d="M552.33,277.49c.3-.87,1.31-1.36,2.18-1.06s1.36,1.31,1.06,2.18c-.29.85-1.29,1.31-2.16,1s-1.37-1.28-1.07-2.13Z"/>
          <path class="cls-8" d="M561.29,280.85c.37-.85,1.4-1.26,2.25-.89.85.37,1.26,1.4.89,2.25-.36.82-1.38,1.21-2.23.84-.85-.37-1.27-1.38-.91-2.2Z"/>
          <path class="cls-8" d="M569.98,284.85c.43-.82,1.49-1.16,2.31-.73s1.15,1.49.73,2.31c-.41.8-1.47,1.11-2.29.68s-1.17-1.47-.75-2.26Z"/>
          <path class="cls-8" d="M578.38,289.48c.48-.79,1.57-1.05,2.36-.57.79.48,1.05,1.57.57,2.36-.47.77-1.54,1-2.33.52-.79-.48-1.06-1.54-.59-2.31Z"/>
          <path class="cls-8" d="M586.46,294.67c.53-.75,1.63-.94,2.39-.41.75.53.94,1.63.41,2.39-.52.73-1.6.9-2.36.36s-.96-1.61-.44-2.34Z"/>
          <path class="cls-8" d="M594.18,300.38c.58-.72,1.69-.84,2.41-.25.72.58.84,1.69.26,2.41-.56.7-1.66.79-2.38.21-.72-.58-.85-1.67-.29-2.37Z"/>
          <path class="cls-8" d="M601.54,306.58c.62-.68,1.74-.73,2.42-.11.68.62.73,1.74.11,2.42-.61.66-1.7.69-2.38.07s-.75-1.72-.14-2.38Z"/>
          <path class="cls-8" d="M608.5,313.22c.67-.64,1.78-.62,2.42.04s.62,1.78-.04,2.42c-.65.62-1.74.58-2.38-.08-.64-.67-.64-1.76,0-2.38Z"/>
          <path class="cls-8" d="M615.02,320.27c.71-.6,1.82-.51,2.41.2.6.71.51,1.82-.2,2.41-.68.58-1.78.47-2.37-.23-.6-.71-.53-1.8.16-2.38Z"/>
          <path class="cls-8" d="M621.01,327.67c.76-.53,1.85-.35,2.39.41.53.76.35,1.85-.41,2.39-.73.52-1.81.31-2.34-.44-.53-.76-.37-1.84.36-2.36Z"/>
          <path class="cls-8" d="M626.25,335.63c.8-.46,1.88-.18,2.34.62s.18,1.88-.62,2.34c-.78.45-1.83.15-2.29-.65-.46-.8-.2-1.86.58-2.31Z"/>
          <path class="cls-8" d="M630.86,344.04c.83-.41,1.89-.05,2.29.78.41.83.05,1.89-.78,2.29-.81.39-1.84.02-2.24-.81s-.07-1.87.74-2.27Z"/>
          <path class="cls-8" d="M634.9,352.74c.85-.35,1.88.08,2.23.93.35.85-.08,1.88-.93,2.23-.83.34-1.83-.1-2.18-.95-.35-.86.05-1.87.88-2.21Z"/>
          <path class="cls-8" d="M638.36,361.7c.88-.29,1.87.2,2.17,1.08.29.88-.2,1.87-1.08,2.17-.85.28-1.82-.22-2.12-1.1-.29-.88.18-1.87,1.03-2.15Z"/>
          <path class="cls-8" d="M641.21,370.85c.89-.23,1.86.33,2.09,1.22.23.89-.33,1.86-1.22,2.09-.87.23-1.8-.34-2.04-1.24s.3-1.85,1.17-2.08Z"/>
          <path class="cls-8" d="M643.43,380.18c.91-.17,1.83.46,2,1.37.17.91-.46,1.83-1.37,2-.88.17-1.78-.47-1.95-1.38-.17-.91.43-1.82,1.31-1.99Z"/>
          <path class="cls-8" d="M644.98,389.63c.92-.1,1.79.59,1.89,1.51.1.92-.59,1.79-1.51,1.9-.89.1-1.74-.6-1.84-1.52-.1-.92.56-1.79,1.46-1.89Z"/>
          <path class="cls-8" d="M645.82,399.17c.92-.03,1.74.72,1.78,1.65.03.92-.72,1.74-1.65,1.78-.9.03-1.69-.73-1.72-1.65-.03-.92.7-1.74,1.59-1.77Z"/>
          <path class="cls-8" d="M645.94,408.72c.92.04,1.68.86,1.64,1.78-.04.92-.86,1.68-1.78,1.64-.9-.04-1.63-.85-1.59-1.78.04-.92.83-1.68,1.73-1.64Z"/>
          <path class="cls-8" d="M645.32,418.27c.92.11,1.61.98,1.5,1.9s-.98,1.61-1.9,1.5c-.89-.11-1.55-.98-1.44-1.9s.96-1.61,1.85-1.51Z"/>
          <path class="cls-8" d="M643.95,427.73c.91.18,1.53,1.11,1.34,2.02-.18.91-1.11,1.53-2.02,1.34-.88-.18-1.47-1.1-1.29-2.01.18-.91,1.08-1.53,1.96-1.35Z"/>
          <path class="cls-8" d="M641.85,437.06c.89.25,1.43,1.22,1.18,2.11s-1.22,1.44-2.11,1.19c-.86-.24-1.38-1.21-1.13-2.1.25-.89,1.2-1.44,2.06-1.2Z"/>
          <path class="cls-8" d="M639.03,446.2c.87.32,1.34,1.33,1.02,2.2-.32.87-1.33,1.34-2.2,1.02-.84-.31-1.29-1.31-.97-2.18.32-.87,1.3-1.35,2.15-1.04Z"/>
          <path class="cls-8" d="M635.53,455.13c.84.38,1.24,1.42.86,2.27-.38.84-1.42,1.24-2.26.86-.82-.37-1.19-1.4-.81-2.24.38-.84,1.4-1.25,2.22-.88Z"/>
          <path class="cls-8" d="M631.4,463.76c.81.44,1.13,1.51.7,2.32-.44.81-1.51,1.13-2.32.7-.79-.43-1.09-1.48-.65-2.29.44-.81,1.48-1.15,2.27-.72Z"/>
          <path class="cls-8" d="M626.67,472.09c.78.49,1.03,1.58.53,2.36-.49.78-1.58,1.03-2.36.53-.76-.48-.98-1.55-.49-2.34.49-.78,1.56-1.04,2.32-.56Z"/>
          <path class="cls-8" d="M621.35,480.09c.75.55.91,1.65.37,2.39-.55.75-1.65.91-2.39.37-.72-.53-.87-1.62-.32-2.36.55-.75,1.63-.93,2.35-.4Z"/>
          <path class="cls-8" d="M615.51,487.69c.71.6.8,1.71.2,2.41-.6.71-1.71.8-2.41.2-.69-.58-.76-1.67-.16-2.38.6-.71,1.69-.82,2.37-.24Z"/>
          <path class="cls-8" d="M609.16,494.87c.66.64.68,1.76.04,2.42-.64.66-1.76.68-2.42.04-.64-.62-.64-1.72,0-2.38.64-.66,1.74-.7,2.38-.07Z"/>
          <path class="cls-8" d="M602.33,501.6c.62.69.56,1.8-.13,2.42-.69.62-1.8.56-2.42-.13-.6-.67-.52-1.76.17-2.38.69-.62,1.78-.58,2.38.09Z"/>
          <path class="cls-8" d="M595.05,507.85c.57.73.43,1.84-.3,2.4-.73.57-1.84.43-2.4-.3-.55-.71-.4-1.79.33-2.36.73-.57,1.82-.45,2.37.26Z"/>
          <path class="cls-8" d="M587.36,513.57c.52.77.3,1.86-.47,2.38-.77.52-1.86.3-2.38-.47-.5-.74-.27-1.82.5-2.33.77-.52,1.85-.32,2.35.42Z"/>
          <path class="cls-8" d="M579.29,518.73c.46.8.17,1.88-.63,2.34-.8.46-1.88.17-2.34-.63-.45-.78-.14-1.83.66-2.29.8-.46,1.86-.19,2.31.59Z"/>
          <path class="cls-8" d="M570.86,523.31c.4.83.03,1.89-.8,2.29-.83.4-1.89.03-2.29-.8-.39-.81,0-1.84.82-2.24.83-.4,1.87-.06,2.26.75Z"/>
          <path class="cls-8" d="M562.13,527.26c.34.86-.1,1.88-.97,2.22-.86.34-1.88-.11-2.22-.97-.33-.84.13-1.83.99-2.17.86-.34,1.87.08,2.2.91Z"/>
          <path class="cls-8" d="M553.15,530.56c.27.88-.24,1.87-1.13,2.14-.88.27-1.87-.24-2.14-1.13-.27-.86.26-1.82,1.14-2.09.88-.27,1.86.22,2.13,1.08Z"/>
          <path class="cls-8" d="M543.94,533.19c.21.9-.38,1.85-1.28,2.05-.9.21-1.85-.38-2.05-1.28-.2-.87.4-1.79,1.3-2,.9-.21,1.84.36,2.04,1.23Z"/>
          <path class="cls-8" d="M534.58,535.11c.14.91-.52,1.81-1.43,1.95s-1.81-.52-1.95-1.43.53-1.76,1.44-1.9,1.81.49,1.95,1.38Z"/>
          <path class="cls-8" d="M525.07,536.34c.07.92-.65,1.77-1.57,1.84-.92.07-1.77-.65-1.84-1.57-.07-.89.66-1.72,1.58-1.79.92-.07,1.77.63,1.84,1.52Z"/>
          <path class="cls-8" d="M515.55,536.85c.01.92-.76,1.72-1.69,1.74-.92.01-1.72-.76-1.74-1.69-.01-.9.76-1.67,1.69-1.68.92-.01,1.72.74,1.74,1.63Z"/>
          <path class="cls-8" d="M505.94,536.68c-.06.92-.9,1.65-1.83,1.59s-1.65-.9-1.59-1.83c.06-.89.9-1.6,1.82-1.54.92.06,1.66.88,1.6,1.77Z"/>
          <path class="cls-8" d="M496.41,535.8c-.13.92-1.02,1.58-1.94,1.45s-1.58-1.02-1.45-1.94c.13-.89,1.02-1.53,1.93-1.4s1.59,1,1.46,1.88Z"/>
          <path class="cls-8" d="M486.97,534.22c-.2.9-1.14,1.51-2.04,1.31-.9-.2-1.51-1.14-1.31-2.04.19-.88,1.12-1.45,2.03-1.25.9.2,1.51,1.11,1.32,1.99Z"/>
          <path class="cls-8" d="M477.65,531.96c-.26.89-1.24,1.42-2.13,1.16-.89-.26-1.42-1.24-1.16-2.13.25-.86,1.23-1.37,2.11-1.1.89.26,1.43,1.22,1.17,2.08Z"/>
          <path class="cls-8" d="M468.53,529.02c-.33.86-1.34,1.32-2.21,1s-1.32-1.34-1-2.21c.32-.84,1.32-1.27,2.19-.95.87.33,1.33,1.32,1.02,2.16Z"/>
          <path class="cls-8" d="M459.66,525.44c-.39.84-1.43,1.23-2.27.84-.84-.39-1.23-1.43-.84-2.27.38-.81,1.41-1.18,2.25-.79s1.24,1.41.86,2.22Z"/>
          <path class="cls-8" d="M451.04,521.22c-.45.81-1.52,1.12-2.33.67-.81-.45-1.12-1.52-.67-2.33.43-.79,1.49-1.07,2.3-.62.81.45,1.13,1.49.7,2.28Z"/>
          <path class="cls-8" d="M442.76,516.4c-.5.78-1.59,1.01-2.37.51-.78-.5-1.01-1.59-.5-2.37.49-.75,1.56-.96,2.34-.46.78.5,1.02,1.57.53,2.32Z"/>
          <path class="cls-8" d="M434.85,511.01c-.56.74-1.66.89-2.4.34s-.89-1.66-.34-2.4c.54-.72,1.63-.85,2.37-.29.74.56.91,1.64.37,2.36Z"/>
          <path class="cls-8" d="M427.32,505.06c-.61.7-1.72.77-2.42.17-.7-.61-.77-1.72-.16-2.42.59-.68,1.68-.73,2.38-.12.7.61.79,1.7.2,2.38Z"/>
          <path class="cls-8" d="M420.25,498.59c-.66.65-1.77.65-2.42,0-.65-.66-.65-1.77,0-2.42.64-.63,1.73-.61,2.38.05.65.66.67,1.75.03,2.38Z"/>
          <path class="cls-8" d="M413.65,491.65c-.7.6-1.81.52-2.42-.18-.6-.7-.52-1.81.18-2.42.68-.59,1.77-.49,2.37.21.6.7.54,1.79-.14,2.38Z"/>
          <path class="cls-8" d="M407.56,484.25c-.74.55-1.84.39-2.4-.35-.55-.74-.39-1.84.35-2.4.72-.54,1.8-.36,2.35.38.55.74.41,1.83-.31,2.36Z"/>
          <path class="cls-8" d="M402,476.43c-.78.5-1.87.26-2.37-.52-.5-.78-.26-1.87.52-2.37.76-.48,1.82-.23,2.32.55.5.78.28,1.85-.47,2.34Z"/>
          <path class="cls-8" d="M397.02,468.25c-.81.44-1.88.13-2.32-.69-.44-.81-.13-1.88.69-2.32.79-.43,1.83-.1,2.27.71.44.81.15,1.87-.64,2.3Z"/>
          <path class="cls-8" d="M392.64,459.74c-.84.38-1.89,0-2.27-.85s0-1.89.85-2.27c.82-.37,1.84.03,2.22.87s.02,1.87-.8,2.25Z"/>
          <path class="cls-8" d="M388.86,450.92c-.87.32-1.88-.14-2.2-1.01-.32-.87.14-1.88,1.01-2.2.84-.31,1.83.16,2.15,1.03.32.87-.12,1.87-.96,2.18Z"/>
        </g>
      </g>
    </g>
  </g>
  <g id="ClickGrid">
    <g id="grid-gridlines">
      <line class="cls-6" x1="975.77" y1="0" x2="975.77" y2="1080"/>
      <line class="cls-4" x1="-226.35" y1="134.32" x2="2592.38" y2="134.32"/>
      <line class="cls-4" x1="-226.35" y1="927.11" x2="2592.38" y2="927.11"/>
    </g>
  </g>
  <g id="Contornos_-_ClickGrid-2" data-name="Contornos - ClickGrid">
    <g id="grid-outlines">
      <path class="cls-6" d="M2113.07,632.72c-29.91,5.87-75.26,12.66-130.38,12.26-183.13-1.31-287.91-80.62-392.15-111.47-102.24-30.26-258.94-30.19-493.52,111.75,6.11-7.37,15.11-17.7,26.77-29.26,113.78-112.7,309.42-171.43,481.26-132.3,162.49,37.01,193.53,136.42,382.38,152.36,52.68,4.45,96.61.62,125.65-3.35Z"/>
    </g>
  </g>
  <g id="Alças_-_ClickGrid-2" data-name="Alças - ClickGrid">
    <g id="grid-handles">
      <line class="cls-6" x1="1982.69" y1="644.98" x2="1799.57" y2="643.67"/>
      <circle class="cls-3" cx="1799.57" cy="643.67" r="2.5"/>
      <line class="cls-6" x1="1590.54" y1="533.51" x2="1694.78" y2="564.36"/>
      <circle class="cls-3" cx="1694.78" cy="564.36" r="2.5"/>
      <line class="cls-6" x1="1590.54" y1="533.51" x2="1488.3" y2="503.25"/>
      <circle class="cls-3" cx="1488.3" cy="503.25" r="2.5"/>
      <circle class="cls-5" cx="1590.54" cy="533.51" r="2.5"/>
      <line class="cls-6" x1="1097.02" y1="645.26" x2="1331.6" y2="503.32"/>
      <circle class="cls-3" cx="1331.6" cy="503.32" r="2.5"/>
      <line class="cls-6" x1="1097.02" y1="645.26" x2="1103.13" y2="637.89"/>
      <circle class="cls-3" cx="1103.13" cy="637.89" r="2.5"/>
      <circle class="cls-5" cx="1097.02" cy="645.26" r="2.5"/>
      <line class="cls-6" x1="1123.79" y1="616.01" x2="1112.13" y2="627.56"/>
      <circle class="cls-3" cx="1112.13" cy="627.56" r="2.5"/>
      <line class="cls-6" x1="1123.79" y1="616.01" x2="1237.57" y2="503.3"/>
      <circle class="cls-3" cx="1237.57" cy="503.3" r="2.5"/>
      <circle class="cls-5" cx="1123.79" cy="616.01" r="2.5"/>
      <line class="cls-6" x1="1605.05" y1="483.71" x2="1433.21" y2="444.58"/>
      <circle class="cls-3" cx="1433.21" cy="444.58" r="2.5"/>
      <line class="cls-6" x1="1605.05" y1="483.71" x2="1767.54" y2="520.72"/>
      <circle class="cls-3" cx="1767.54" cy="520.72" r="2.5"/>
      <circle class="cls-5" cx="1605.05" cy="483.71" r="2.5"/>
      <line class="cls-6" x1="1987.43" y1="636.07" x2="1798.58" y2="620.14"/>
      <circle class="cls-3" cx="1798.58" cy="620.14" r="2.5"/>
    </g>
  </g>
  <g id="_Âncoras_-_ClickGrid-2" data-name="Âncoras - ClickGrid">
    <g id="grid-anchors">
      <circle class="cls-5" cx="1590.54" cy="533.51" r="2.5"/>
      <circle class="cls-5" cx="1097.02" cy="645.26" r="2.5"/>
      <circle class="cls-5" cx="1123.79" cy="616.01" r="2.5"/>
      <circle class="cls-5" cx="1605.05" cy="483.71" r="2.5"/>
    </g>
  </g>
</svg>