<?xml version="1.0" encoding="UTF-8"?>
<svg xmlns="http://www.w3.org/2000/svg" viewBox="0 0 1920 1080">
  <defs>
    <style>
      .cls-1 {
        fill: #333733;
      }

      .cls-1, .cls-2, .cls-3 {
        stroke-width: .75px;
      }

      .cls-1, .cls-2, .cls-3, .cls-4, .cls-5 {
        stroke: #1c1e1c;
        stroke-miterlimit: 10;
      }

      .cls-2 {
        fill: #1c1e1c;
      }

      .cls-3, .cls-4, .cls-5 {
        fill: none;
      }

      .cls-4 {
        stroke-width: 1.21px;
      }

      .cls-6 {
        fill: #f1eee9;
      }

      .cls-7 {
        fill: #a36d52;
      }

      .cls-8 {
        fill: #dad0c4;
      }
    </style>
  </defs>
  <g id="Camada_1" data-name="Camada 1">
    <rect class="cls-6" width="1920" height="1080"/>
    <g>
      <g>
        <path class="cls-7" d="M775.06,366.29c3.16,0,6.32-.02,9.48-.02-79.89,22.3-113.29-11.31-178.76-43.74-106.5-52.77-215.36,81.71-327.44,49.99,12.47.7,27.78.89,49.38-5.17,83.1-23.31,170.97-105.9,273.84-63.79,57.68,21.73,92.41,76.67,173.49,62.74Z"/>
        <path class="cls-7" d="M691.72,404.24c-7.7,15.43-32.53,60.14-84.88,83.03-32.47,14.2-61.36,13.81-67.77,13.63-6.91-.19-32.95-1.37-61.84-14.82-52.48-24.43-75.99-71.49-82.98-87.1,3.48,6.51,8.64,15.26,15.87,24.87,8.52,11.31,31.45,41.06,70.21,57.95,58.55,25.51,114.77,4.68,123.81,1.16,55.97-21.82,81.34-66.79,87.58-78.71Z"/>
        <path class="cls-7" d="M592.56,450.62c-16.16,7.27-30.04,9.62-39.05,10.48-38.29,3.64-82.25-10.85-106.45-43.23-4.11-5.5-6.85-10.44-8.47-13.64,40.25,43.35,95.86,62.28,153.97,46.39Z"/>
        <path class="cls-7" d="M517.99,370.62l-9.93-2.16,9.93-2.16c11.42-2.48,20.35-11.4,22.83-22.83l2.16-9.93,2.16,9.93c2.48,11.42,11.4,20.35,22.83,22.83l9.93,2.16-9.93,2.16c-11.42,2.48-20.35,11.4-22.83,22.83l-2.16,9.93-2.16-9.93c-2.48-11.42-11.4-20.35-22.83-22.83Z"/>
        <path class="cls-7" d="M408.05,254.49c10.22-13.9,42.3-53.72,97.79-67.35,34.42-8.46,62.82-3.15,69.1-1.89,6.77,1.36,32.24,6.97,58.41,25.14,47.55,33.01,62.7,83.39,66.93,99.97-2.32-7.01-5.91-16.51-11.4-27.21-6.47-12.6-24-45.82-59.31-69.06-53.35-35.12-112.29-24.17-121.8-22.24-58.87,11.96-91.53,51.96-99.71,62.64Z"/>
      </g>
      <g>
        <path class="cls-7" d="M282.94,667.33c4.01-5.09,4.77-8.07,4.77-15.02v-60.33c0-6.95-.76-9.93-4.77-15.02v-.25h18.5v.25c-4.01,5.09-4.77,7.94-4.77,15.02v73.61l23.84-.37c8.22-.12,11.65-3.97,20.98-16.38l1.15.25-4.38,18.5h-55.32v-.25Z"/>
        <path class="cls-7" d="M350.5,667.58v-.24c4.01-4.29,5.72-6.99,8.39-14.35l27.85-76.28h2.86l28.05,77.01c3.04,8.34,4.77,10.55,8.2,13.61v.24h-17.94v-.24c2.3-2.33,3.06-7.11.57-13.86l-7.05-19.74h-32.06l-6.29,17.66c-3.04,8.71-.95,13.36,2.48,15.94v.24h-15.07ZM400.46,631.53l-15.07-42.06-15.25,42.06h30.32Z"/>
        <path class="cls-7" d="M459.1,667.58h-18.5v-.25c3.99-5.09,4.77-8.07,4.77-15.02v-60.33c0-6.95-.78-9.93-4.77-15.02v-.25h26.12c21.37,0,32.43,9.06,32.43,21.97,0,10.67-7.83,19.74-20.22,23.71l17.94,31.53c4.57,7.94,7.05,11.05,12.97,13.28v.37h-15.45l-24.23-43.2h-15.83v27.93c0,7.08.76,9.93,4.77,15.02v.25ZM454.33,579.07v43.07h11.82c16.98,0,23.08-11.3,23.08-23.46s-7.44-19.74-23.84-19.74c-4.19,0-7.44.13-11.06.13Z"/>
        <path class="cls-7" d="M528.75,667.33c3.99-5.09,4.77-8.07,4.77-15.02v-60.33c0-6.95-.78-9.93-4.77-15.02v-.25h18.5v.25c-4.01,5.09-4.77,7.94-4.77,15.02v60.33c0,7.08.76,9.93,4.77,15.02v.25h-18.5v-.25Z"/>
        <path class="cls-7" d="M621.08,594.12l-1.15.24c-7.63-12.28-15.83-15.5-23.84-15.5-11.45,0-17.18,6.32-17.18,13.83,0,11.21,12.6,18.01,24.62,24.8,11.63,6.68,23.84,14.31,23.84,27.55,0,14.55-14.51,22.54-32.62,22.54-7.07,0-15.84-1.07-22.89-2.62l-2.86-16.1,1.13-.24c8.98,11.81,17.36,16.81,27.86,16.81,13.53,0,21.54-8.58,21.54-18.01,0-11.45-11.06-18.96-22.5-25.52-12.02-6.92-25.18-14.31-25.18-26.48,0-11.33,11.45-18.72,28.42-18.72,5.34,0,12.39.84,17.92,1.79l2.87,15.62Z"/>
        <path class="cls-7" d="M692.26,594.12l-1.15.24c-7.63-12.28-15.83-15.5-23.84-15.5-11.45,0-17.16,6.32-17.16,13.83,0,11.21,12.58,18.01,24.6,24.8,11.63,6.68,23.84,14.31,23.84,27.55,0,14.55-14.49,22.54-32.62,22.54-7.05,0-15.83-1.07-22.89-2.62l-2.86-16.1,1.15-.24c8.96,11.81,17.36,16.81,27.85,16.81,13.54,0,21.56-8.58,21.56-18.01,0-11.45-11.07-18.96-22.5-25.52-12.02-6.92-25.19-14.31-25.19-26.48,0-11.33,11.45-18.72,28.42-18.72,5.34,0,12.41.84,17.94,1.79l2.86,15.62Z"/>
        <path class="cls-7" d="M706.26,667.58v-.24c4.01-4.29,5.72-6.99,8.39-14.35l27.85-76.28h2.86l28.05,77.01c3.04,8.34,4.77,10.55,8.2,13.61v.24h-17.94v-.24c2.3-2.33,3.06-7.11.57-13.86l-7.05-19.74h-32.06l-6.29,17.66c-3.04,8.71-.95,13.36,2.48,15.94v.24h-15.07ZM756.22,631.53l-15.07-42.06-15.25,42.06h30.32Z"/>
        <path class="cls-7" d="M294.99,795.05c3.81-5.22,4.77-8.19,4.77-15.15v-65.79l-33.95,78.46h-2.1l-34.34-78.46.39,64.18c0,7.57,1.71,10.8,8.78,16.76v.25h-19.09v-.25c5.73-5.96,6.88-9.19,6.88-16.76v-59.46c0-7.08-1.34-9.94-7.64-14.16v-.25h15.45l33.38,76.34,33-76.34h15.83v.25c-6.1,4.22-7.63,6.95-7.63,14.65v60.58c0,7.08.95,9.93,4.77,15.15v.25h-18.5v-.25Z"/>
        <path class="cls-7" d="M327.99,795.3v-.24c4.01-4.29,5.73-6.99,8.4-14.35l27.85-76.28h2.86l28.03,77.01c3.06,8.34,4.77,10.55,8.2,13.61v.24h-17.92v-.24c2.28-2.33,3.04-7.11.57-13.86l-7.07-19.74h-32.04l-6.29,17.66c-3.06,8.71-.96,13.36,2.47,15.94v.24h-15.07ZM377.97,759.25l-15.07-42.06-15.27,42.06h30.33Z"/>
        <path class="cls-7" d="M480.07,789.93c-3.25,1.67-15.45,5.36-25.94,5.36-27.47,0-41.96-20.03-41.96-45.55s16.03-45.32,43.88-45.32c9.35,0,17.55,2.15,23.65,3.82l2.47,13.95-1.13.24c-8.78-11.21-16.98-15.86-27.29-15.86-20.78,0-31.28,18.72-31.28,43.17s10.5,43.41,31.67,43.41c13.15,0,20.8-7.63,27.27-20.03l1.15.24-2.48,16.58Z"/>
        <path class="cls-7" d="M530.56,749.37h-20.72v30.66c0,7.08.72,9.93,4.54,15.02v.25h-17.6v-.25c3.8-5.09,4.54-8.07,4.54-15.02v-60.33c0-6.95-.74-9.93-4.54-15.02v-.25h17.6v.25c-3.81,5.09-4.54,7.94-4.54,15.02v27.44h46.08v-27.44c0-6.95-.72-9.93-4.54-15.02v-.25h17.61v.25c-3.81,5.09-4.55,7.94-4.55,15.02v60.33c0,7.08.74,9.93,4.55,15.02v.25h-17.61v-.25c3.81-5.09,4.54-8.07,4.54-15.02v-30.66h-25.37"/>
        <path class="cls-7" d="M582.43,795.3v-.24c4.01-4.29,5.73-6.99,8.4-14.35l27.85-76.28h2.86l28.03,77.01c3.06,8.34,4.77,10.55,8.2,13.61v.24h-17.92v-.24c2.28-2.33,3.04-7.11.57-13.86l-7.07-19.74h-32.04l-6.29,17.66c-3.06,8.71-.96,13.36,2.47,15.94v.24h-15.07ZM632.41,759.25l-15.07-42.06-15.27,42.06h30.33Z"/>
        <path class="cls-7" d="M672.69,794.75c4.01-5.29,4.77-8.25,4.77-15.38v-58.82c0-7.14-.76-10.09-4.77-15.38v-.25c12.21,0,13.54-.49,26.14-.49,30.89,0,49.78,16,49.78,45.16s-18.7,45.41-51.31,45.41h-24.6v-.25ZM697.68,706.89l-11.26-.12v85.88l9.74-.12c30.13-.5,42.15-14.4,42.15-41.22,0-30.39-13.93-44.29-40.63-44.42Z"/>
        <path class="cls-7" d="M764.09,749.71c0-25.43,17.53-45.28,40.05-45.28s40.05,19.61,40.05,45.28-17.55,45.28-40.05,45.28-40.05-19.61-40.05-45.28ZM833.9,749.71c0-24.72-10.31-43.14-29.76-43.14s-29.76,18.66-29.76,43.14,10.3,43.14,29.76,43.14,29.76-18.42,29.76-43.14Z"/>
        <g>
          <path class="cls-7" d="M307.13,897.1v-26.04h8.91c2.03,0,3.69.37,5.01,1.11,1.31.74,2.28,1.73,2.92,2.98s.95,2.65.95,4.19-.32,2.96-.95,4.21-1.6,2.26-2.91,3.01c-1.31.74-2.98,1.12-5,1.12h-6.31v-2.92h6.15c1.37,0,2.48-.23,3.32-.71.84-.47,1.45-1.12,1.83-1.94.38-.82.57-1.75.57-2.77s-.19-1.94-.57-2.75c-.38-.81-.99-1.45-1.84-1.91-.84-.47-1.96-.7-3.34-.7h-5.42v23.12h-3.32Z"/>
          <path class="cls-7" d="M338.51,897.1v-26.04h3.32v23.1h12.06v2.94h-15.38Z"/>
          <path class="cls-7" d="M365.02,897.1l9.46-26.04h3.84l9.58,26.04h-3.49l-5.52-15.45c-.34-.95-.73-2.15-1.18-3.57-.45-1.43-.99-3.25-1.63-5.46h.63c-.63,2.24-1.17,4.08-1.63,5.53-.46,1.45-.84,2.62-1.14,3.5l-5.37,15.45h-3.53ZM369.77,889.83v-2.9h13.37v2.9h-13.37ZM375.07,868.51l2.45-5.14h3.51l-3.39,5.14h-2.57Z"/>
          <path class="cls-7" d="M408.81,897.56c-1.88,0-3.5-.3-4.89-.91-1.38-.6-2.46-1.45-3.24-2.54-.78-1.09-1.22-2.36-1.33-3.82h3.4c.09.98.43,1.79,1,2.42s1.3,1.1,2.19,1.41c.89.31,1.84.46,2.86.46,1.17,0,2.23-.19,3.17-.58.94-.38,1.68-.92,2.23-1.62s.82-1.51.82-2.43c0-.84-.24-1.52-.71-2.04-.47-.52-1.1-.95-1.88-1.29-.78-.34-1.64-.63-2.57-.89l-3.15-.89c-2.1-.59-3.73-1.44-4.89-2.55s-1.75-2.52-1.75-4.24c0-1.47.39-2.76,1.19-3.85.79-1.1,1.86-1.96,3.22-2.56,1.35-.6,2.87-.91,4.54-.91s3.23.3,4.54.91c1.32.6,2.36,1.43,3.12,2.47s1.17,2.22,1.21,3.54h-3.25c-.15-1.27-.76-2.25-1.82-2.95s-2.37-1.04-3.91-1.04c-1.12,0-2.1.18-2.95.55-.84.37-1.5.87-1.97,1.5-.46.63-.7,1.36-.7,2.18,0,.91.28,1.64.85,2.19s1.24.98,2.01,1.29,1.47.55,2.1.73l2.61.71c.7.18,1.47.44,2.32.77s1.65.76,2.42,1.3c.77.54,1.4,1.23,1.9,2.06s.74,1.85.74,3.07c0,1.42-.37,2.7-1.11,3.84s-1.82,2.04-3.23,2.71c-1.41.66-3.12.99-5.12.99Z"/>
          <path class="cls-7" d="M430.34,874v-2.94h19.68v2.94h-8.16v23.1h-3.33v-23.1h-8.19Z"/>
          <path class="cls-7" d="M466.71,871.06v26.04h-3.33v-26.04h3.33Z"/>
          <path class="cls-7" d="M492.05,897.45c-2.23,0-4.2-.54-5.94-1.62-1.75-1.08-3.12-2.62-4.11-4.61-1-2-1.5-4.37-1.5-7.12s.5-5.14,1.5-7.14c1-2,2.37-3.53,4.11-4.62,1.74-1.08,3.71-1.62,5.94-1.62,1.32,0,2.57.19,3.73.57,1.17.39,2.23.95,3.16,1.69.93.74,1.71,1.64,2.33,2.69.63,1.05,1.06,2.25,1.29,3.59h-3.33c-.18-.89-.5-1.68-.95-2.36-.45-.67-.99-1.25-1.65-1.71-.64-.46-1.36-.81-2.14-1.05s-1.6-.35-2.45-.35c-1.56,0-2.97.39-4.22,1.19s-2.26,1.95-3,3.48c-.73,1.53-1.1,3.41-1.1,5.64s.38,4.08,1.12,5.62c.74,1.53,1.74,2.69,3,3.48,1.26.78,2.66,1.18,4.2,1.18.85,0,1.67-.12,2.45-.36.78-.24,1.5-.59,2.14-1.05.66-.46,1.2-1.03,1.65-1.71.45-.68.77-1.46.95-2.35h3.33c-.22,1.33-.65,2.52-1.27,3.56s-1.4,1.95-2.34,2.7c-.93.74-1.98,1.31-3.16,1.7-1.16.39-2.42.58-3.74.58Z"/>
          <path class="cls-7" d="M513.24,897.1l9.46-26.04h3.84l9.58,26.04h-3.49l-5.52-15.45c-.34-.95-.73-2.15-1.19-3.57-.44-1.43-.99-3.25-1.63-5.46h.63c-.63,2.24-1.18,4.08-1.64,5.53-.46,1.45-.84,2.62-1.14,3.5l-5.37,15.45h-3.52ZM517.99,889.83v-2.9h13.37v2.9h-13.37Z"/>
          <path class="cls-7" d="M577.81,897.45c-2.22,0-4.2-.54-5.95-1.62-1.74-1.08-3.11-2.62-4.11-4.61-1-2-1.5-4.37-1.5-7.12s.5-5.14,1.5-7.14c1.01-2,2.38-3.53,4.11-4.62,1.75-1.08,3.73-1.62,5.95-1.62s4.21.54,5.95,1.62c1.74,1.09,3.1,2.63,4.09,4.62,1,2,1.5,4.38,1.5,7.14s-.5,5.12-1.5,7.12c-1,2-2.36,3.53-4.09,4.61s-3.71,1.62-5.95,1.62ZM577.81,894.37c1.56,0,2.96-.39,4.21-1.18,1.25-.79,2.24-1.95,2.98-3.48.74-1.53,1.12-3.4,1.12-5.62s-.38-4.12-1.12-5.65c-.74-1.53-1.73-2.69-2.98-3.48-1.26-.78-2.66-1.18-4.21-1.18s-2.97.39-4.22,1.19-2.26,1.95-3,3.48c-.74,1.53-1.11,3.41-1.11,5.64s.37,4.08,1.11,5.61c.74,1.52,1.74,2.68,3,3.47s2.67,1.19,4.22,1.19Z"/>
          <path class="cls-7" d="M613.68,897.45c-2.22,0-4.2-.54-5.95-1.62-1.74-1.08-3.11-2.62-4.1-4.61-.99-2-1.49-4.37-1.49-7.12s.5-5.14,1.49-7.14c1-2,2.37-3.53,4.1-4.62,1.75-1.08,3.73-1.62,5.95-1.62,1.32,0,2.56.19,3.73.57,1.17.39,2.22.95,3.16,1.69.93.74,1.71,1.64,2.34,2.69.62,1.05,1.04,2.25,1.28,3.59h-3.32c-.19-.89-.51-1.68-.96-2.36s-1-1.25-1.64-1.71c-.65-.46-1.36-.81-2.15-1.05-.78-.23-1.59-.35-2.45-.35-1.56,0-2.97.39-4.22,1.19s-2.26,1.95-2.99,3.48c-.74,1.53-1.11,3.41-1.11,5.64s.37,4.08,1.11,5.62c.74,1.53,1.74,2.69,3,3.48,1.26.78,2.67,1.18,4.21,1.18.86,0,1.67-.12,2.45-.36.79-.24,1.5-.59,2.15-1.05.64-.46,1.19-1.03,1.64-1.71.45-.68.77-1.46.96-2.35h3.32c-.22,1.33-.64,2.52-1.27,3.56s-1.4,1.95-2.33,2.7c-.94.74-1.99,1.31-3.16,1.7-1.18.39-2.43.58-3.75.58Z"/>
          <path class="cls-7" d="M647.99,897.52c-2.05,0-3.83-.4-5.37-1.21-1.54-.8-2.72-1.9-3.55-3.3-.84-1.4-1.26-2.99-1.26-4.77v-17.18h3.32v16.91c0,1.25.28,2.36.84,3.33.55.97,1.34,1.74,2.37,2.3,1.03.56,2.25.84,3.66.84s2.65-.28,3.66-.84c1.02-.56,1.81-1.32,2.35-2.3.55-.97.82-2.08.82-3.33v-16.91h3.33v17.18c0,1.78-.42,3.37-1.26,4.77-.84,1.4-2.02,2.5-3.54,3.3-1.52.81-3.3,1.21-5.35,1.21Z"/>
          <path class="cls-7" d="M672.95,897.1v-26.04h3.32v23.1h12.06v2.94h-15.38Z"/>
          <path class="cls-7" d="M699.47,897.1l9.45-26.04h3.85l9.57,26.04h-3.49l-5.51-15.45c-.34-.95-.74-2.15-1.19-3.57-.45-1.43-.99-3.25-1.63-5.46h.62c-.62,2.24-1.17,4.08-1.63,5.53-.46,1.45-.85,2.62-1.15,3.5l-5.36,15.45h-3.52ZM704.22,889.83v-2.9h13.36v2.9h-13.36Z"/>
          <path class="cls-7" d="M734.92,897.1v-26.04h8.91c2.03,0,3.69.34,5.01,1.04,1.3.69,2.28,1.65,2.92,2.86.63,1.21.95,2.59.95,4.14s-.32,2.92-.95,4.11c-.64,1.19-1.61,2.12-2.92,2.79-1.3.67-2.98,1-4.99,1h-7.08v-2.95h6.92c1.38,0,2.48-.2,3.32-.6.83-.4,1.44-.97,1.82-1.71.39-.74.58-1.62.58-2.63s-.19-1.94-.58-2.7c-.38-.76-1-1.36-1.84-1.78s-1.94-.63-3.34-.63h-5.41v23.12h-3.32ZM749.87,897.1l-6.29-11.72h3.73l6.39,11.72h-3.83Z"/>
        </g>
      </g>
    </g>
  </g>
  <g id="ClickGrid">
    <g>
      <g>
        <path class="cls-8" d="M2323.36,591.93c7.87-.02,15.73-.04,23.6-.06-198.85,55.51-282-28.14-444.95-108.88-265.09-131.35-536.05,203.38-815.04,124.43,31.04,1.75,69.15,2.2,122.92-12.88,206.85-58.02,425.56-263.6,681.62-158.78,143.56,54.09,230.02,190.83,431.84,156.17Z"/>
        <path class="cls-8" d="M2115.91,686.39c-19.16,38.42-80.97,149.69-211.28,206.66-80.83,35.34-152.74,34.37-168.68,33.93-17.19-.47-82.03-3.41-153.93-36.88-130.62-60.81-189.14-177.95-206.55-216.81,8.67,16.21,21.5,37.99,39.51,61.9,21.21,28.16,78.29,102.2,174.76,144.24,145.75,63.51,285.67,11.66,308.17,2.89,139.31-54.3,202.45-166.26,218.01-195.92Z"/>
        <path class="cls-8" d="M1869.1,801.85c-40.23,18.1-74.77,23.96-97.2,26.09-95.31,9.06-204.74-27-264.97-107.6-10.23-13.68-17.04-25.99-21.09-33.96,100.19,107.9,238.61,155.03,383.26,115.48Z"/>
        <path class="cls-8" d="M1683.49,602.71l-24.73-5.37,24.73-5.37c28.44-6.18,50.65-28.39,56.82-56.82l5.37-24.73,5.37,24.73c6.18,28.44,28.39,50.65,56.82,56.82l24.73,5.37-24.73,5.37c-28.44,6.18-50.65,28.39-56.82,56.82l-5.37,24.73-5.37-24.73c-6.18-28.44-28.39-50.65-56.82-56.82Z"/>
        <path class="cls-8" d="M1409.82,313.64c25.43-34.59,105.29-133.71,243.4-167.65,85.66-21.05,156.36-7.85,172-4.7,16.86,3.39,80.25,17.34,145.4,62.57,118.35,82.17,156.06,207.58,166.6,248.83-5.78-17.45-14.72-41.1-28.39-67.72-16.1-31.36-59.74-114.05-147.63-171.9-132.8-87.41-279.51-60.16-303.17-55.35-146.52,29.77-227.82,129.33-248.2,155.92Z"/>
      </g>
      <g id="grid-outlines">
        <g>
          <path class="cls-3" d="M2323.36,591.93c7.87-.02,15.73-.04,23.6-.06-198.85,55.51-282-28.14-444.95-108.88-265.09-131.35-536.05,203.38-815.04,124.43,31.04,1.75,69.15,2.2,122.92-12.88,206.85-58.02,425.56-263.6,681.62-158.78,143.56,54.09,230.02,190.83,431.84,156.17Z"/>
          <path class="cls-3" d="M2115.91,686.39c-19.16,38.42-80.97,149.69-211.28,206.66-80.83,35.34-152.74,34.37-168.68,33.93-17.19-.47-82.03-3.41-153.93-36.88-130.62-60.81-189.14-177.95-206.55-216.81,8.67,16.21,21.5,37.99,39.51,61.9,21.21,28.16,78.29,102.2,174.76,144.24,145.75,63.51,285.67,11.66,308.17,2.89,139.31-54.3,202.45-166.26,218.01-195.92Z"/>
          <path class="cls-3" d="M1869.1,801.85c-40.23,18.1-74.77,23.96-97.2,26.09-95.31,9.06-204.74-27-264.97-107.6-10.23-13.68-17.04-25.99-21.09-33.96,100.19,107.9,238.61,155.03,383.26,115.48Z"/>
          <path class="cls-3" d="M1683.49,602.71l-24.73-5.37,24.73-5.37c28.44-6.18,50.65-28.39,56.82-56.82l5.37-24.73,5.37,24.73c6.18,28.44,28.39,50.65,56.82,56.82l24.73,5.37-24.73,5.37c-28.44,6.18-50.65,28.39-56.82,56.82l-5.37,24.73-5.37-24.73c-6.18-28.44-28.39-50.65-56.82-56.82Z"/>
          <path class="cls-3" d="M1409.82,313.64c25.43-34.59,105.29-133.71,243.4-167.65,85.66-21.05,156.36-7.85,172-4.7,16.86,3.39,80.25,17.34,145.4,62.57,118.35,82.17,156.06,207.58,166.6,248.83-5.78-17.45-14.72-41.1-28.39-67.72-16.1-31.36-59.74-114.05-147.63-171.9-132.8-87.41-279.51-60.16-303.17-55.35-146.52,29.77-227.82,129.33-248.2,155.92Z"/>
        </g>
      </g>
      <g id="grid-handles">
        <line class="cls-3" x1="1409.82" y1="313.64" x2="1430.2" y2="287.06"/>
        <circle class="cls-1" cx="1430.2" cy="287.06" r="2.5"/>
        <line class="cls-3" x1="1409.82" y1="313.64" x2="1435.25" y2="279.05"/>
        <circle class="cls-1" cx="1435.25" cy="279.05" r="2.5"/>
        <circle class="cls-2" cx="1409.82" cy="313.64" r="2.5"/>
        <line class="cls-3" x1="1653.22" y1="146" x2="1515.11" y2="179.94"/>
        <circle class="cls-1" cx="1515.11" cy="179.94" r="2.5"/>
        <line class="cls-3" x1="1653.22" y1="146" x2="1738.88" y2="124.94"/>
        <circle class="cls-1" cx="1738.88" cy="124.94" r="2.5"/>
        <circle class="cls-2" cx="1653.22" cy="146" r="2.5"/>
        <line class="cls-3" x1="1825.22" y1="141.3" x2="1809.58" y2="138.15"/>
        <circle class="cls-1" cx="1809.58" cy="138.15" r="2.5"/>
        <line class="cls-3" x1="1825.22" y1="141.3" x2="1842.08" y2="144.69"/>
        <circle class="cls-1" cx="1842.08" cy="144.69" r="2.5"/>
        <circle class="cls-2" cx="1825.22" cy="141.3" r="2.5"/>
        <line class="cls-3" x1="1970.61" y1="203.87" x2="1905.46" y2="158.63"/>
        <circle class="cls-1" cx="1905.46" cy="158.63" r="2.5"/>
        <line class="cls-3" x1="1961.19" y1="213.07" x2="1828.39" y2="125.66"/>
        <circle class="cls-1" cx="1828.39" cy="125.66" r="2.5"/>
        <line class="cls-3" x1="1658.02" y1="157.72" x2="1681.68" y2="152.92"/>
        <circle class="cls-1" cx="1681.68" cy="152.92" r="2.5"/>
        <line class="cls-3" x1="1658.02" y1="157.72" x2="1511.49" y2="187.5"/>
        <circle class="cls-1" cx="1511.49" cy="187.5" r="2.5"/>
        <circle class="cls-2" cx="1658.02" cy="157.72" r="2.5"/>
        <line class="cls-3" x1="1683.49" y1="602.71" x2="1711.93" y2="608.89"/>
        <circle class="cls-1" cx="1711.93" cy="608.89" r="2.5"/>
        <circle class="cls-2" cx="1683.49" cy="602.71" r="2.5"/>
        <line class="cls-3" x1="1683.49" y1="591.97" x2="1711.93" y2="585.79"/>
        <circle class="cls-1" cx="1711.93" cy="585.79" r="2.5"/>
        <circle class="cls-2" cx="1683.49" cy="591.97" r="2.5"/>
        <line class="cls-3" x1="1740.31" y1="535.15" x2="1734.14" y2="563.58"/>
        <circle class="cls-1" cx="1734.14" cy="563.58" r="2.5"/>
        <circle class="cls-2" cx="1740.31" cy="535.15" r="2.5"/>
        <line class="cls-3" x1="1751.06" y1="535.15" x2="1757.23" y2="563.58"/>
        <circle class="cls-1" cx="1757.23" cy="563.58" r="2.5"/>
        <circle class="cls-2" cx="1751.06" cy="535.15" r="2.5"/>
        <line class="cls-3" x1="1807.88" y1="591.97" x2="1779.44" y2="585.79"/>
        <circle class="cls-1" cx="1779.44" cy="585.79" r="2.5"/>
        <circle class="cls-2" cx="1807.88" cy="591.97" r="2.5"/>
        <line class="cls-3" x1="1807.88" y1="602.71" x2="1779.44" y2="608.89"/>
        <circle class="cls-1" cx="1779.44" cy="608.89" r="2.5"/>
        <circle class="cls-2" cx="1807.88" cy="602.71" r="2.5"/>
        <line class="cls-3" x1="1751.06" y1="659.53" x2="1757.23" y2="631.1"/>
        <circle class="cls-1" cx="1757.23" cy="631.1" r="2.5"/>
        <circle class="cls-2" cx="1751.06" cy="659.53" r="2.5"/>
        <line class="cls-3" x1="1740.31" y1="659.53" x2="1734.14" y2="631.1"/>
        <circle class="cls-1" cx="1734.14" cy="631.1" r="2.5"/>
        <circle class="cls-2" cx="1740.31" cy="659.53" r="2.5"/>
        <line class="cls-3" x1="1869.1" y1="801.85" x2="1724.46" y2="841.4"/>
        <circle class="cls-1" cx="1724.46" cy="841.4" r="2.5"/>
        <line class="cls-3" x1="1869.1" y1="801.85" x2="1828.87" y2="819.95"/>
        <circle class="cls-1" cx="1828.87" cy="819.95" r="2.5"/>
        <circle class="cls-2" cx="1869.1" cy="801.85" r="2.5"/>
        <line class="cls-3" x1="1771.91" y1="827.93" x2="1794.33" y2="825.8"/>
        <circle class="cls-1" cx="1794.33" cy="825.8" r="2.5"/>
        <line class="cls-3" x1="1771.91" y1="827.93" x2="1676.6" y2="837"/>
        <circle class="cls-1" cx="1676.6" cy="837" r="2.5"/>
        <circle class="cls-2" cx="1771.91" cy="827.93" r="2.5"/>
        <line class="cls-3" x1="1506.93" y1="720.33" x2="1567.17" y2="800.93"/>
        <circle class="cls-1" cx="1567.17" cy="800.93" r="2.5"/>
        <line class="cls-3" x1="1506.93" y1="720.33" x2="1496.71" y2="706.65"/>
        <circle class="cls-1" cx="1496.71" cy="706.65" r="2.5"/>
        <circle class="cls-2" cx="1506.93" cy="720.33" r="2.5"/>
        <line class="cls-3" x1="1485.84" y1="686.37" x2="1489.89" y2="694.34"/>
        <circle class="cls-1" cx="1489.89" cy="694.34" r="2.5"/>
        <line class="cls-3" x1="1485.84" y1="686.37" x2="1586.03" y2="794.27"/>
        <circle class="cls-1" cx="1586.03" cy="794.27" r="2.5"/>
        <circle class="cls-2" cx="1485.84" cy="686.37" r="2.5"/>
        <line class="cls-3" x1="1904.63" y1="893.06" x2="2034.94" y2="836.08"/>
        <line class="cls-3" x1="1904.63" y1="893.06" x2="1823.81" y2="928.4"/>
        <circle class="cls-1" cx="1823.81" cy="928.4" r="2.5"/>
        <circle class="cls-2" cx="1904.63" cy="893.06" r="2.5"/>
        <line class="cls-3" x1="1735.95" y1="926.99" x2="1751.89" y2="927.43"/>
        <circle class="cls-1" cx="1751.89" cy="927.43" r="2.5"/>
        <line class="cls-3" x1="1735.95" y1="926.99" x2="1718.76" y2="926.52"/>
        <circle class="cls-1" cx="1718.76" cy="926.52" r="2.5"/>
        <circle class="cls-2" cx="1735.95" cy="926.99" r="2.5"/>
        <line class="cls-3" x1="1582.02" y1="890.11" x2="1653.92" y2="923.58"/>
        <circle class="cls-1" cx="1653.92" cy="923.58" r="2.5"/>
        <line class="cls-3" x1="1582.02" y1="890.11" x2="1451.4" y2="829.3"/>
        <circle class="cls-1" cx="1451.4" cy="829.3" r="2.5"/>
        <circle class="cls-2" cx="1582.02" cy="890.11" r="2.5"/>
        <line class="cls-3" x1="1375.47" y1="673.3" x2="1392.88" y2="712.15"/>
        <circle class="cls-1" cx="1392.88" cy="712.15" r="2.5"/>
        <line class="cls-3" x1="1375.47" y1="673.3" x2="1384.13" y2="689.51"/>
        <circle class="cls-1" cx="1384.13" cy="689.51" r="2.5"/>
        <circle class="cls-2" cx="1375.47" cy="673.3" r="2.5"/>
        <line class="cls-3" x1="1414.97" y1="735.19" x2="1396.97" y2="711.29"/>
        <circle class="cls-1" cx="1396.97" cy="711.29" r="2.5"/>
        <line class="cls-3" x1="1414.97" y1="735.19" x2="1436.18" y2="763.35"/>
        <circle class="cls-1" cx="1436.18" cy="763.35" r="2.5"/>
        <circle class="cls-2" cx="1414.97" cy="735.19" r="2.5"/>
        <line class="cls-3" x1="1589.74" y1="879.43" x2="1493.27" y2="837.4"/>
        <circle class="cls-1" cx="1493.27" cy="837.4" r="2.5"/>
        <line class="cls-3" x1="1589.74" y1="879.43" x2="1735.48" y2="942.94"/>
        <circle class="cls-1" cx="1735.48" cy="942.94" r="2.5"/>
        <circle class="cls-2" cx="1589.74" cy="879.43" r="2.5"/>
        <line class="cls-3" x1="1897.91" y1="882.32" x2="1875.41" y2="891.09"/>
        <circle class="cls-1" cx="1875.41" cy="891.09" r="2.5"/>
        <line class="cls-3" x1="1897.91" y1="882.32" x2="2037.21" y2="828.02"/>
        <circle class="cls-2" cx="1897.91" cy="882.32" r="2.5"/>
        <line class="cls-3" x1="1902.01" y1="482.99" x2="2064.95" y2="563.72"/>
        <line class="cls-3" x1="1902.01" y1="482.99" x2="1636.92" y2="351.64"/>
        <circle class="cls-1" cx="1636.92" cy="351.64" r="2.5"/>
        <circle class="cls-2" cx="1902.01" cy="482.99" r="2.5"/>
        <line class="cls-3" x1="1086.98" y1="607.42" x2="1365.96" y2="686.37"/>
        <circle class="cls-1" cx="1365.96" cy="686.37" r="2.5"/>
        <line class="cls-3" x1="1086.98" y1="607.42" x2="1118.02" y2="609.17"/>
        <circle class="cls-1" cx="1118.02" cy="609.17" r="2.5"/>
        <circle class="cls-2" cx="1086.98" cy="607.42" r="2.5"/>
        <line class="cls-3" x1="1209.9" y1="594.54" x2="1156.13" y2="609.62"/>
        <circle class="cls-1" cx="1156.13" cy="609.62" r="2.5"/>
        <line class="cls-3" x1="1209.9" y1="594.54" x2="1416.75" y2="536.52"/>
        <circle class="cls-1" cx="1416.75" cy="536.52" r="2.5"/>
        <circle class="cls-2" cx="1209.9" cy="594.54" r="2.5"/>
        <line class="cls-3" x1="1891.52" y1="435.76" x2="1635.46" y2="330.94"/>
        <circle class="cls-1" cx="1635.46" cy="330.94" r="2.5"/>
        <line class="cls-3" x1="1891.52" y1="435.76" x2="2035.08" y2="489.85"/>
        <circle class="cls-2" cx="1891.52" cy="435.76" r="2.5"/>
      </g>
      <g id="grid-anchors">
        <circle class="cls-2" cx="1409.82" cy="313.64" r="2.5"/>
        <circle class="cls-2" cx="1653.22" cy="146" r="2.5"/>
        <circle class="cls-2" cx="1825.22" cy="141.3" r="2.5"/>
        <circle class="cls-2" cx="1658.02" cy="157.72" r="2.5"/>
        <circle class="cls-2" cx="1683.49" cy="602.71" r="2.5"/>
        <circle class="cls-2" cx="1658.77" cy="597.34" r="2.5"/>
        <circle class="cls-2" cx="1683.49" cy="591.97" r="2.5"/>
        <circle class="cls-2" cx="1740.31" cy="535.15" r="2.5"/>
        <circle class="cls-2" cx="1745.68" cy="510.42" r="2.5"/>
        <circle class="cls-2" cx="1751.06" cy="535.15" r="2.5"/>
        <circle class="cls-2" cx="1807.88" cy="591.97" r="2.5"/>
        <circle class="cls-2" cx="1832.6" cy="597.34" r="2.5"/>
        <circle class="cls-2" cx="1807.88" cy="602.71" r="2.5"/>
        <circle class="cls-2" cx="1751.06" cy="659.53" r="2.5"/>
        <circle class="cls-2" cx="1745.68" cy="684.26" r="2.5"/>
        <circle class="cls-2" cx="1740.31" cy="659.53" r="2.5"/>
        <circle class="cls-2" cx="1869.1" cy="801.85" r="2.5"/>
        <circle class="cls-2" cx="1771.91" cy="827.93" r="2.5"/>
        <circle class="cls-2" cx="1506.93" cy="720.33" r="2.5"/>
        <circle class="cls-2" cx="1485.84" cy="686.37" r="2.5"/>
        <circle class="cls-2" cx="1904.63" cy="893.06" r="2.5"/>
        <circle class="cls-2" cx="1735.95" cy="926.99" r="2.5"/>
        <circle class="cls-2" cx="1582.02" cy="890.11" r="2.5"/>
        <circle class="cls-2" cx="1375.47" cy="673.3" r="2.5"/>
        <circle class="cls-2" cx="1414.97" cy="735.19" r="2.5"/>
        <circle class="cls-2" cx="1589.74" cy="879.43" r="2.5"/>
        <circle class="cls-2" cx="1897.91" cy="882.32" r="2.5"/>
        <circle class="cls-2" cx="1902.01" cy="482.99" r="2.5"/>
        <circle class="cls-2" cx="1086.98" cy="607.42" r="2.5"/>
        <circle class="cls-2" cx="1209.9" cy="594.54" r="2.5"/>
        <circle class="cls-2" cx="1891.52" cy="435.76" r="2.5"/>
      </g>
      <g id="grid-gridlines">
        <line class="cls-5" x1="1086.98" x2="1086.98" y2="1080"/>
        <line class="cls-4" x1="-115.14" y1="134.32" x2="2703.58" y2="134.32"/>
        <line class="cls-4" x1="-115.14" y1="927.11" x2="2703.58" y2="927.11"/>
      </g>
    </g>
  </g>
</svg>