<?xml version="1.0" encoding="UTF-8"?>
<svg id="Camada_1" data-name="Camada 1" xmlns="http://www.w3.org/2000/svg" viewBox="0 0 485.81 572.18">
  <defs>
    <style>
      .cls-1 {
        fill: #f9f9f8;
      }
    </style>
  </defs>
  <g>
    <g>
      <path class="cls-1" d="M9.44,425.16h25.64v5.32H3.83v-57.76h5.61v52.43Z"/>
      <path class="cls-1" d="M56.31,430.49l23.09-57.76h7.82l23.35,57.76h-6.58l-6.15-15.33h-28.97l-6.15,15.33h-6.41ZM70.8,410.08h25.02l-11.76-29.2c-.27-.81-.7-1.78-.79-2.34-.09.48-.44,1.53-.79,2.34l-11.68,29.2Z"/>
      <path class="cls-1" d="M288.1,524.23l23.09-55.81h7.82l23.35,55.81h-6.58l-6.15-14.81h-28.97l-6.15,14.81h-6.41ZM302.58,504.51h25.02l-11.76-28.21c-.27-.78-.7-1.72-.79-2.26-.09.47-.44,1.48-.79,2.26l-11.68,28.21Z"/>
      <path class="cls-1" d="M356.36,430.49l23.09-57.76h7.82l23.35,57.76h-6.58l-6.15-15.33h-28.97l-6.15,15.33h-6.41ZM370.85,410.08h25.02l-11.76-29.2c-.27-.81-.7-1.78-.79-2.34-.09.48-.44,1.53-.79,2.34l-11.68,29.2Z"/>
      <path class="cls-1" d="M129.22,430.49v-57.76h24.34c13.22,0,21.24,6.46,21.24,16.7,0,8.31-4.92,14.12-13.31,16.13l13.94,24.93h-7.29l-13.31-23.96h-19.05v23.96h-6.56ZM135.78,401.28h17.96c9.02,0,14.31-4.35,14.31-11.7s-5.56-11.61-14.49-11.61h-17.77v23.31Z"/>
      <path class="cls-1" d="M201.66,430.49h-5.61v-57.76h5.61v57.76Z"/>
      <path class="cls-1" d="M254.36,372.73c10.76,0,17.84,5.61,18.76,14.96h-6.09c-.66-6.31-5.25-9.9-12.75-9.9-8.42,0-13.93,4.05-13.93,10.36,0,4.91,3.09,8.03,9.34,9.51l10.26,2.34c9.34,2.11,14.17,7.09,14.17,14.65,0,9.67-8,15.83-20.34,15.83-11.59,0-19.43-5.69-20.18-14.81h6.17c.33,5.84,5.84,9.66,14.01,9.66,8.75,0,14.34-3.98,14.34-10.37,0-4.99-3-8.26-9.42-9.66l-10.09-2.34c-9.34-2.11-14.26-7.09-14.26-14.73,0-9.36,8-15.51,20.01-15.51Z"/>
      <path class="cls-1" d="M319.6,372.73c10.76,0,17.84,5.61,18.76,14.96h-6.09c-.66-6.31-5.25-9.9-12.75-9.9-8.42,0-13.93,4.05-13.93,10.36,0,4.91,3.09,8.03,9.34,9.51l10.26,2.34c9.34,2.11,14.17,7.09,14.17,14.65,0,9.67-8,15.83-20.34,15.83-11.59,0-19.43-5.69-20.18-14.81h6.17c.33,5.84,5.84,9.66,14.01,9.66,8.75,0,14.34-3.98,14.34-10.37,0-4.99-3-8.26-9.42-9.66l-10.09-2.34c-9.34-2.11-14.26-7.09-14.26-14.73,0-9.36,8-15.51,20.01-15.51Z"/>
      <path class="cls-1" d="M55.66,524.23v-55.81h-5.53l-20.34,49.18-20.35-49.18H3.83v55.81h5.54v-26.5c0-9.74-.16-14.03-.47-17.85l18.16,44.35h5.38l18.16-44.11c-.31,2.1-.47,8.26-.47,16.75v27.36h5.53Z"/>
      <path class="cls-1" d="M80.49,524.23l20.5-55.81h6.94l20.73,55.81h-5.84l-5.46-14.81h-25.72l-5.46,14.81h-5.69ZM93.35,504.51h22.21l-10.44-28.21c-.24-.78-.62-1.72-.7-2.26-.08.47-.39,1.48-.7,2.26l-10.36,28.21Z"/>
      <path class="cls-1" d="M147.78,496.36c0-16.61,10.76-27.94,26.5-27.94,12,0,21.43,7.02,23.69,17.75h-6c-2.34-7.78-9.2-12.54-17.93-12.54-12.23,0-20.42,9.06-20.42,22.73s8.19,22.66,20.42,22.66c8.81,0,15.82-4.61,18.24-11.86h6c-2.57,10.2-12.31,17.07-24.32,17.07-15.59,0-26.19-11.25-26.19-27.87Z"/>
      <path class="cls-1" d="M224.99,524.23v-55.81h5.61v24.86h30.16v-24.86h5.53v55.81h-5.53v-25.72h-30.16v25.72h-5.61Z"/>
      <path class="cls-1" d="M364.1,524.23v-55.81h16.83c16.83,0,28.06,11.23,28.06,27.9s-11.15,27.9-27.9,27.9h-16.99ZM369.72,473.56v45.52h11.15c13.64,0,22.37-8.88,22.37-22.76s-8.73-22.76-22.52-22.76h-10.99Z"/>
      <path class="cls-1" d="M459.23,524.23c-15.67,0-26.58-11.22-26.58-27.13s10.99-27.21,26.58-27.21,26.58,11.22,26.58,27.21-10.99,27.13-26.58,27.13ZM459.23,475.02c-12.31,0-20.73,8.95-20.73,22.07s8.42,22.07,20.73,22.07,20.81-9.02,20.81-22.07-8.5-22.07-20.81-22.07Z"/>
    </g>
    <g>
      <path class="cls-1" d="M0,571.88v-17.34h5.94c1.35,0,2.46.25,3.34.74.87.49,1.52,1.15,1.94,1.99s.64,1.76.64,2.79-.21,1.97-.64,2.81c-.42.84-1.07,1.5-1.94,2-.87.5-1.98.74-3.33.74H1.75v-1.95h4.1c.91,0,1.65-.16,2.21-.47.56-.31.96-.74,1.22-1.29.25-.55.38-1.16.38-1.85s-.13-1.29-.38-1.83-.66-.96-1.22-1.27c-.56-.31-1.3-.47-2.23-.47h-3.61v15.4H0Z"/>
      <path class="cls-1" d="M20.9,571.88v-17.34h2.21v15.39h8.03v1.96h-10.24Z"/>
      <path class="cls-1" d="M38.56,571.88l6.3-17.34h2.56l6.38,17.34h-2.33l-3.68-10.29c-.23-.64-.49-1.43-.79-2.38-.3-.95-.66-2.16-1.09-3.64h.42c-.42,1.49-.78,2.72-1.09,3.68-.31.97-.56,1.75-.76,2.33l-3.57,10.29h-2.35ZM41.72,567.04v-1.93h8.9v1.93h-8.9ZM45.25,552.84l1.63-3.42h2.34l-2.26,3.42h-1.71Z"/>
      <path class="cls-1" d="M67.72,572.18c-1.25,0-2.33-.2-3.26-.61-.92-.4-1.64-.97-2.16-1.69-.52-.72-.81-1.57-.88-2.54h2.27c.06.65.29,1.19.67,1.61s.87.73,1.46.94c.6.21,1.23.31,1.91.31.78,0,1.49-.13,2.11-.39.63-.25,1.12-.62,1.48-1.08s.55-1,.55-1.62c0-.56-.16-1.01-.47-1.36-.32-.35-.73-.64-1.25-.86-.52-.23-1.09-.42-1.71-.59l-2.09-.6c-1.4-.4-2.48-.96-3.26-1.7-.77-.74-1.16-1.68-1.16-2.83,0-.98.26-1.84.79-2.57.53-.73,1.24-1.3,2.14-1.71s1.91-.61,3.03-.61,2.15.2,3.03.61,1.57.95,2.08,1.65c.51.69.78,1.48.81,2.36h-2.16c-.1-.84-.51-1.5-1.21-1.96s-1.58-.69-2.61-.69c-.74,0-1.4.12-1.96.37-.56.25-1,.58-1.31,1-.31.42-.47.91-.47,1.45,0,.61.19,1.09.57,1.46s.82.66,1.34.86.98.37,1.4.49l1.74.48c.47.12.98.3,1.54.51s1.1.51,1.61.87c.51.36.93.82,1.26,1.37s.5,1.23.5,2.04c0,.95-.25,1.8-.74,2.56s-1.21,1.36-2.15,1.81c-.94.44-2.07.66-3.41.66Z"/>
      <path class="cls-1" d="M82.06,556.5v-1.96h13.1v1.96h-5.43v15.39h-2.21v-15.39h-5.46Z"/>
      <path class="cls-1" d="M106.28,554.54v17.34h-2.21v-17.34h2.21Z"/>
      <path class="cls-1" d="M123.16,572.11c-1.48,0-2.8-.36-3.96-1.08-1.16-.72-2.07-1.74-2.74-3.07-.67-1.33-1-2.91-1-4.74s.33-3.42,1-4.75c.67-1.33,1.58-2.35,2.74-3.08,1.16-.72,2.47-1.08,3.96-1.08.88,0,1.71.13,2.49.38.78.26,1.48.63,2.1,1.12.62.49,1.14,1.09,1.55,1.79.42.7.7,1.5.86,2.39h-2.21c-.12-.6-.33-1.12-.63-1.57-.3-.45-.66-.83-1.1-1.14-.43-.31-.9-.54-1.42-.7s-1.06-.23-1.63-.23c-1.04,0-1.98.26-2.81.79s-1.5,1.3-2,2.32c-.49,1.02-.73,2.27-.73,3.75s.25,2.72.74,3.74c.49,1.02,1.16,1.79,2,2.32.84.52,1.77.78,2.8.78.57,0,1.11-.08,1.63-.24s1-.39,1.42-.7c.44-.31.8-.68,1.1-1.14.3-.45.51-.97.63-1.57h2.21c-.15.88-.43,1.68-.84,2.37s-.93,1.3-1.56,1.8c-.62.5-1.32.87-2.1,1.13-.77.26-1.61.39-2.49.39Z"/>
      <path class="cls-1" d="M137.27,571.88l6.3-17.34h2.56l6.38,17.34h-2.33l-3.68-10.29c-.23-.64-.49-1.43-.79-2.38-.29-.95-.66-2.16-1.08-3.64h.42c-.42,1.49-.78,2.72-1.09,3.68-.31.97-.56,1.75-.76,2.33l-3.58,10.29h-2.35ZM140.44,567.04v-1.93h8.9v1.93h-8.9Z"/>
      <path class="cls-1" d="M180.28,572.11c-1.48,0-2.8-.36-3.96-1.08-1.16-.72-2.07-1.74-2.74-3.07-.67-1.33-1-2.91-1-4.74s.33-3.42,1-4.75c.67-1.33,1.58-2.35,2.74-3.08,1.16-.72,2.49-1.08,3.96-1.08s2.81.36,3.96,1.08c1.16.72,2.06,1.75,2.73,3.08s1,2.92,1,4.75-.33,3.41-1,4.74c-.67,1.33-1.57,2.35-2.73,3.07-1.16.72-2.47,1.08-3.96,1.08ZM180.28,570.07c1.04,0,1.97-.26,2.81-.78.83-.53,1.49-1.3,1.98-2.32.49-1.02.74-2.27.74-3.74s-.25-2.74-.74-3.76c-.49-1.02-1.15-1.79-1.98-2.32-.84-.52-1.77-.78-2.81-.78s-1.98.26-2.81.79-1.5,1.3-2,2.32c-.49,1.02-.74,2.27-.74,3.75s.25,2.72.74,3.74c.49,1.01,1.16,1.79,2,2.31s1.78.79,2.81.79Z"/>
      <path class="cls-1" d="M204.17,572.11c-1.48,0-2.8-.36-3.96-1.08-1.16-.72-2.07-1.74-2.73-3.07-.66-1.33-.99-2.91-.99-4.74s.33-3.42.99-4.75c.67-1.33,1.58-2.35,2.73-3.08,1.16-.72,2.49-1.08,3.96-1.08.88,0,1.7.13,2.49.38.78.26,1.48.63,2.1,1.12.62.49,1.14,1.09,1.56,1.79.41.7.69,1.5.85,2.39h-2.21c-.13-.6-.34-1.12-.64-1.57s-.67-.83-1.09-1.14c-.43-.31-.9-.54-1.43-.7-.52-.16-1.06-.23-1.63-.23-1.04,0-1.98.26-2.81.79s-1.5,1.3-1.99,2.32c-.49,1.02-.74,2.27-.74,3.75s.25,2.72.74,3.74c.49,1.02,1.16,1.79,2,2.32.84.52,1.78.78,2.81.78.57,0,1.11-.08,1.63-.24.53-.16,1-.39,1.43-.7.43-.31.79-.68,1.09-1.14.3-.45.51-.97.64-1.57h2.21c-.15.88-.43,1.68-.84,2.37s-.93,1.3-1.55,1.8c-.63.5-1.32.87-2.1,1.13-.78.26-1.62.39-2.5.39Z"/>
      <path class="cls-1" d="M227.02,572.16c-1.36,0-2.55-.27-3.58-.8-1.02-.53-1.81-1.27-2.37-2.2s-.84-1.99-.84-3.18v-11.44h2.21v11.27c0,.83.19,1.57.56,2.22.37.65.89,1.16,1.58,1.53s1.5.56,2.44.56,1.76-.19,2.44-.56,1.2-.88,1.56-1.53c.37-.65.55-1.39.55-2.22v-11.27h2.21v11.44c0,1.18-.28,2.24-.84,3.18-.56.93-1.34,1.67-2.36,2.2-1.01.54-2.19.8-3.56.8Z"/>
      <path class="cls-1" d="M243.64,571.88v-17.34h2.21v15.39h8.03v1.96h-10.24Z"/>
      <path class="cls-1" d="M261.31,571.88l6.29-17.34h2.57l6.37,17.34h-2.33l-3.67-10.29c-.23-.64-.49-1.43-.79-2.38-.3-.95-.66-2.16-1.08-3.64h.41c-.41,1.49-.78,2.72-1.08,3.68-.31.97-.57,1.75-.76,2.33l-3.57,10.29h-2.35ZM264.47,567.04v-1.93h8.9v1.93h-8.9Z"/>
      <path class="cls-1" d="M284.91,571.88v-17.34h5.93c1.35,0,2.46.23,3.34.69.86.46,1.52,1.1,1.94,1.91.42.8.63,1.73.63,2.76s-.21,1.95-.63,2.74c-.43.79-1.07,1.41-1.94,1.86-.86.45-1.98.67-3.33.67h-4.72v-1.97h4.61c.92,0,1.65-.14,2.21-.4.55-.27.96-.65,1.21-1.14.26-.49.39-1.08.39-1.75s-.13-1.29-.39-1.8c-.25-.51-.67-.9-1.22-1.19s-1.29-.42-2.22-.42h-3.6v15.4h-2.21ZM294.88,571.88l-4.19-7.81h2.49l4.26,7.81h-2.55Z"/>
    </g>
  </g>
  <g>
    <path class="cls-1" d="M411.47,165.31c-9.93,1.95-24.97,4.2-43.26,4.07-60.76-.44-95.53-26.75-130.12-36.99-33.92-10.04-85.92-10.02-163.76,37.08,2.03-2.45,5.01-5.87,8.88-9.71,37.75-37.4,102.67-56.88,159.69-43.9,53.92,12.28,64.22,45.27,126.88,50.56,17.48,1.48,32.06.21,41.69-1.11Z"/>
    <g>
      <path class="cls-1" d="M112.42,106.44c-.9-.22-1.47-1.18-1.25-2.08s1.18-1.47,2.08-1.25c.87.22,1.42,1.17,1.19,2.06-.22.9-1.15,1.48-2.02,1.26Z"/>
      <path class="cls-1" d="M114.95,97.19c-.88-.28-1.39-1.28-1.1-2.16.28-.88,1.28-1.39,2.16-1.1.85.28,1.33,1.26,1.05,2.14-.28.88-1.25,1.39-2.1,1.12Z"/>
      <path class="cls-1" d="M118.1,88.13c-.86-.34-1.3-1.37-.95-2.23.34-.86,1.37-1.3,2.23-.95.83.33,1.25,1.35.9,2.21-.34.86-1.34,1.31-2.18.97Z"/>
      <path class="cls-1" d="M121.86,79.3c-.83-.4-1.2-1.45-.8-2.29.4-.83,1.45-1.2,2.29-.8.81.39,1.15,1.43.75,2.26-.4.83-1.43,1.21-2.24.82Z"/>
      <path class="cls-1" d="M126.22,70.77c-.8-.46-1.1-1.54-.64-2.34.46-.8,1.54-1.1,2.34-.64.78.44,1.05,1.51.59,2.31-.46.8-1.51,1.11-2.29.66Z"/>
      <path class="cls-1" d="M131.17,62.55c-.77-.51-.98-1.61-.47-2.38.51-.77,1.61-.98,2.38-.47.75.5.94,1.58.42,2.35-.52.77-1.59,1-2.33.5Z"/>
      <path class="cls-1" d="M136.69,54.73c-.73-.57-.86-1.68-.3-2.4.57-.73,1.68-.86,2.4-.3.71.55.82,1.64.25,2.37-.57.73-1.65.88-2.36.33Z"/>
      <path class="cls-1" d="M142.76,47.31c-.69-.62-.74-1.73-.12-2.42s1.73-.74,2.42-.12c.67.6.7,1.7.08,2.38-.62.69-1.71.76-2.38.16Z"/>
      <path class="cls-1" d="M149.33,40.38c-.64-.67-.61-1.78.06-2.42s1.79-.61,2.42.06c.62.65.57,1.75-.1,2.38s-1.77.63-2.38-.03Z"/>
      <path class="cls-1" d="M156.43,33.96c-.59-.71-.48-1.82.24-2.41.71-.59,1.82-.48,2.41.24.57.69.44,1.78-.27,2.37-.71.59-1.81.5-2.38-.2Z"/>
      <path class="cls-1" d="M163.99,28.02c-.54-.75-.35-1.85.4-2.39.75-.54,1.85-.35,2.39.4.52.73.32,1.81-.43,2.35-.75.54-1.84.38-2.36-.35Z"/>
      <path class="cls-1" d="M171.92,22.62c-.49-.79-.23-1.87.56-2.36.79-.49,1.87-.23,2.36.56.47.76.2,1.83-.59,2.31-.79.49-1.86.25-2.33-.51Z"/>
      <path class="cls-1" d="M180.18,17.75c-.43-.82-.1-1.88.71-2.31.82-.43,1.88-.1,2.31.71.42.79.08,1.83-.74,2.27s-1.87.13-2.29-.67Z"/>
      <path class="cls-1" d="M188.77,13.46c-.37-.85.03-1.89.87-2.26.84-.37,1.89.03,2.26.87.36.82-.05,1.84-.9,2.21s-1.87,0-2.24-.82Z"/>
      <path class="cls-1" d="M197.6,9.79c-.31-.87.16-1.88,1.03-2.19.87-.31,1.88.16,2.19,1.03.3.84-.18,1.83-1.05,2.14-.87.31-1.87-.14-2.17-.98Z"/>
      <path class="cls-1" d="M206.69,6.77c-.25-.89.3-1.86,1.19-2.11s1.86.3,2.11,1.19c.24.86-.32,1.81-1.21,2.06s-1.85-.27-2.09-1.14Z"/>
      <path class="cls-1" d="M215.97,4.43c-.18-.91.44-1.83,1.35-2.01.91-.18,1.83.44,2.01,1.35.18.88-.45,1.78-1.36,1.96-.91.18-1.83-.41-2-1.29Z"/>
      <path class="cls-1" d="M225.4,2.79c-.11-.92.58-1.8,1.49-1.91s1.8.58,1.91,1.49c.11.89-.58,1.74-1.5,1.85-.92.11-1.79-.55-1.9-1.44Z"/>
      <path class="cls-1" d="M234.92,1.87c-.04-.92.71-1.75,1.63-1.79.92-.04,1.75.71,1.79,1.63.04.9-.71,1.69-1.64,1.73-.92.04-1.75-.68-1.79-1.58Z"/>
      <path class="cls-1" d="M244.49,1.66c.03-.92.84-1.69,1.76-1.66.92.03,1.69.84,1.66,1.76-.03.9-.84,1.64-1.76,1.61-.92-.03-1.69-.81-1.66-1.71Z"/>
      <path class="cls-1" d="M254.04,2.17c.1-.92.96-1.62,1.88-1.52.92.1,1.62.96,1.52,1.88-.09.89-.96,1.57-1.88,1.47-.92-.1-1.62-.94-1.53-1.83Z"/>
      <path class="cls-1" d="M263.55,3.41c.17-.91,1.09-1.54,2-1.38.91.17,1.54,1.09,1.38,2-.16.88-1.08,1.49-1.99,1.32-.91-.17-1.55-1.06-1.38-1.94Z"/>
      <path class="cls-1" d="M272.9,5.37c.24-.89,1.2-1.45,2.09-1.22.89.24,1.45,1.2,1.22,2.09-.23.87-1.19,1.4-2.08,1.17-.89-.24-1.46-1.17-1.23-2.04Z"/>
      <path class="cls-1" d="M282.1,8.05c.3-.87,1.31-1.36,2.18-1.06.87.3,1.36,1.31,1.06,2.18-.29.85-1.29,1.31-2.16,1s-1.37-1.28-1.07-2.13Z"/>
      <path class="cls-1" d="M291.06,11.41c.37-.85,1.4-1.26,2.25-.89.85.37,1.26,1.4.89,2.25-.36.82-1.38,1.21-2.23.84-.85-.37-1.27-1.38-.91-2.2Z"/>
      <path class="cls-1" d="M299.75,15.41c.43-.82,1.49-1.16,2.31-.73s1.15,1.49.73,2.31c-.41.8-1.47,1.11-2.29.68s-1.17-1.47-.75-2.26Z"/>
      <path class="cls-1" d="M308.15,20.04c.48-.79,1.57-1.05,2.36-.57.79.48,1.05,1.57.57,2.36-.47.77-1.54,1-2.33.52-.79-.48-1.06-1.54-.59-2.31Z"/>
      <path class="cls-1" d="M316.23,25.23c.53-.75,1.63-.94,2.39-.41.75.53.94,1.63.41,2.39-.52.73-1.6.9-2.36.36s-.96-1.61-.44-2.34Z"/>
      <path class="cls-1" d="M323.95,30.94c.58-.72,1.69-.84,2.41-.25.72.58.84,1.69.26,2.41-.56.7-1.66.79-2.38.21-.72-.58-.85-1.67-.29-2.37Z"/>
      <path class="cls-1" d="M331.31,37.14c.62-.68,1.74-.73,2.42-.11.68.62.73,1.74.11,2.42-.61.66-1.7.69-2.38.07s-.75-1.72-.14-2.38Z"/>
      <path class="cls-1" d="M338.26,43.77c.67-.64,1.78-.62,2.42.04s.62,1.78-.04,2.42c-.65.62-1.74.58-2.38-.08-.64-.67-.64-1.76,0-2.38Z"/>
      <path class="cls-1" d="M344.79,50.83c.71-.6,1.82-.51,2.41.2.6.71.51,1.82-.2,2.41-.68.58-1.78.47-2.37-.23-.6-.71-.53-1.8.16-2.38Z"/>
      <path class="cls-1" d="M350.78,58.23c.76-.53,1.85-.35,2.39.41.53.76.35,1.85-.41,2.39-.73.52-1.81.31-2.34-.44-.53-.76-.37-1.84.36-2.36Z"/>
      <path class="cls-1" d="M356.02,66.19c.8-.46,1.88-.18,2.34.62s.18,1.88-.62,2.34c-.78.45-1.83.15-2.29-.65-.46-.8-.2-1.86.58-2.31Z"/>
      <path class="cls-1" d="M360.63,74.6c.83-.41,1.89-.05,2.29.78.41.83.05,1.89-.78,2.29-.81.39-1.84.02-2.24-.81s-.07-1.87.74-2.27Z"/>
      <path class="cls-1" d="M364.66,83.3c.85-.35,1.88.08,2.23.93.35.85-.08,1.88-.93,2.23-.83.34-1.83-.1-2.18-.95-.35-.86.05-1.87.88-2.21Z"/>
      <path class="cls-1" d="M368.12,92.26c.88-.29,1.87.2,2.17,1.08.29.88-.2,1.87-1.08,2.17-.85.28-1.82-.22-2.12-1.1-.29-.88.18-1.87,1.03-2.15Z"/>
      <path class="cls-1" d="M370.98,101.41c.89-.23,1.86.33,2.09,1.22.23.89-.33,1.86-1.22,2.09-.87.23-1.8-.34-2.04-1.24s.3-1.85,1.17-2.08Z"/>
      <path class="cls-1" d="M373.2,110.74c.91-.17,1.83.46,2,1.37.17.91-.46,1.83-1.37,2-.88.17-1.78-.47-1.95-1.38-.17-.91.43-1.82,1.31-1.99Z"/>
      <path class="cls-1" d="M374.74,120.19c.92-.1,1.79.59,1.89,1.51.1.92-.59,1.79-1.51,1.9-.89.1-1.74-.6-1.84-1.52-.1-.92.56-1.79,1.46-1.89Z"/>
      <path class="cls-1" d="M375.59,129.73c.92-.03,1.74.72,1.78,1.65.03.92-.72,1.74-1.65,1.78-.9.03-1.69-.73-1.72-1.65-.03-.92.7-1.74,1.59-1.77Z"/>
      <path class="cls-1" d="M375.71,139.28c.92.04,1.68.86,1.64,1.78-.04.92-.86,1.68-1.78,1.64-.9-.04-1.63-.85-1.59-1.78.04-.92.83-1.68,1.73-1.64Z"/>
      <path class="cls-1" d="M375.09,148.82c.92.11,1.61.98,1.5,1.9s-.98,1.61-1.9,1.5c-.89-.11-1.55-.98-1.44-1.9s.96-1.61,1.85-1.51Z"/>
      <path class="cls-1" d="M373.72,158.29c.91.18,1.53,1.11,1.34,2.02-.18.91-1.11,1.53-2.02,1.34-.88-.18-1.47-1.1-1.29-2.01.18-.91,1.08-1.53,1.96-1.35Z"/>
      <path class="cls-1" d="M371.61,167.62c.89.25,1.43,1.22,1.18,2.11s-1.22,1.44-2.11,1.19c-.86-.24-1.38-1.21-1.13-2.1.25-.89,1.2-1.44,2.06-1.2Z"/>
      <path class="cls-1" d="M368.8,176.76c.87.32,1.34,1.33,1.02,2.2-.32.87-1.33,1.34-2.2,1.02-.84-.31-1.29-1.31-.97-2.18.32-.87,1.3-1.35,2.15-1.04Z"/>
      <path class="cls-1" d="M365.3,185.68c.84.38,1.24,1.42.86,2.27-.38.84-1.42,1.24-2.26.86-.82-.37-1.19-1.4-.81-2.24.38-.84,1.4-1.25,2.22-.88Z"/>
      <path class="cls-1" d="M361.17,194.32c.81.44,1.13,1.51.7,2.32-.44.81-1.51,1.13-2.32.7-.79-.43-1.09-1.48-.65-2.29.44-.81,1.48-1.15,2.27-.72Z"/>
      <path class="cls-1" d="M356.44,202.65c.78.49,1.03,1.58.53,2.36-.49.78-1.58,1.03-2.36.53-.76-.48-.98-1.55-.49-2.34.49-.78,1.56-1.04,2.32-.56Z"/>
      <path class="cls-1" d="M351.12,210.65c.75.55.91,1.65.37,2.39-.55.75-1.65.91-2.39.37-.72-.53-.87-1.62-.32-2.36.55-.75,1.63-.93,2.35-.4Z"/>
      <path class="cls-1" d="M345.28,218.25c.71.6.8,1.71.2,2.41-.6.71-1.71.8-2.41.2-.69-.58-.76-1.67-.16-2.38.6-.71,1.69-.82,2.37-.24Z"/>
      <path class="cls-1" d="M338.93,225.43c.66.64.68,1.76.04,2.42-.64.66-1.76.68-2.42.04-.64-.62-.64-1.72,0-2.38.64-.66,1.74-.7,2.38-.07Z"/>
      <path class="cls-1" d="M332.1,232.16c.62.69.56,1.8-.13,2.42-.69.62-1.8.56-2.42-.13-.6-.67-.52-1.76.17-2.38.69-.62,1.78-.58,2.38.09Z"/>
      <path class="cls-1" d="M324.81,238.41c.57.73.43,1.84-.3,2.4-.73.57-1.84.43-2.4-.3-.55-.71-.4-1.79.33-2.36.73-.57,1.82-.45,2.37.26Z"/>
      <path class="cls-1" d="M317.13,244.13c.52.77.3,1.86-.47,2.38-.77.52-1.86.3-2.38-.47-.5-.74-.27-1.82.5-2.33.77-.52,1.85-.32,2.35.42Z"/>
      <path class="cls-1" d="M309.06,249.29c.46.8.17,1.88-.63,2.34-.8.46-1.88.17-2.34-.63-.45-.78-.14-1.83.66-2.29.8-.46,1.86-.19,2.31.59Z"/>
      <path class="cls-1" d="M300.62,253.87c.4.83.03,1.89-.8,2.29-.83.4-1.89.03-2.29-.8-.39-.81,0-1.84.82-2.24.83-.4,1.87-.06,2.26.75Z"/>
      <path class="cls-1" d="M291.9,257.82c.34.86-.1,1.88-.97,2.22-.86.34-1.88-.11-2.22-.97-.33-.84.13-1.83.99-2.17.86-.34,1.87.08,2.2.91Z"/>
      <path class="cls-1" d="M282.92,261.12c.27.88-.24,1.87-1.13,2.14-.88.27-1.87-.24-2.14-1.13-.27-.86.26-1.82,1.14-2.09.88-.27,1.86.22,2.13,1.08Z"/>
      <path class="cls-1" d="M273.71,263.75c.21.9-.38,1.85-1.28,2.05-.9.21-1.85-.38-2.05-1.28-.2-.87.4-1.79,1.3-2,.9-.21,1.84.36,2.04,1.23Z"/>
      <path class="cls-1" d="M264.35,265.67c.14.91-.52,1.81-1.43,1.95s-1.81-.52-1.95-1.43.53-1.76,1.44-1.9,1.81.49,1.95,1.38Z"/>
      <path class="cls-1" d="M254.84,266.9c.07.92-.65,1.77-1.57,1.84-.92.07-1.77-.65-1.84-1.57-.07-.89.66-1.72,1.58-1.79.92-.07,1.77.63,1.84,1.52Z"/>
      <path class="cls-1" d="M245.32,267.4c.01.92-.76,1.72-1.69,1.74-.92.01-1.72-.76-1.74-1.69-.01-.9.76-1.67,1.69-1.68.92-.01,1.72.74,1.74,1.63Z"/>
      <path class="cls-1" d="M235.71,267.24c-.06.92-.9,1.65-1.83,1.59s-1.65-.9-1.59-1.83c.06-.89.9-1.6,1.82-1.54.92.06,1.66.88,1.6,1.77Z"/>
      <path class="cls-1" d="M226.18,266.36c-.13.92-1.02,1.58-1.94,1.45s-1.58-1.02-1.45-1.94c.13-.89,1.02-1.53,1.93-1.4s1.59,1,1.46,1.88Z"/>
      <path class="cls-1" d="M216.73,264.78c-.2.9-1.14,1.51-2.04,1.31-.9-.2-1.51-1.14-1.31-2.04.19-.88,1.12-1.45,2.03-1.25.9.2,1.51,1.11,1.32,1.99Z"/>
      <path class="cls-1" d="M207.42,262.52c-.26.89-1.24,1.42-2.13,1.16-.89-.26-1.42-1.24-1.16-2.13.25-.86,1.23-1.37,2.11-1.1.89.26,1.43,1.22,1.17,2.08Z"/>
      <path class="cls-1" d="M198.3,259.58c-.33.86-1.34,1.32-2.21,1s-1.32-1.34-1-2.21c.32-.84,1.32-1.27,2.19-.95.87.33,1.33,1.32,1.02,2.16Z"/>
      <path class="cls-1" d="M189.43,256c-.39.84-1.43,1.23-2.27.84-.84-.39-1.23-1.43-.84-2.27.38-.81,1.41-1.18,2.25-.79s1.24,1.41.86,2.22Z"/>
      <path class="cls-1" d="M180.81,251.78c-.45.81-1.52,1.12-2.33.67-.81-.45-1.12-1.52-.67-2.33.43-.79,1.49-1.07,2.3-.62.81.45,1.13,1.49.7,2.28Z"/>
      <path class="cls-1" d="M172.53,246.96c-.5.78-1.59,1.01-2.37.51-.78-.5-1.01-1.59-.5-2.37.49-.75,1.56-.96,2.34-.46.78.5,1.02,1.57.53,2.32Z"/>
      <path class="cls-1" d="M164.61,241.57c-.56.74-1.66.89-2.4.34s-.89-1.66-.34-2.4c.54-.72,1.63-.85,2.37-.29.74.56.91,1.64.37,2.36Z"/>
      <path class="cls-1" d="M157.09,235.61c-.61.7-1.72.77-2.42.17-.7-.61-.77-1.72-.16-2.42.59-.68,1.68-.73,2.38-.12.7.61.79,1.7.2,2.38Z"/>
      <path class="cls-1" d="M150.01,229.15c-.66.65-1.77.65-2.42,0-.65-.66-.65-1.77,0-2.42.64-.63,1.73-.61,2.38.05.65.66.67,1.75.03,2.38Z"/>
      <path class="cls-1" d="M143.42,222.21c-.7.6-1.81.52-2.42-.18-.6-.7-.52-1.81.18-2.42.68-.59,1.77-.49,2.37.21.6.7.54,1.79-.14,2.38Z"/>
      <path class="cls-1" d="M137.33,214.81c-.74.55-1.84.39-2.4-.35-.55-.74-.39-1.84.35-2.4.72-.54,1.8-.36,2.35.38.55.74.41,1.83-.31,2.36Z"/>
      <path class="cls-1" d="M131.77,206.99c-.78.5-1.87.26-2.37-.52-.5-.78-.26-1.87.52-2.37.76-.48,1.82-.23,2.32.55.5.78.28,1.85-.47,2.34Z"/>
      <path class="cls-1" d="M126.79,198.8c-.81.44-1.88.13-2.32-.69-.44-.81-.13-1.88.69-2.32.79-.43,1.83-.1,2.27.71.44.81.15,1.87-.64,2.3Z"/>
      <path class="cls-1" d="M122.4,190.29c-.84.38-1.89,0-2.27-.85s0-1.89.85-2.27c.82-.37,1.84.03,2.22.87s.02,1.87-.8,2.25Z"/>
      <path class="cls-1" d="M118.63,181.48c-.87.32-1.88-.14-2.2-1.01-.32-.87.14-1.88,1.01-2.2.84-.31,1.83.16,2.15,1.03.32.87-.12,1.87-.96,2.18Z"/>
    </g>
  </g>
</svg>